<ttFont>
          <CharString index="0">
            203 135 rmoveto
            -34 callsubr
            rlineto
            -30 12 9 -8 24 hhcurveto
            17 16 3 6 12 -71 callgsubr
            -202 -538 -80 callgsubr
            17 222 rmoveto
            -88 callsubr
            return
          </CharString>
          <CharString index="1">
            508 -41 callsubr
            13 1 11 -101 callgsubr
            -386 -39 callgsubr
            -627 vlineto
            -31 17 -19 26 vhcurveto
            return
          </CharString>
          <CharString index="2">
            -106 callsubr
            315 -21 callsubr
            -10 callsubr
            return
          </CharString>
          <CharString index="3">
            -58 callsubr
            173 hlineto
            4 -30 callsubr
            -4 11 vhcurveto
            -173 hlineto
            -14 -20 -1 -19 hhcurveto
            122 vlineto
            20 -1 17 13 vvcurveto
            -1 20 10 callgsubr
            218 hlineto
            4 11 1 14 -29 callgsubr
            -344 -15 callgsubr
            -490 vlineto
            -29 17 -18 27 vhcurveto
            return
          </CharString>
          <CharString index="4">
            hintmask 11101000
            -105 callgsubr
            return
          </CharString>
          <CharString index="5">
            hintmask 11101000
            -107 callsubr
            return
          </CharString>
          <CharString index="6">
            hintmask 11101000
            -104 callgsubr
            return
          </CharString>
          <CharString index="7">
            45 -28 74 -32 96 1 rrcurveto
            128 2 76 66 94 vvcurveto
            73 -62 49 -74 25 vhcurveto
            -106 37 rlineto
            -55 19 -28 16 39 vvcurveto
            48 41 33 66 1 vhcurveto
            50 1 64 -14 50 -22 rrcurveto
            17 14 11 23 22 vvcurveto
            -48 22 -72 20 -70 -1 rrcurveto
            -122 -2 -66 -69 -83 vvcurveto
            -66 44 -42 79 -26 vhcurveto
            111 -37 rlineto
            58 -19 32 -32 -41 vvcurveto
            -53 -58 -34 -64 -1 vhcurveto
            -78 -1 -60 30 -47 26 -16 -12 -15 -24 -1 -22 rrcurveto
            return
          </CharString>
          <CharString index="8">
            rmoveto
            -15 -4 -16 -15 -9 -16 101 -127 rcurveline
            19 -4 29 -1 16 6 107 132 rcurveline
            -8 17 -11 11 -17 6 -101 -98 rcurveline
            endchar
          </CharString>
          <CharString index="9">
            65 90 rmoveto
            -9 -14 -3 -13 -11 78 callsubr
            -9 10 -33 vhcurveto
            379 hlineto
            42 14 18 27 14 -3 14 -4 12 hvcurveto
            -12 -26 -40 -4 -54 hhcurveto
            -131 hlineto
            -25 -38 -1 -4 -42 hvcurveto
            -3 3 26 37 31 42 22 35 rlinecurve
            267 414 rlineto
            8 14 4 11 10 vvcurveto
            10 -2 11 -9 32 vhcurveto
            -396 hlineto
            -4 -14 -17 callsubr
            170 hlineto
            25 108 2 5 24 hvcurveto
            3 -3 -30 -42 -25 -34 -22 -34 rlinecurve
            return
          </CharString>
          <CharString index="10">
            33 47 rmoveto
            -100 callsubr
            return
          </CharString>
          <CharString index="11">
            rmoveto
            6 -14 14 -14 15 -4 163 130 rcurveline
            -10 24 -24 24 -27 8 rrcurveto
            endchar
          </CharString>
          <CharString index="12">
            519 542 rmoveto
            3 -11 -15 -9 callgsubr
            -12 -14 -32 callgsubr
            -354 vlineto
            -90 -50 -49 -93 -91 -51 49 90 vhcurveto
            309 vlineto
            33 -9 16 -33 vhcurveto
            -29 -15 callgsubr
            -353 vlineto
            -132 89 -68 129 131 88 68 132 vhcurveto
            return
          </CharString>
          <CharString index="13">
            rmoveto
            -25 7 -35 -3 -23 -14 rrcurveto
            8 -15 5 -19 -18 vvcurveto
            -38 -18 -29 -38 -27 vhcurveto
            3 -15 10 -14 13 -5 rrcurveto
            66 30 42 53 61 vvcurveto
            16 -4 21 65 callgsubr
            endchar
          </CharString>
          <CharString index="14">
            rmoveto
            -13 -4 -17 -13 -6 -17 111 -104 rcurveline
            19 -3 32 1 19 2 112 108 rcurveline
            -4 16 -17 15 -14 5 -112 -81 rcurveline
            endchar
          </CharString>
          <CharString index="15">
            81 callsubr
            -17 63 callsubr
            -6 10 19 -5 2 callsubr
            5 6 8 19 callsubr
            17 -42 callsubr
            17 -4 8 -55 callsubr
            -8 -3 -17 -12 vvcurveto
            return
          </CharString>
          <CharString index="16">
            -52 callsubr
            -34 -24 -41 -18 hvcurveto
            -9 -20 5 -14 17 29 callsubr
            13 16 rlineto
            14 11 15 12 15 -38 callgsubr
          </CharString>
          <CharString index="17">
            69 hintmask 11001000
            -97 callgsubr
            hintmask 00110000
            return
          </CharString>
          <CharString index="18">
            -37 callgsubr
            35 21 44 20 hvcurveto
            9 20 -6 13 -16 10 -16 1 rlinecurve
            -13 -15 rlineto
            -16 -12 -14 -10 -15 35 callgsubr
            4 5 -10 hvcurveto
            return
          </CharString>
          <CharString index="19">
            9 26 17 52 11 39 rrcurveto
            4 hlineto
            13 -41 23 -66 14 -39 47 -130 rcurveline
            -12 -29 1 -6 hhcurveto
            -96 hlineto
            -6 -35 -1 -13 hhcurveto
            return
          </CharString>
          <CharString index="20">
            72 hintmask 11010100
            -95 callgsubr
            return
          </CharString>
          <CharString index="21">
            rmoveto
            2 -14 9 -19 13 -9 205 86 rcurveline
            -5 27 -15 29 -18 11 rrcurveto
            endchar
          </CharString>
          <CharString index="22">
            22 0 16 hhcurveto
            207 -64 callgsubr
            -207 hlineto
            -16 -22 -1 return
          </CharString>
          <CharString index="23">
            37 38 rmoveto
            -26 41 58 -24 71 hhcurveto
            107 77 52 89 73 -50 43 -74 29 hvcurveto
            -59 23 rlineto
            -50 19 -25 20 34 vvcurveto
            44 37 29 52 51 48 -17 -14 32 vhcurveto
            14 14 9 24 20 vvcurveto
            18 -40 -62 15 -50 hhcurveto
            -91 -76 -52 -86 -73 59 -40 69 -26 hvcurveto
            56 -22 rlineto
            47 -17 26 -30 -33 vvcurveto
            -46 -1 -42 -32 -63 hhcurveto
            -51 -50 23 23 -41 hvcurveto
            -15 -12 -13 -24 -1 -18 rrcurveto
            return
          </CharString>
          <CharString index="24">
            19 callgsubr
            -40 vhcurveto
            -8 hlineto
            -14 -25 -2 -3 -22 hvcurveto
            -2 -10 -2 -8 -9 vvcurveto
            -10 2 -8 4 callgsubr
            18 hlineto
            31 10 -11 -37 hvcurveto
            -434 vlineto
            -66 -13 -29 -55 -29 vhcurveto
            4 -21 9 -16 10 -10 rrcurveto
            123 38 -4 71 123 vvcurveto
            return
          </CharString>
          <CharString index="25">
            103 hmoveto
            -2 9 15 -1 13 -66 callsubr
            683 vlineto
            2 -11 71 callgsubr
            -15 -1 -2 -9 hvcurveto
            return
          </CharString>
          <CharString index="26">
            -89 callsubr
            hintmask 00101000
            -91 callsubr
          </CharString>
          <CharString index="27">
            2 -3 rlineto
            -3 12 10 -2 15 hhcurveto
            12 58 callgsubr
            9 hvcurveto
            58 179 rlineto
            16 47 -1 7 hhcurveto
            return
          </CharString>
          <CharString index="28">
            290 421 rmoveto
            -7 -19 -24 -62 -10 -34 rrcurveto
            -5 hlineto
            -11 34 -16 49 -14 32 -96 232 rcurveline
            25 -9 -12 12 -21 hhcurveto
            -13 -16 -3 -13 -21 hvcurveto
            188 -449 rlineto
            -225 vlineto
            62 callgsubr
            -1 14 -66 callsubr
            222 vlineto
            188 454 -3 6 rlineto
            3 -11 -12 2 -14 hhcurveto
            -11 -12 -1 callgsubr
            return
          </CharString>
          <CharString index="29">
            -57 callsubr
            68 68 24 32 46 vhcurveto
            -71 callsubr
            return
          </CharString>
          <CharString index="30">
            476 467 rmoveto
            -4 14 7 22 callsubr
            35 8 23 22 92 -88 96 -145 -141 -122 -110 -247 -180 70 -170 181 98 85 42 54 53 hvcurveto
            -58 callgsubr
            return
          </CharString>
          <CharString index="31">
            99 32 123 133 134 31 -123 -99 -99 -31 -123 -134 -133 -32 123 99 vhcurveto
            return
          </CharString>
          <CharString index="32">
            55 callsubr
            hintmask 11010100
            -95 callsubr
            hintmask 00101000
            return
          </CharString>
          <CharString index="33">
            561 21 rmoveto
            -15 12 -13 17 -13 32 -61 156 rcurveline
            -32 77 -29 41 -67 10 12 10 10 13 9 14 168 272 rcurveline
            -6 8 rlineto
            1 -15 -12 -9 callgsubr
            -30 -9 -13 -24 -15 hvcurveto
            -147 -238 rlineto
            -16 -10 -7 -8 -17 hhcurveto
            -73 -2 rlineto
            299 vlineto
            2 -10 -48 callsubr
            -683 32 callgsubr
            316 vlineto
            2 42 27 0 12 hhcurveto
            66 35 -28 -82 32 hvcurveto
            64 -163 rlineto
            -33 12 10 -17 33 hhcurveto
            17 25 9 17 11 hvcurveto
            return
          </CharString>
          <CharString index="34">
            hintmask 10010000
            -82 callsubr
            return
          </CharString>
          <CharString index="35">
            -61 callsubr
            402 vlineto
            33 -6 17 -34 51 callsubr
            -729 -61 callgsubr
            return
          </CharString>
          <CharString index="36">
            -46 callgsubr
            122 223 rmoveto
            85 33 -70 -83 hvcurveto
            -13 -240 vlineto
            99 5 42 67 75 hhcurveto
            return
          </CharString>
          <CharString index="37">
            rmoveto
            -27 -8 -24 -24 -10 -24 163 -130 rcurveline
            15 4 14 14 6 14 rrcurveto
            endchar
          </CharString>
          <CharString index="38">
            -7 8 26 -4 16 hhcurveto
            18 26 6 5 9 68 callsubr
            16 vvcurveto
            15 -4 19 -4 8 vhcurveto
            -8 6 -21 3 -12 1 1 35 27 31 34 19 1 15 -10 17 -14 7 rrcurveto
            -73 -31 -38 -59 -72 vvcurveto
            -22 4 -24 6 -13 vhcurveto
            return
          </CharString>
          <CharString index="39">
            6 -8 -26 5 -16 hhcurveto
            -18 -26 -7 -4 -9 hvcurveto
            -5 -7 -3 -23 -15 69 callgsubr
            -8 vhcurveto
            8 -6 21 -3 12 -1 -1 -35 -27 -32 -34 -18 -1 -15 10 -18 14 -6 rrcurveto
            73 31 38 59 72 vvcurveto
            21 -4 25 -6 13 vhcurveto
            return
          </CharString>
          <CharString index="40">
            rmoveto
            9 9 2 9 7 vvcurveto
            10 -5 15 -6 10 vhcurveto
            -236 hlineto
            -3 -8 -1 -12 -8 vvcurveto
            -7 1 -11 4 callgsubr
            89 hlineto
            26 36 2 3 16 hvcurveto
            2 -3 -12 -8 -15 -14 -8 -9 rlinecurve
            -86 -91 3 -17 10 -14 12 -5 rlinecurve
            7 14 18 5 17 hhcurveto
            49 27 -34 -47 -55 -41 -26 -51 -36 -33 14 19 -30 hvcurveto
            -11 -10 -11 -18 -3 -20 rrcurveto
            -23 29 47 -18 56 hhcurveto
            72 80 42 95 79 -53 48 -65 hvcurveto
            -6 hlineto
            10 7 11 9 8 9 rrcurveto
            return
          </CharString>
          <CharString index="41">
            hhcurveto
            14 -53 callsubr
            return
          </CharString>
          <CharString index="42">
            54 77 rmoveto
            -10 -13 -3 -10 -8 vvcurveto
            -12 3 -8 9 -26 vhcurveto
            297 hlineto
            42 12 14 24 11 -2 13 -4 11 hvcurveto
            -9 -24 -38 -3 -54 hhcurveto
            -55 hlineto
            -24 -41 -1 -2 -35 hvcurveto
            -3 3 24 30 32 40 23 31 rlinecurve
            185 252 rlineto
            8 11 4 10 8 vvcurveto
            11 -3 12 -10 24 vhcurveto
            -326 hlineto
            -3 -12 -1 -15 -7 vvcurveto
            -6 0 -11 49 callsubr
            120 hlineto
            44 70 2 3 24 hvcurveto
            3 -3 -26 -32 -30 -35 -22 -30 rlinecurve
            return
          </CharString>
          <CharString index="43">
            vlineto
            -2 10 13 -63 callsubr
            return
          </CharString>
          <CharString index="44">
            -1 15 hhcurveto
            13 13 -47 callgsubr
            return
          </CharString>
          <CharString index="45">
            32 22 24 29 29 22 -24 -32 -33 -22 -24 -29 -29 -22 24 33 vhcurveto
            endchar
          </CharString>
          <CharString index="46">
            381 179 rmoveto
            -25 55 -27 28 -47 9 9 7 7 9 8 12 127 185 rcurveline
            -6 8 rlineto
            1 -14 -9 -9 callgsubr
            -30 -11 -14 -23 -15 hvcurveto
            -107 -158 rlineto
            -9 -6 -7 -5 -10 hhcurveto
            -43 -2 rlineto
            return
          </CharString>
          <CharString index="47">
            352 71 callsubr
            -15 hhcurveto
            -13 -13 -32 callgsubr
            -355 vlineto
            -45 -39 -64 -32 -50 hhcurveto
            -58 -16 33 80 hvcurveto
            277 vlineto
            33 -10 16 -28 -18 -19 -7 -9 -10 vhcurveto
            9 -23 3 -30 -32 vvcurveto
            return
          </CharString>
          <CharString index="48">
            51 239 rmoveto
            -149 58 -102 110 64 52 32 40 34 vhcurveto
            9 -31 18 -24 34 -12 15 7 13 18 5 13 rrcurveto
            -24 24 -4 41 42 vvcurveto
            547 64 callgsubr
            17 -33 51 callsubr
            -271 vlineto
            24 -38 -42 17 -45 hhcurveto
            -88 -99 -77 -183 hvcurveto
            182 -187 rmoveto
            -56 -51 54 133 139 59 57 60 44 40 -22 -23 34 hvcurveto
            -261 vlineto
            -49 -34 -51 -28 -45 hhcurveto
            return
          </CharString>
          <CharString index="49">
            -1 -15 hvcurveto
            7 1 62 callsubr
            145 vlineto
            -1 19 10 callgsubr
            return
          </CharString>
          <CharString index="50">
            440 223 rmoveto
            4 -22 callsubr
            -128 -72 -109 -148 -137 48 -121 149 return
          </CharString>
          <CharString index="51">
            515 546 rmoveto
            -29 hlineto
            -32 -8 -14 -34 hvcurveto
            -230 vlineto
            -40 5 -90 4 -47 vhcurveto
            -5 -1 -19 34 -21 40 -21 35 rlinecurve
            return
          </CharString>
          <CharString index="52">
            vhcurveto
            6 -9 -28 callsubr
            -6 -10 hvcurveto
            -4 return
          </CharString>
          <CharString index="53">
            579 341 rmoveto
            116 -16 104 -18 callsubr
            -671 vlineto
            -17 callgsubr
            103 117 vvcurveto
            -81 hmoveto
            -128 -24 -153 -167 vhcurveto
            -47 -33 1 -52 hhcurveto
            562 vlineto
            52 33 -1 47 hhcurveto
            167 24 -152 -129 hvcurveto
            return
          </CharString>
          <CharString index="54">
            14 -65 callgsubr
            return
          </CharString>
          <CharString index="55">
            -61 29 rlineto
            7 -14 -19 7 -21 hhcurveto
            -38 return
          </CharString>
          <CharString index="56">
            -13 -2 -11 -12 vvcurveto
            -11 2 -13 return
          </CharString>
          <CharString index="57">
            523 270 rmoveto
            93 -14 83 -79 59 vhcurveto
            29 -38 -8 callsubr
            -532 vlineto
            -8 callgsubr
            38 hvcurveto
            80 59 13 81 93 vvcurveto
            -80 hmoveto
            -98 -23 -114 -147 vhcurveto
            -41 -30 -1 -35 hhcurveto
            427 vlineto
            35 30 -1 41 hhcurveto
            147 23 -113 -100 hvcurveto
            return
          </CharString>
          <CharString index="58">
            12 1 15 8 vvcurveto
            9 0 10 -2 12 vhcurveto
            return
          </CharString>
          <CharString index="59">
            -14 1 -15 hhcurveto
            -13 -18 callgsubr
            return
          </CharString>
          <CharString index="60">
            vhcurveto
            -5 -6 rlineto
            -537 vlineto
            -2 10 15 -1 12 -66 callsubr
            return
          </CharString>
          <CharString index="61">
            177 hmoveto
            -2 10 16 43 callsubr
            13 -53 callsubr
            421 vlineto
            21 -1 16 22 vvcurveto
            11 28 -1 11 hhcurveto
            71 hlineto
            34 9 12 22 8 -2 13 -3 8 hvcurveto
            -396 hlineto
            58 callsubr
            -12 -9 78 callsubr
            -11 2 -11 vhcurveto
            112 hlineto
            12 27 1 12 hhcurveto
            -22 -1 -16 -21 vvcurveto
            return
          </CharString>
          <CharString index="62">
            rlineto
            2 -9 -21 1 -12 hhcurveto
            -13 -20 -1 -2 -11 hvcurveto
            return
          </CharString>
          <CharString index="63">
            -20 12 -26 14 -12 vhcurveto
            23 52 56 18 55 hhcurveto
            55 35 -27 return
          </CharString>
          <CharString index="64">
            rmoveto
            8 -17 18 -17 18 -7 189 182 rcurveline
            6 14 0 25 -6 13 -195 186 rcurveline
            -18 -7 -18 -17 -8 -17 154 -172 rcurveline
            return
          </CharString>
          <CharString index="65">
            12 -19 callsubr
            return
          </CharString>
          <CharString index="66">
            67 rmoveto
            -274 hlineto
            -25 -20 -1 -1 -17 hvcurveto
            return
          </CharString>
          <CharString index="67">
            83 147 rmoveto
            -85 33 -71 95 65 67 31 45 45 vhcurveto
            8 -33 18 -28 37 -13 15 7 14 17 5 14 rrcurveto
            -25 24 -3 41 42 vvcurveto
            return
          </CharString>
          <CharString index="68">
            -79 251 rlineto
            27 -8 -14 8 -17 hhcurveto
            -12 -13 -5 -8 -19 hvcurveto
            140 -440 12 -37 16 -10 34 -2 rlinecurve
            -3 -10 rlineto
            -90 -27 -29 -58 -76 hhcurveto
            -23 -29 6 5 -14 hvcurveto
            -9 -12 -9 -24 2 -18 rrcurveto
            -6 17 37 -7 27 hhcurveto
            120 43 74 161 47 hvcurveto
            return
          </CharString>
          <CharString index="69">
            -3 11 8 -2 13 hhcurveto
            34 7 23 23 74 -65 92 -143 -128 -112 -86 -199 return
          </CharString>
          <CharString index="70">
            64 callgsubr
            17 -34 vhcurveto
            return
          </CharString>
          <CharString index="71">
            39 63 rmoveto
            -45 62 86 -30 84 hhcurveto
            160 75 81 112 92 -70 55 -79 34 hvcurveto
            -113 49 rlineto
            -53 23 -44 28 55 vvcurveto
            return
          </CharString>
          <CharString index="72">
            203 hmoveto
            -2 11 15 22 callsubr
            12 15 -65 callgsubr
            618 vlineto
            13 30 43 callsubr
            85 hlineto
            32 15 10 24 11 -2 12 -4 9 hvcurveto
            -440 hlineto
            -2 -12 -1 -11 -10 78 callsubr
            -12 2 -11 vhcurveto
            128 hlineto
            13 28 1 13 hhcurveto
            return
          </CharString>
          <CharString index="73">
            118 hlineto
            6 42 1 12 hhcurveto
            38 -104 return
          </CharString>
          <CharString index="74">
            -24 callgsubr
            hstem
            175 78 vstem
            245 -58 -94 callsubr
          </CharString>
          <CharString index="75">
            81 callsubr
            -16 4 -9 vhcurveto
            -6 10 19 -4 2 callsubr
            4 80 callgsubr
            4 9 3 16 12 vvcurveto
            13 -3 16 -4 9 -55 callsubr
            -9 -3 -16 -13 vvcurveto
            endchar
          </CharString>
          <CharString index="76">
            52 -53 vhcurveto
            -35 35 46 -18 56 hhcurveto
            57 46 18 35 35 hvcurveto
            52 53 18 return
          </CharString>
          <CharString index="77">
            11 20 callgsubr
            8 0 13 return
          </CharString>
          <CharString index="78">
            -174 231 69 hstemhm
            53 230 39 callgsubr
            283 231 rmoveto
            2 65 callsubr
            42 callsubr
            -230 -13 callgsubr
            -9 vhcurveto
            endchar
          </CharString>
          <CharString index="79">
            -22 4 -14 hhcurveto
            -16 -19 -4 return
          </CharString>
          <CharString index="80">
            262 68 rmoveto
            -26 -31 -1 -2 -30 hvcurveto
            571 -37 callsubr
            -30 -39 callgsubr
            -629 vlineto
            -34 20 -17 24 vhcurveto
            280 50 callsubr
            15 7 vvcurveto
            return
          </CharString>
          <CharString index="81">
            vlineto
            -2 10 12 -63 callsubr
            return
          </CharString>
          <CharString index="82">
            18 -4 8 131 64 275 68 return
          </CharString>
          <CharString index="83">
            -6 -6 rlineto
            return
          </CharString>
          <CharString index="84">
            436 486 rmoveto
            -2 3 rlineto
            4 -10 -13 2 -14 hhcurveto
            -11 -13 -32 callgsubr
            -122 -442 rlineto
            -5 -3 1 6 -2 hvcurveto
            -12 41 -17 62 -17 53 rrcurveto
            return
          </CharString>
          <CharString index="85">
            24 1 17 25 vvcurveto
            118 -65 96 -128 return
          </CharString>
          <CharString index="86">
            hlineto
            26 18 11 24 63 callgsubr
            return
          </CharString>
          <CharString index="87">
            rmoveto
            11 -6 20 -3 15 6 44 194 rcurveline
            -21 13 -34 2 -22 -3 rrcurveto
            endchar
          </CharString>
          <CharString index="88">
            vvcurveto
            12 -3 return
          </CharString>
          <CharString index="89">
            -87 74 vhcurveto
            36 -42 -75 15 -51 hhcurveto
            -79 -37 0 -3 -87 hvcurveto
            -24 callsubr
            return
          </CharString>
          <CharString index="90">
            -2 -13 -14 18 callsubr
            49 callsubr
            return
          </CharString>
          <CharString index="91">
            hvcurveto
            2 10 0 13 return
          </CharString>
          <CharString index="92">
            -68 -54 -29 -96 -87 vvcurveto
            return
          </CharString>
          <CharString index="93">
            -72 rmoveto
            2 -6 6 -7 7 -3 rrcurveto
            3 7 10 2 8 hhcurveto
            33 15 -19 -24 -23 -14 -21 -35 -18 -21 6 8 -13 hvcurveto
            return
          </CharString>
          <CharString index="94">
            463 343 rmoveto
            85 -34 71 -95 -63 -65 -29 -42 -44 vhcurveto
            return
          </CharString>
          <CharString index="95">
            144 -12 64 579 64 return
          </CharString>
          <CharString index="96">
            hhcurveto
            -56 -46 -18 -36 -35 hvcurveto
            -52 return
          </CharString>
          <CharString index="97">
            11 0 14 7 vvcurveto
            return
          </CharString>
          <CharString index="98">
            17 callsubr
            18 -4 18 hhcurveto
            16 21 4 6 10 hvcurveto
            4 7 74 callsubr
            return
          </CharString>
          <CharString index="99">
            -71 12 -47 hhcurveto
            -72 -30 -1 -2 -76 hvcurveto
            -5 -6 rlineto
            return
          </CharString>
          <CharString index="100">
            64 callgsubr
            19 -34 vhcurveto
            -28 hlineto
            -6 return
          </CharString>
          <CharString index="101">
            -50 -23 -35 -39 hvcurveto
            return
          </CharString>
          <CharString index="102">
            7 callsubr
            -9 vhcurveto
            return
          </CharString>
          <CharString index="103">
            12 callgsubr
            14 -47 callgsubr
            return
          </CharString>
          <CharString index="104">
            1 11 2 callgsubr
            11 return
          </CharString>
          <CharString index="105">
            71 -12 61 444 62 return
          </CharString>
          <CharString index="106">
            -14 3 callgsubr
            return
          </CharString>
          <CharString index="107">
            -2 10 vhcurveto
            return
          </CharString>
          <CharString index="108">
            102 0 90 357 95 4 -20 return
          </CharString>
          <CharString index="109">
            16 hhcurveto
            14 23 return
          </CharString>
          <CharString index="110">
            170 hstemhm
            return
          </CharString>
          <CharString index="111">
            246 vlineto
            28 -1 19 27 vvcurveto
            8 46 -1 7 hhcurveto
            198 hlineto
            7 46 1 return
          </CharString>
          <CharString index="112">
            1 14 hhcurveto
            return
          </CharString>
          <CharString index="113">
            vvcurveto
            -59 17 callgsubr
            18 -9 14 -10 8 vhcurveto
            -9 return
          </CharString>
          <CharString index="114">
            -2 -11 -1 -9 -1 callsubr
            -9 2 return
          </CharString>
          <CharString index="115">
            13 43 callsubr
            13 12 -65 callgsubr
            return
          </CharString>
          <CharString index="116">
            hlineto
            10 callsubr
            return
          </CharString>
          <CharString index="117">
            2 10 1 return
          </CharString>
          <CharString index="118">
            162 0 89 502 92 return
          </CharString>
          <CharString index="119">
            hlineto
            27 18 11 24 4 hvcurveto
            return
          </CharString>
          <CharString index="120">
            -219 49 -28 -21 136 return
          </CharString>
          <CharString index="121">
            vlineto
            -33 10 -16 28 return
          </CharString>
          <CharString index="122">
            -72 rmoveto
            2 -6 7 -7 7 -3 rrcurveto
            3 7 9 2 8 hhcurveto
            34 return
          </CharString>
          <CharString index="123">
            -19 callgsubr
            46 21 callgsubr
            26 544 return
          </CharString>
          <CharString index="124">
            vvcurveto
            -11 3 -22 4 -7 vhcurveto
            -6 11 return
          </CharString>
          <CharString index="125">
            vvcurveto
            -9 1 -9 return
          </CharString>
          <CharString index="126">
            hvcurveto
            4 8 3 return
          </CharString>
          <CharString index="127">
            146 hstemhm
            return
          </CharString>
          <CharString index="128">
            54 -20 callgsubr
            46 21 callgsubr
            99 74 return
          </CharString>
          <CharString index="129">
            -1 13 hhcurveto
            return
          </CharString>
          <CharString index="130">
            -22 18 33 41 40 48 60 25 hvcurveto
            1 0 1 1 hhcurveto
            return
          </CharString>
          <CharString index="131">
            37 -9 67 432 -20 27 -20 return
          </CharString>
          <CharString index="132">
            74 callsubr
            11 -3 22 -4 return
          </CharString>
          <CharString index="133">
            -12 -8 -15 -1 -17 rrcurveto
            return
          </CharString>
          <CharString index="134">
            422 19 callgsubr
            return
          </CharString>
          <CharString index="135">
            44 0 69 546 68 return
          </CharString>
          <CharString index="136">
            -9 16 -1 rlinecurve
            return
          </CharString>
          <CharString index="137">
            76 callsubr
            -18 return
          </CharString>
          <CharString index="138">
            9 callsubr
            5 2 callgsubr
            4 42 callsubr
            return
          </CharString>
          <CharString index="139">
            43 4 41 24 23 vhcurveto
            -5 14 -13 17 -15 8 rrcurveto
            return
          </CharString>
          <CharString index="140">
            hlineto
            76 callgsubr
            -4 -15 3 callgsubr
            -4 3 -10 vhcurveto
            return
          </CharString>
          <CharString index="141">
            -167 hlineto
            -6 -40 -1 -7 hhcurveto
            21 1 15 23 vvcurveto
            return
          </CharString>
          <CharString index="142">
            -1 9 hhcurveto
            return
          </CharString>
          <CharString index="143">
            -2 callgsubr
            66 0 callgsubr
            82 76 return
          </CharString>
          <CharString index="144">
            3 -11 -15 50 callgsubr
            -13 -14 -32 callgsubr
            return
          </CharString>
          <CharString index="145">
            25 224 63 198 61 return
          </CharString>
          <CharString index="146">
            80 hintmask 11010100
            return
          </CharString>
          <CharString index="147">
            13 vvcurveto
            15 -1 return
          </CharString>
          <CharString index="148">
            vlineto
            6 -6 rlineto
            return
          </CharString>
          <CharString index="149">
            -2 11 vhcurveto
            return
          </CharString>
          <CharString index="150">
            -1 12 hhcurveto
            return
          </CharString>
          <CharString index="151">
            42 callgsubr
            hstem
            89 59 102 59 vstem
            89 return
          </CharString>
          <CharString index="152">
            40 callgsubr
            678 153 78 callgsubr
            return
          </CharString>
          <CharString index="153">
            hlineto
            34 6 17 33 hvcurveto
            198 vlineto
            -25 38 return
          </CharString>
          <CharString index="154">
            hvcurveto
            -683 vlineto
            -2 return
          </CharString>
          <CharString index="155">
            24 -68 -58 -4 hvcurveto
            return
          </CharString>
          <CharString index="156">
            2 -9 vhcurveto
            return
          </CharString>
          <CharString index="157">
            12 callsubr
            3 11 0 return
          </CharString>
          <CharString index="158">
            vhcurveto
            -27 -39 callgsubr
            return
          </CharString>
          <CharString index="159">
            74 callgsubr
            -14 vvcurveto
            return
          </CharString>
          <CharString index="160">
            -75 -12 58 397 60 return
          </CharString>
          <CharString index="161">
            36 432 67 -5 -20 return
          </CharString>
          <CharString index="162">
            76 hintmask 00000000
            return
          </CharString>
          <CharString index="163">
            12 81 callgsubr
            return
          </CharString>
          <CharString index="164">
            hstem
            91 76 return
          </CharString>
          <CharString index="165">
            -2 -10 -1 return
          </CharString>
          <CharString index="166">
            -1 20 20 return
          </CharString>
          <CharString index="167">
            -193 -137 62 817 62 hstem
            return
          </CharString>
          <CharString index="168">
            -8 -18 -8 -25 -5 -18 rrcurveto
            endchar
          </CharString>
          <CharString index="169">
            16 13 vvcurveto
            return
          </CharString>
          <CharString index="170">
            4 -8 vhcurveto
            return
          </CharString>
          <CharString index="171">
            hstem
            99 76 return
          </CharString>
          <CharString index="172">
            9 -3 callsubr
            return
          </CharString>
          <CharString index="173">
            39 53 52 -39 31 -50 4 hvcurveto
            return
          </CharString>
          <CharString index="174">
            9 1 9 2 callgsubr
            9 return
          </CharString>
          <CharString index="175">
            hvcurveto
            5 7 3 22 return
          </CharString>
          <CharString index="176">
            -10 62 490 -20 return
          </CharString>
          <CharString index="177">
            41 callgsubr
            18 return
          </CharString>
          <CharString index="178">
            80 callsubr
            -13 1 return
          </CharString>
          <CharString index="179">
            -1 -3 -9 hvcurveto
            return
          </CharString>
          <CharString index="180">
            35 callsubr
            10 return
          </CharString>
          <CharString index="181">
            3 22 11 vvcurveto
            return
          </CharString>
          <CharString index="182">
            -17 hhcurveto
            -18 return
          </CharString>
          <CharString index="183">
            vhcurveto
            5 -8 return
          </CharString>
          <CharString index="184">
            18 491 return
          </CharString>
          <CharString index="185">
            vvcurveto
            -10 1 return
          </CharString>
          <CharString index="186">
            13 vhcurveto
            5 return
          </CharString>
          <CharString index="187">
            vlineto
            3 -10 return
          </CharString>
          <CharString index="188">
            rmoveto
            -12 3 return
          </CharString>
          <CharString index="189">
            -15 hhcurveto
            endchar
          </CharString>
        <CharString name=".notdef">
          -323 endchar
        </CharString>
        <CharString name=".null">
          -509 endchar
        </CharString>
        <CharString name="A">
          -19 callgsubr
          hstem
          26 544 vstem
          -105 callgsubr
          endchar
        </CharString>
        <CharString name="AE">
          362 0 67 110 67 69 66 238 66 hstem
          407 75 vstem
          252 177 rmoveto
          90 hlineto
          5 44 1 16 hhcurveto
          -128 vlineto
          -31 17 -19 27 vhcurveto
          314 12 callsubr
          2 -10 callsubr
          -274 hlineto
          -24 -19 -1 -1 -18 hvcurveto
          13 1 11 14 vvcurveto
          211 vlineto
          -1 21 -85 callsubr
          -21 -48 callgsubr
          22 1 16 hhcurveto
          255 hlineto
          5 -49 callsubr
          -387 hlineto
          -13 -20 -2 -6 -13 hvcurveto
          -346 -671 2 -3 rlineto
          -3 12 9 -2 16 hhcurveto
          12 17 -65 callgsubr
          91 179 rlineto
          16 39 -1 6 hhcurveto
          94 304 rmoveto
          16 34 23 46 16 39 rrcurveto
          5 hlineto
          1 1 rlineto
          -358 vlineto
          -16 -43 1 -5 hhcurveto
          -72 hlineto
          -5 -27 -1 82 callsubr
        </CharString>
        <CharString name="Aacute">
          16 callsubr
          -360 229 -103 callsubr
          hintmask 00010100
          31 528 -86 callsubr
        </CharString>
        <CharString name="Acircumflex">
          -19 callgsubr
          49 20 callsubr
          26 544 -419 293 -103 callsubr
          hintmask 00010100
          228 495 -85 callgsubr
        </CharString>
        <CharString name="Adieresis">
          -19 callgsubr
          62 81 hstemhm
          26 544 -413 56 callgsubr
          -103 callsubr
          hintmask 00010110
          218 583 -106 callgsubr
        </CharString>
        <CharString name="Agrave">
          16 callsubr
          -398 229 -103 callsubr
          hintmask 00010100
          31 639 -56 callgsubr
        </CharString>
        <CharString name="Aogonek">
          87 -217 54 159 8 173 67 356 83 hstem
          415 66 vstem
          26 4 rmoveto
          -80 callsubr
          -41 callgsubr
          4 -13 4 -9 5 -6 rlinecurve
          -44 -35 -33 -48 -50 6 callgsubr
          -16 -23 -9 -24 hhcurveto
          -31 -21 18 33 46 39 37 48 32 hvcurveto
          1 0 0 1 1 hvcurveto
          -1 1 -228 678 -45 callsubr
          2 -202 -90 callgsubr
          endchar
        </CharString>
        <CharString name="Aring">
          87 -4 8 173 67 589 49 hstem
          189 58 102 59 vstem
          -81 callgsubr
          -228 675 rlineto
          40 16 26 38 44 vvcurveto
          57 -46 48 -64 -63 -46 -48 -57 -44 25 -37 40 -17 vhcurveto
          -228 -675 -80 callsubr
          30 304 -90 callgsubr
          68 534 rmoveto
          -62 callsubr
        </CharString>
        <CharString name="Atilde">
          -19 callgsubr
          58 67 hstemhm
          26 544 -442 340 -103 callsubr
          hintmask 00000000
          136 512 -67 callgsubr
          hintmask 00010100
          -72 callgsubr
        </CharString>
        <CharString name="B">
          91 -3 64 266 64 231 64 77 callgsubr
          255 80 -48 81 hintmask 00000000
          hintmask 11110100
          105 683 rmoveto
          -24 callsubr
          -671 41 callsubr
          -1 70 53 -2 83 hhcurveto
          174 58 96 95 90 -61 67 -70 19 hvcurveto
          hintmask 11111000
          61 22 37 55 65 vvcurveto
          105 -58 75 -152 vhcurveto
          hintmask 11110100
          -64 -62 -2 -1 -69 hvcurveto
          203 -356 rmoveto
          122 32 -80 -53 -56 -22 -77 -123 hvcurveto
          -47 -48 -1 -47 hhcurveto
          267 vlineto
          296 vmoveto
          -1 37 56 0 33 hhcurveto
          hintmask 11111000
          110 19 -61 -54 -52 -23 -64 -109 hvcurveto
          -123 hlineto
          endchar
        </CharString>
        <CharString name="C">
          52 callgsubr
          hstem
          57 81 vstem
          -77 callsubr
          endchar
        </CharString>
        <CharString name="CR">
          -323 endchar
        </CharString>
        <CharString name="Cacute">
          52 callgsubr
          35 21 callgsubr
          57 81 92 229 hintmask 11010000
          -77 callsubr
          hintmask 00101000
          -246 305 -86 callsubr
        </CharString>
        <CharString name="Ccaron">
          52 callgsubr
          43 20 callsubr
          57 81 34 293 hintmask 11010000
          -77 callsubr
          hintmask 00101000
          -268 411 -93 callsubr
        </CharString>
        <CharString name="Ccedilla">
          91 13 callsubr
          43 29 66 576 64 hstemhm
          57 81 217 65 hintmask 00000000
          hintmask 10101110
          266 15 callsubr
          15 -19 -24 -23 -14 -21 -36 -18 -21 6 8 -12 hvcurveto
          hintmask 01101110
          -10 26 callsubr
          hintmask 10101110
          -11 16 29 -8 30 hhcurveto
          62 48 66 callsubr
          hintmask 10111110
          3 9 5 11 5 10 82 9 71 37 47 48 -58 callgsubr
          -4 14 7 22 callsubr
          35 8 23 22 92 -88 96 -145 -141 -122 -110 -247 -173 64 -164 166 -12 hvcurveto
          hintmask 10101110
          61 callsubr
        </CharString>
        <CharString name="D">
          129 -4 64 562 64 64 callsubr
          323 81 vstem
          -54 callsubr
          endchar
        </CharString>
        <CharString name="Dcaron">
          129 -4 64 562 64 51 146 77 callgsubr
          -19 293 49 81 hintmask 11010100
          -54 callsubr
          hintmask 00101000
          -306 536 -93 callsubr
        </CharString>
        <CharString name="E">
          54 -20 callgsubr
          hstem
          99 74 vstem
          -105 callsubr
          endchar
        </CharString>
        <CharString name="Eacute">
          21 callsubr
          38 229 -102 callgsubr
          hintmask 00010100
          -297 704 -86 callsubr
        </CharString>
        <CharString name="Ecaron">
          54 -20 callgsubr
          54 20 callsubr
          99 74 -20 293 -102 callgsubr
          hintmask 00010100
          -319 810 -93 callsubr
        </CharString>
        <CharString name="Ecircumflex">
          54 -20 callgsubr
          49 20 callsubr
          99 74 -21 293 -102 callgsubr
          hintmask 00010100
          -100 671 -85 callgsubr
        </CharString>
        <CharString name="Edieresis">
          54 -20 callgsubr
          62 81 hstemhm
          99 74 -15 56 callgsubr
          -102 callgsubr
          hintmask 00010110
          -110 759 -106 callgsubr
        </CharString>
        <CharString name="Egrave">
          21 callsubr
          0 229 -102 callgsubr
          hintmask 00010100
          -297 815 -56 callgsubr
        </CharString>
        <CharString name="Eogonek">
          59 -217 54 163 67 246 66 238 66 hstem
          99 74 140 65 vstem
          -106 callsubr
          248 hlineto
          -45 -31 -32 -47 -48 6 callsubr
          -17 -23 -9 -23 hhcurveto
          -31 23 callsubr
          14 5 9 11 3 16 rrcurveto
          2 -10 callsubr
          endchar
        </CharString>
        <CharString name="Eth">
          145 -4 64 253 66 243 64 hstem
          115 76 323 81 vstem
          595 342 rmoveto
          116 -16 103 -18 callsubr
          -298 -83 vlineto
          7 callsubr
          -10 vhcurveto
          83 -307 hlineto
          -17 callgsubr
          104 117 vvcurveto
          -234 -29 rmoveto
          10 callsubr
          9 40 callsubr
          8 42 callsubr
          -170 244 hlineto
          51 34 -1 47 hhcurveto
          167 24 -151 -129 -128 -24 -154 -167 hvcurveto
          -47 -34 1 -51 hhcurveto
          252 vlineto
          endchar
        </CharString>
        <CharString name="Euro">
          60 -12 67 167 57 86 57 171 67 hstem
          104 78 vstem
          499 533 rmoveto
          18 11 15 22 6 17 rrcurveto
          51 -62 -75 26 -67 hhcurveto
          -144 -62 -103 -135 -19 hvcurveto
          -76 34 callgsubr
          71 hlineto
          -1 -14 0 -13 -14 vvcurveto
          -15 0 -15 1 -15 vhcurveto
          -71 34 callgsubr
          77 hlineto
          -133 19 62 -101 143 hhcurveto
          67 74 24 52 63 hvcurveto
          -6 18 -15 21 -18 12 rrcurveto
          -38 -51 -59 -22 -46 hhcurveto
          -87 -50 56 111 -18 hvcurveto
          228 31 callsubr
          -234 hlineto
          -1 14 0 15 16 vvcurveto
          14 0 14 1 13 vhcurveto
          234 31 callsubr
          -229 hlineto
          113 17 51 58 88 hhcurveto
          46 59 -22 -38 51 hvcurveto
          endchar
        </CharString>
        <CharString name="Euro.smcp">
          -5 -12 64 132 55 67 54 130 65 -59 -20 hstemhm
          93 75 hintmask 00000000
          hintmask 11110100
          439 448 rmoveto
          hintmask 11101100
          17 10 15 20 4 18 rrcurveto
          hintmask 11110100
          40 -54 -63 19 -60 hhcurveto
          -127 -55 -85 -110 -18 hvcurveto
          -67 hlineto
          -3 -9 0 -9 -10 vvcurveto
          -10 0 -7 3 -9 vhcurveto
          62 hlineto
          -1 -12 0 -11 -12 vvcurveto
          -11 0 -11 1 -10 vhcurveto
          -62 hlineto
          -3 -10 0 -7 -10 vvcurveto
          -11 0 -8 3 -9 vhcurveto
          67 hlineto
          -110 17 56 -86 127 hhcurveto
          60 62 17 42 55 hvcurveto
          -4 17 -15 20 -17 11 rrcurveto
          -29 -45 -47 -14 -41 hhcurveto
          -73 -43 45 87 -15 hvcurveto
          192 hlineto
          2 9 1 8 11 vvcurveto
          11 -1 6 0 callsubr
          -199 32 hlineto
          12 0 12 1 11 vhcurveto
          198 hlineto
          2 9 1 7 10 vvcurveto
          12 -1 7 -2 9 vhcurveto
          -192 hlineto
          86 16 42 44 73 hhcurveto
          41 47 -14 -28 45 hvcurveto
          endchar
        </CharString>
        <CharString name="F">
          5 313 66 237 67 64 callsubr
          vstem
          175 hmoveto
          314 vlineto
          59 callsubr
          0 15 hhcurveto
          205 -64 callgsubr
          -205 hlineto
          -15 -20 -1 -20 hhcurveto
          100 vlineto
          47 -1 47 46 vvcurveto
          -2 30 36 0 43 hhcurveto
          159 hlineto
          32 15 11 24 11 -2 12 -3 9 hvcurveto
          -379 hlineto
          -6 -6 rlineto
          -677 32 callgsubr
          endchar
        </CharString>
        <CharString name="G">
          128 -12 67 220 69 282 69 hstem
          57 81 354 75 vstem
          355 344 rmoveto
          -3 -10 -3 -15 -8 vvcurveto
          -25 12 -11 23 vhcurveto
          109 hlineto
          -1 -17 0 -20 -24 vvcurveto
          -136 vlineto
          -12 -36 -49 -11 -64 hhcurveto
          -136 -69 96 185 218 95 72 103 74 65 -25 -40 50 hvcurveto
          16 11 19 22 6 26 rrcurveto
          47 -56 -88 28 -81 hhcurveto
          -140 -144 -98 -260 -172 65 -177 207 93 84 19 25 61 hvcurveto
          259 vlineto
          36 -16 17 -44 vhcurveto
          endchar
        </CharString>
        <CharString name="H">
          159 319 68 64 callsubr
          318 76 vstem
          493 hmoveto
          -2 10 14 61 callgsubr
          683 vlineto
          2 -11 71 callgsubr
          -15 -1 -2 -9 hvcurveto
          -223 vlineto
          -28 1 -19 -27 vvcurveto
          -8 -46 1 -7 hhcurveto
          33 callgsubr
          223 vlineto
          2 -10 -48 callsubr
          -683 32 callgsubr
          4 callsubr
          8 hhcurveto
          -27 -1 -19 -28 vvcurveto
          endchar
        </CharString>
        <CharString name="Hbar">
          169 319 68 110 65 hstem
          104 76 317 77 vstem
          180 hmoveto
          4 callsubr
          7 hhcurveto
          -27 -1 -19 -28 vvcurveto
          -246 vlineto
          -2 10 15 -1 13 -66 callsubr
          497 75 vlineto
          10 callsubr
          9 2 callgsubr
          9 0 callsubr
          -75 121 hlineto
          2 -35 callgsubr
          -14 -18 callgsubr
          -121 -317 121 vlineto
          2 -10 -15 -9 callgsubr
          -13 -18 callgsubr
          -121 -75 vlineto
          58 callsubr
          -9 -14 vvcurveto
          -14 68 callgsubr
          75 -497 hlineto
          62 callgsubr
          22 callsubr
          14 15 -47 callgsubr
          258 387 rmoveto
          33 callgsubr
          37 317 -37 vlineto
          -28 1 -19 -27 vvcurveto
          -7 -46 1 -7 hhcurveto
          endchar
        </CharString>
        <CharString name="I">
          14 callgsubr
          hstem
          103 76 vstem
          -82 callsubr
          endchar
        </CharString>
        <CharString name="IJ">
          209 -10 66 -59 689 hstemhm
          103 76 377 77 hintmask 01100000
          -82 callsubr
          hintmask 10010000
          220 -593 -63 callgsubr
          endchar
        </CharString>
        <CharString name="Iacute">
          14 callgsubr
          43 21 callgsubr
          53 229 -179 76 -73 callsubr
          hintmask 01100000
          -50 88 -86 callsubr
        </CharString>
        <CharString name="Icircumflex">
          14 callgsubr
          46 20 callsubr
          -6 293 -184 76 -73 callsubr
          hintmask 01100000
          147 55 -85 callgsubr
        </CharString>
        <CharString name="Idieresis">
          14 callgsubr
          59 81 hstemhm
          0 83 20 76 20 83 -73 callsubr
          hintmask 01101000
          137 143 -106 callgsubr
        </CharString>
        <CharString name="Igrave">
          14 callgsubr
          43 21 callgsubr
          15 229 -141 76 -73 callsubr
          hintmask 01100000
          -50 199 -56 callgsubr
        </CharString>
        <CharString name="Itilde">
          14 callgsubr
          55 67 hstemhm
          -29 340 -208 76 -73 callsubr
          hintmask 00000000
          55 72 -67 callgsubr
          hintmask 01100000
          -72 callgsubr
        </CharString>
        <CharString name="J">
          -73 -10 66 hstem
          274 77 vstem
          41 90 -63 callgsubr
          endchar
        </CharString>
        <CharString name="Jcircumflex">
          -73 -10 66 676 20 callsubr
          167 293 -186 77 hintmask 10010000
          41 90 -63 callgsubr
          hintmask 01100000
          382 648 -85 callgsubr
        </CharString>
        <CharString name="K">
          74 318 68 289 10 64 callsubr
          vstem
          -74 callsubr
          endchar
        </CharString>
        <CharString name="Kcommaaccent">
          74 -24 callgsubr
          373 68 289 10 77 callgsubr
          105 78 hintmask 00011100
          -74 callsubr
          hintmask 11100010
          -211 -79 -94 callsubr
        </CharString>
        <CharString name="L">
          -3 0 68 64 callsubr
          vstem
          -27 callsubr
          endchar
        </CharString>
        <CharString name="Ldot">
          -3 0 68 240 82 77 callgsubr
          162 94 hintmask 10100000
          -27 callsubr
          hintmask 01010000
          -138 281 -62 callgsubr
        </CharString>
        <CharString name="Lslash">
          1 0 68 hstem
          103 77 188 9 vstem
          180 636 rmoveto
          33 -7 17 -33 vhcurveto
          -31 -39 callgsubr
          -317 vlineto
          -75 -25 -4 -18 0 -24 6 -19 rlinecurve
          5 -3 68 23 rlineto
          -246 vlineto
          -34 20 -17 25 vhcurveto
          280 hlineto
          26 19 11 24 4 hvcurveto
          2 11 0 15 7 vvcurveto
          -213 hlineto
          -26 -30 -1 -2 -30 hvcurveto
          254 vlineto
          194 63 4 19 0 24 -5 19 rlinecurve
          -5 3 -188 -62 rlineto
          endchar
        </CharString>
        <CharString name="M">
          284 1 -20 126 79 416 81 hstem
          84 625 vstem
          84 1 rmoveto
          -3 10 15 -2 13 hhcurveto
          12 58 callgsubr
          12 hvcurveto
          28 414 3 46 2 86 3 57 rlinecurve
          5 hlineto
          159 -495 rlineto
          62 callgsubr
          -2 13 hhcurveto
          13 14 2 2 12 hvcurveto
          158 495 rlineto
          5 hlineto
          2 -57 3 -86 3 -46 29 -414 rcurveline
          -2 11 11 22 callsubr
          12 16 2 3 11 hvcurveto
          -53 682 rlineto
          3 -21 -21 0 -10 hhcurveto
          -11 -17 0 -3 -21 hvcurveto
          -115 -351 -12 -34 -26 -97 -3 -15 rlinecurve
          -5 hlineto
          -2 15 -27 97 -12 34 -115 351 rcurveline
          3 -17 -20 0 -12 hhcurveto
          -10 -23 0 -3 -19 hvcurveto
          endchar
        </CharString>
        <CharString name="N">
          11 callsubr
          hstem
          99 71 331 72 vstem
          -95 callgsubr
          endchar
        </CharString>
        <CharString name="Nacute">
          11 callsubr
          46 21 callgsubr
          99 71 80 229 22 -87 callsubr
          hintmask 00101000
          -323 90 -86 callsubr
        </CharString>
        <CharString name="Ncaron">
          11 callsubr
          54 20 callsubr
          99 71 22 293 16 -87 callsubr
          hintmask 00101000
          -345 196 -93 callsubr
        </CharString>
        <CharString name="Ntilde">
          11 callsubr
          58 67 hstemhm
          99 71 -2 340 -7 -87 callsubr
          hintmask 00000000
          -218 74 -67 callgsubr
          hintmask 00101000
          -72 callgsubr
        </CharString>
        <CharString name="O">
          -12 callsubr
          hstem
          57 81 376 82 vstem
          -103 callgsubr
          endchar
        </CharString>
        <CharString name="OE">
          376 -20 callgsubr
          hstem
          57 81 284 74 vstem
          831 -41 callsubr
          14 1 10 -101 callgsubr
          -365 hlineto
          4 -36 -43 8 -43 hhcurveto
          -75 -6 callsubr
          -76 -68 -30 -6 callgsubr
          -112 30 -116 76 -68 vhcurveto
          -35 39 50 -23 75 hhcurveto
          45 42 8 4 35 hvcurveto
          330 50 callsubr
          14 7 vvcurveto
          -505 -15 rmoveto
          -152 -36 160 130 130 36 159 153 31 34 -5 -6 30 hvcurveto
          -558 vlineto
          -6 -29 -35 -4 -32 hhcurveto
          endchar
        </CharString>
        <CharString name="Oacute">
          -12 callsubr
          34 21 callgsubr
          57 81 100 229 47 -94 callgsubr
          hintmask 00101000
          181 429 -86 callsubr
        </CharString>
        <CharString name="Ocircumflex">
          -12 callsubr
          37 20 callsubr
          57 81 41 293 42 -94 callgsubr
          hintmask 00101000
          378 396 -85 callgsubr
        </CharString>
        <CharString name="Odieresis">
          -12 callsubr
          50 81 hstemhm
          57 81 47 56 callgsubr
          47 82 hintmask 11010010
          -103 callgsubr
          hintmask 00101100
          368 484 -106 callgsubr
        </CharString>
        <CharString name="Ograve">
          -12 callsubr
          34 21 callgsubr
          57 81 62 229 85 -94 callgsubr
          hintmask 00101000
          181 540 -56 callgsubr
        </CharString>
        <CharString name="Oslash">
          144 -12 -20 20 64 579 64 -35 -20 hstemhm
          57 80 378 81 hintmask 00000000
          hintmask 10011100
          57 342 rmoveto
          -103 25 -106 63 -70 vhcurveto
          -42 -75 rlineto
          hintmask 01011100
          10 -14 25 -14 19 -2 36 65 rcurveline
          -22 34 43 -13 56 -51 callgsubr
          101 -25 107 -63 69 vhcurveto
          42 77 -10 13 -25 14 -19 2 rlinecurve
          -37 -65 rlineto
          hintmask 10101100
          22 -34 -42 13 -57 hhcurveto
          -74 -6 callsubr
          hintmask 10011100
          -76 -68 -30 -6 callgsubr
          80 hmoveto
          hintmask 10101100
          130 37 159 152 41 33 -12 -19 26 vhcurveto
          -243 -467 rlineto
          hintmask 10011100
          -35 58 -11 80 71 vvcurveto
          378 hmoveto
          hintmask 01011100
          -130 -36 -160 -153 -41 -33 12 19 -26 vhcurveto
          244 466 rlineto
          hintmask 10011100
          34 -57 11 -80 -70 vvcurveto
          endchar
        </CharString>
        <CharString name="Otilde">
          -12 callsubr
          51 67 hstemhm
          57 81 25 329 22 -94 callgsubr
          hintmask 00000000
          287 418 rmoveto
          -7 13 18 -7 21 hhcurveto
          34 34 21 43 19 hvcurveto
          9 20 -6 13 -15 9 -16 1 rlinecurve
          -12 -14 rlineto
          -16 -12 -14 -10 -14 hhcurveto
          -10 -13 4 5 -10 hvcurveto
          hintmask 00101000
          -59 28 rlineto
          7 -14 -18 7 -20 hhcurveto
          -37 -33 -23 -41 -17 hvcurveto
          -9 -19 5 -14 16 -9 27 callgsubr
          14 11 15 11 14 hhcurveto
          12 12 -4 -4 9 hvcurveto
          endchar
        </CharString>
        <CharString name="P">
          47 257 64 301 64 64 callsubr
          260 81 vstem
          516 472 rmoveto
          142 -92 72 -128 -64 -57 -34 callgsubr
          15 14 1 2 10 hvcurveto
          257 121 vlineto
          130 90 74 141 hvcurveto
          -341 151 rmoveto
          -1 37 53 0 33 hhcurveto
          110 27 -81 -69 -67 -27 -84 -110 -26 -56 0 -1 -41 hvcurveto
          endchar
        </CharString>
        <CharString name="Q">
          133 -118 57 49 67 576 64 hstem
          57 81 365 82 vstem
          462 -98 rmoveto
          -13 19 18 -7 24 hhcurveto
          25 28 15 42 3 hvcurveto
          -32 1 -26 10 -69 49 -22 15 rcurveline
          20 7 18 13 19 17 rrcurveto
          75 68 23 115 108 vvcurveto
          107 -25 122 -77 68 vhcurveto
          35 -39 -48 21 -75 hhcurveto
          -75 -49 -21 -35 -39 hvcurveto
          -76 -68 -25 -122 -107 vvcurveto
          -109 25 -121 76 -68 vhcurveto
          -35 40 54 -21 74 hhcurveto
          5 5 0 1 4 hvcurveto
          -202 353 rmoveto
          132 30 157 153 153 29 -157 -132 -132 -29 -155 -153 -153 -30 155 132 vhcurveto
          endchar
        </CharString>
        <CharString name="R">
          38 callgsubr
          64 callsubr
          269 80 vstem
          -99 callgsubr
          endchar
        </CharString>
        <CharString name="Racute">
          38 callgsubr
          43 153 77 callgsubr
          32 229 8 39 callsubr
          -99 callgsubr
          hintmask 00101000
          32 419 -86 callsubr
        </CharString>
        <CharString name="Rcaron">
          38 callgsubr
          51 146 77 callgsubr
          -26 293 2 39 callsubr
          -99 callgsubr
          hintmask 00101000
          10 525 -93 callsubr
        </CharString>
        <CharString name="Rcommaaccent">
          83 -24 callgsubr
          343 66 268 64 77 callgsubr
          105 78 86 80 hintmask 00011101
          -99 callgsubr
          hintmask 11100010
          175 -410 -94 callsubr
        </CharString>
        <CharString name="S">
          24 callgsubr
          hstemhm
          69 78 280 79 hintmask 00000000
          hintmask 10111000
          -36 callsubr
          hintmask 11011000
          8 callgsubr
          hintmask 10111000
          18 15 13 26 23 vvcurveto
          hintmask 11011000
          -49 callgsubr
          hintmask 10111000
          -17 -13 -16 -25 -2 -23 rrcurveto
          endchar
        </CharString>
        <CharString name="Sacute">
          24 callgsubr
          102 21 callgsubr
          69 78 53 229 -2 -69 callgsubr
          161 708 -86 callsubr
        </CharString>
        <CharString name="Scaron">
          24 callgsubr
          110 20 callsubr
          69 78 -5 293 -8 -69 callgsubr
          139 814 -93 callsubr
        </CharString>
        <CharString name="T">
          -26 617 66 hstem
          203 77 vstem
          -35 callsubr
          endchar
        </CharString>
        <CharString name="Tcaron">
          -26 617 66 54 20 callsubr
          95 293 -185 77 hintmask 10010000
          -35 callsubr
          hintmask 01100000
          -72 259 -93 callsubr
        </CharString>
        <CharString name="Thorn">
          51 150 65 299 65 64 callsubr
          258 82 vstem
          99 hmoveto
          -4 callsubr
          150 119 vlineto
          130 91 74 141 142 -93 72 -128 -40 -41 -1 -1 -38 hvcurveto
          106 vlineto
          2 -10 -48 callsubr
          197 -169 rmoveto
          110 27 -80 -69 -67 -27 -83 -110 hvcurveto
          -25 -55 -1 -41 hhcurveto
          301 vlineto
          -1 42 50 0 29 hhcurveto
          endchar
        </CharString>
        <CharString name="U">
          40 callgsubr
          57 callsubr
          332 77 vstem
          -96 callgsubr
          endchar
        </CharString>
        <CharString name="Uacute">
          45 callsubr
          78 229 25 -74 callgsubr
          -331 538 -86 callsubr
        </CharString>
        <CharString name="Ucircumflex">
          40 callgsubr
          681 146 78 callgsubr
          19 293 20 -74 callgsubr
          -134 505 -85 callgsubr
        </CharString>
        <CharString name="Udieresis">
          40 callgsubr
          694 81 78 callgsubr
          25 56 callgsubr
          25 77 hintmask 10100100
          -96 callgsubr
          hintmask 01011000
          -144 593 -106 callgsubr
        </CharString>
        <CharString name="Ugrave">
          45 callsubr
          40 229 63 -74 callgsubr
          -331 649 -56 callgsubr
        </CharString>
        <CharString name="Uring">
          40 callgsubr
          620 42 callgsubr
          78 callgsubr
          56 59 102 59 56 77 hintmask 10010010
          -96 callgsubr
          hintmask 01101100
          -353 544 -84 callgsubr
        </CharString>
        <CharString name="V">
          48 -4 78 602 10 hstem
          27 509 vstem
          290 74 rmoveto
          -4 -2 57 callgsubr
          -13 49 -20 74 -13 43 -119 403 rcurveline
          29 -8 -15 8 -19 hhcurveto
          -16 -17 -5 -7 -15 hvcurveto
          193 -641 rlineto
          -36 11 19 -4 24 hhcurveto
          21 17 1 2 20 hvcurveto
          204 677 -4 6 rlineto
          2 -8 -13 2 -14 hhcurveto
          -13 -11 -1 -2 -9 hvcurveto
          endchar
        </CharString>
        <CharString name="W">
          312 -4 67 525 80 9 9 hstemhm
          39 749 hintmask 00000000
          hintmask 10110000
          168 38 rmoveto
          -36 7 23 -6 24 hhcurveto
          18 30 1 3 20 hvcurveto
          70 333 rlineto
          hintmask 11110000
          13 60 19 97 18 98 rrcurveto
          6 hlineto
          17 -98 19 -99 11 -58 56 -296 rcurveline
          -35 6 18 -6 24 hhcurveto
          19 33 1 4 20 hvcurveto
          hintmask 10110000
          149 676 -4 5 rlineto
          3 -11 -14 1 -12 hhcurveto
          -12 -13 -14 callgsubr
          -88 -418 -9 -45 -19 -93 -11 -64 rlinecurve
          -5 -1 1 9 -2 hvcurveto
          hintmask 11110000
          -113 595 rlineto
          2 -11 -25 -9 callgsubr
          -13 -23 -1 -2 -15 hvcurveto
          -123 -605 rlineto
          -6 -1 0 10 -2 hvcurveto
          -34 192 -74 383 rlineto
          30 -6 -10 11 -24 hhcurveto
          -14 -13 -1 -8 -17 hvcurveto
          endchar
        </CharString>
        <CharString name="X">
          63 -6 695 hstem
          23 525 vstem
          452 683 rmoveto
          -158 -258 -143 232 rlineto
          24 -14 -17 8 -17 hhcurveto
          -16 -19 -5 -13 -17 hvcurveto
          191 -311 -219 -351 3 -6 rlineto
          -4 8 16 -3 16 hhcurveto
          11 17 2 2 6 hvcurveto
          181 297 167 -271 rlineto
          -24 15 17 -8 16 hhcurveto
          16 20 5 13 16 hvcurveto
          -215 350 193 312 -3 6 rlineto
          4 -7 -16 3 -16 hhcurveto
          -11 -15 -2 -2 -6 hvcurveto
          endchar
        </CharString>
        <CharString name="Y">
          -28 -3 693 hstem
          203 77 vstem
          -79 callsubr
          endchar
        </CharString>
        <CharString name="Yacute">
          -28 -3 693 39 21 callgsubr
          156 229 -182 77 hintmask 10010000
          -79 callsubr
          hintmask 01100000
          -238 88 -86 callsubr
        </CharString>
        <CharString name="Ydieresis">
          -28 -3 693 55 81 hstemhm
          103 83 17 77 22 83 hintmask 10010000
          -79 callsubr
          hintmask 01101000
          -51 143 -106 callgsubr
        </CharString>
        <CharString name="Z">
          28 callsubr
          hstem
          53 446 vstem
          -98 callsubr
          endchar
        </CharString>
        <CharString name="Zacute">
          28 callsubr
          46 21 callgsubr
          53 446 -306 229 -89 callgsubr
          -141 262 -86 callsubr
        </CharString>
        <CharString name="Zcaron">
          28 callsubr
          54 20 callsubr
          53 446 -364 293 -89 callgsubr
          -163 368 -93 callsubr
        </CharString>
        <CharString name="Zdotaccent">
          28 callsubr
          71 75 hstemhm
          53 446 -270 97 -89 callgsubr
          -105 282 -32 callsubr
        </CharString>
        <CharString name="a">
          -7 callgsubr
          hstem
          51 75 222 72 vstem
          -98 callgsubr
          endchar
        </CharString>
        <CharString name="a.smcp">
          -25 callsubr
          hstem
          77 callsubr
          vstem
          -107 callsubr
          endchar
        </CharString>
        <CharString name="aacute">
          -7 callgsubr
          35 0 callgsubr
          51 75 51 198 -27 72 hintmask 11101010
          -98 callgsubr
          hintmask 00010100
          -28 517 -96 callsubr
        </CharString>
        <CharString name="aacute.smcp">
          16 callgsubr
          -310 198 -102 callsubr
          hintmask 00010100
          38 422 -96 callsubr
        </CharString>
        <CharString name="acircumflex">
          -5 42 0 97 195 endchar
        </CharString>
        <CharString name="acircumflex.smcp">
          -25 callsubr
          48 170 73 callgsubr
          -382 272 -102 callsubr
          hintmask 00010100
          198 397 -91 callgsubr
        </CharString>
        <CharString name="acute">
          536 186 hstem
          134 198 vstem
          134 568 -96 callsubr
        </CharString>
        <CharString name="acute.cap">
          729 153 hstem
          111 229 vstem
          111 771 -86 callsubr
        </CharString>
        <CharString name="adieresis">
          -7 callgsubr
          71 68 hstemhm
          51 75 -20 59 callgsubr
          -21 72 hintmask 11101001
          -98 callgsubr
          hintmask 00010110
          78 555 -107 callgsubr
        </CharString>
        <CharString name="adieresis.smcp">
          -25 callsubr
          82 68 73 callgsubr
          -380 59 callgsubr
          -102 callsubr
          hintmask 00010110
          145 460 -107 callgsubr
        </CharString>
        <CharString name="ae">
          287 -12 65 170 57 -42 56 143 64 -55 57 hstemhm
          51 75 222 76 238 55 callsubr
          hintmask 11001111
          734 223 rmoveto
          3 24 1 17 25 vvcurveto
          118 -64 96 -129 -67 -47 -31 -44 -32 vhcurveto
          hintmask 10110111
          47 -23 -45 26 -67 hhcurveto
          -69 -76 -25 -22 -50 hvcurveto
          -44 callsubr
          -74 hvcurveto
          -52 vlineto
          6 -35 -37 4 -38 hhcurveto
          -111 -76 -49 -111 -73 47 -73 97 80 66 46 46 39 hvcurveto
          -63 33 56 -29 74 hhcurveto
          68 67 24 32 46 hvcurveto
          -2 16 -11 24 -14 12 rrcurveto
          -24 -43 -48 -19 -54 hhcurveto
          hintmask 11001111
          -93 -32 70 100 -3 hvcurveto
          -219 -172 rmoveto
          -51 -28 40 48 hvcurveto
          hintmask 10101111
          64 44 35 69 36 38 -3 -6 34 vhcurveto
          2 -34 4 -30 6 -26 rrcurveto
          hintmask 11001111
          -62 -43 -62 -26 -49 hhcurveto
          340 395 rmoveto
          85 32 -72 -83 hvcurveto
          -11 -238 vlineto
          101 5 42 65 74 hhcurveto
          endchar
        </CharString>
        <CharString name="ae.smcp">
          262 0 64 71 63 46 64 171 63 hstem
          361 74 vstem
          224 135 rmoveto
          81 hlineto
          6 35 1 15 hhcurveto
          -89 vlineto
          -29 16 -18 27 vhcurveto
          271 hlineto
          26 -31 callgsubr
          6 vvcurveto
          -235 hlineto
          -24 -16 0 -58 callsubr
          174 hlineto
          3 -30 callsubr
          -3 11 vhcurveto
          -174 hlineto
          -14 -20 -1 -19 hhcurveto
          122 vlineto
          20 -1 17 13 vvcurveto
          -1 20 10 callgsubr
          218 hlineto
          4 12 1 13 -29 callgsubr
          -342 hlineto
          -12 -21 -2 -5 -12 hvcurveto
          -308 -530 2 -4 rlineto
          -4 11 14 -1 11 hhcurveto
          12 14 -47 callgsubr
          78 137 rlineto
          10 41 -1 7 hhcurveto
          51 191 rmoveto
          23 41 36 71 22 41 rrcurveto
          5 -282 hlineto
          -15 -35 1 -6 hhcurveto
          -62 hlineto
          -5 -24 -1 -13 hhcurveto
          endchar
        </CharString>
        <CharString name="agrave">
          -5 46 0 97 193 endchar
        </CharString>
        <CharString name="agrave.smcp">
          16 callgsubr
          -371 198 -102 callsubr
          hintmask 00010100
          38 576 -70 callsubr
        </CharString>
        <CharString name="ampersand">
          95 -12 64 279 66 234 64 hstemhm
          56 81 -53 81 241 5 callgsubr
          hintmask 11110100
          302 397 rmoveto
          hintmask 11101100
          -96 -41 50 68 68 46 48 77 57 46 -12 -13 44 hvcurveto
          14 14 8 27 -1 21 rrcurveto
          15 -40 -65 12 -62 hhcurveto
          -132 -73 -81 -95 -71 46 -61 59 -21 hvcurveto
          hintmask 11110100
          -70 -22 -63 -73 -91 vvcurveto
          -112 65 -80 124 58 58 20 31 47 vhcurveto
          6 -39 rlineto
          -2 10 56 callsubr
          15 12 1 2 9 hvcurveto
          -1 33 -5 77 37 vvcurveto
          121 vlineto
          15 -1 25 23 vvcurveto
          36 hlineto
          36 29 7 35 12 -3 16 -7 9 hvcurveto
          -9 -20 -35 -4 -34 hhcurveto
          -75 -130 rmoveto
          -164 vlineto
          -27 -33 -56 -24 -59 hhcurveto
          -76 -45 50 79 66 40 84 116 hvcurveto
          114 hlineto
          -1 -23 0 -25 -16 vvcurveto
          endchar
        </CharString>
        <CharString name="ampersand.smcp">
          28 -12 61 207 65 171 63 hstemhm
          50 81 -56 81 204 5 callgsubr
          hintmask 11110100
          274 321 rmoveto
          hintmask 11101100
          -83 -35 35 52 49 38 35 68 49 41 -10 -11 40 hvcurveto
          13 15 8 25 -1 20 rrcurveto
          13 -38 -58 11 -56 hhcurveto
          -120 -65 -64 -79 -58 40 -48 54 -16 hvcurveto
          hintmask 11110100
          -64 -17 -55 -58 -73 vvcurveto
          -89 57 -65 112 55 49 15 25 40 vhcurveto
          5 -33 rlineto
          -2 10 12 22 callsubr
          15 13 1 3 9 hvcurveto
          -1 25 -5 60 29 vvcurveto
          91 vlineto
          15 0 21 -1 19 vhcurveto
          27 hlineto
          35 24 10 30 13 -4 13 -6 10 hvcurveto
          -8 -18 -30 -3 -25 hhcurveto
          -76 -118 rmoveto
          -115 vlineto
          -20 -28 -48 -19 -50 hhcurveto
          -66 -37 36 60 53 34 58 101 hvcurveto
          94 hlineto
          endchar
        </CharString>
        <CharString name="aogonek">
          25 -217 54 151 63 187 56 143 64 hstemhm
          51 75 152 66 4 72 hintmask 00000000
          hintmask 11111010
          459 -145 rmoveto
          hintmask 11111100
          -9 -17 -22 -9 -24 hhcurveto
          -31 -21 18 33 40 31 31 40 32 hvcurveto
          hintmask 11111010
          19 15 13 13 6 15 rrcurveto
          -25 23 -8 29 -86 callgsubr
          hvcurveto
          hintmask 11111100
          66 55 39 37 37 hvcurveto
          5 -17 7 -14 11 -12 rrcurveto
          -58 -40 -40 -50 -58 vvcurveto
          -58 17 callgsubr
          hintmask 11111010
          18 -9 14 -10 8 vhcurveto
          -254 196 -55 callgsubr
          endchar
        </CharString>
        <CharString name="aogonek.smcp">
          18 -217 54 159 8 131 64 275 68 hstem
          353 66 vstem
          18 4 rmoveto
          -80 callgsubr
          -34 callsubr
          4 -12 5 -8 4 -6 rlinecurve
          -45 -34 -34 -48 -51 6 callgsubr
          -15 -24 -9 -24 hhcurveto
          -30 -22 18 32 46 40 38 50 32 -71 callgsubr
          -185 vmoveto
          -88 callsubr
          endchar
        </CharString>
        <CharString name="aring">
          -7 callgsubr
          35 42 callgsubr
          hstemhm
          51 75 5 59 102 59 -3 72 hintmask 1110010010000000
          -98 callgsubr
          hintmask 0001101100000000
          -74 591 -84 callgsubr
        </CharString>
        <CharString name="aring.smcp">
          -25 callsubr
          46 42 callgsubr
          73 callgsubr
          -355 59 102 59 hintmask 11100100
          -107 callsubr
          hintmask 00011011
          -7 496 -84 callgsubr
        </CharString>
        <CharString name="asciicircum">
          21 585 63 -63 67 hstemhm
          53 424 hintmask 00000000
          hintmask 10100000
          305 648 rmoveto
          hintmask 01100000
          -20 5 -40 0 -20 -5 -172 -342 rcurveline
          14 -5 42 -1 20 6 rrcurveto
          hintmask 10100000
          101 207 32 72 rlineto
          6 hlineto
          10 -23 10 -24 12 -25 101 -207 rcurveline
          20 -6 42 1 14 5 rrcurveto
          endchar
        </CharString>
        <CharString name="asciitilde">
          51 221 71 -4 72 hstemhm
          44 472 hintmask 00000000
          hintmask 01100000
          261 340 rmoveto
          12 -26 -29 8 -27 hhcurveto
          -56 -42 -27 -53 -27 hvcurveto
          -10 -18 7 -16 20 -11 17 -1 rlinecurve
          16 19 rlineto
          22 17 20 13 26 hhcurveto
          18 19 -4 -8 18 hvcurveto
          hintmask 10100000
          77 -35 rlineto
          -12 26 29 -8 27 hhcurveto
          56 42 27 53 27 hvcurveto
          10 18 -7 16 -20 11 -17 1 rlinecurve
          -15 -19 rlineto
          -22 -17 -21 -14 -26 hhcurveto
          -18 -18 5 8 -19 hvcurveto
          endchar
        </CharString>
        <CharString name="asterisk">
          -14 523 214 hstemhm
          211 72 39 callgsubr
          49 562 rmoveto
          48 -17 37 -14 44 -5 36 -3 rlinecurve
          -26 -25 -33 -30 -23 -32 -29 -40 rcurveline
          11 -19 28 -19 18 -4 31 40 rcurveline
          24 31 18 39 14 34 15 -33 18 -40 25 -31 29 -40 rcurveline
          22 4 26 20 10 17 -28 41 rcurveline
          -23 32 -33 31 -27 24 35 4 44 5 38 13 48 16 rcurveline
          2 21 -11 33 -13 13 -48 -14 rcurveline
          -38 -11 -38 -22 -32 -19 7 36 10 42 -1 40 -1 51 rcurveline
          -18 8 -35 0 -18 -8 -1 -51 rcurveline
          -39 7 -43 8 -35 vhcurveto
          -32 17 -37 22 -37 12 -48 15 rcurveline
          -14 -16 -11 -33 2 -18 rrcurveto
          endchar
        </CharString>
        <CharString name="at">
          423 -180 59 130 62 -57 59 348 57 138 57 hstemhm
          57 75 149 75 216 72 167 74 hintmask 0000000000000000
          hintmask 1011111110000000
          645 413 rmoveto
          37 -41 -58 28 -67 hhcurveto
          -127 -71 -117 -135 hvcurveto
          hintmask 1101111110000000
          -134 62 -83 96 55 53 31 40 34 vhcurveto
          hintmask 1011111110000000
          -41 16 37 -25 56 hhcurveto
          100 95 99 174 231 -163 155 -240 -251 -174 -193 -252 -262 161 -146 220 80 78 14 27 74 hvcurveto
          20 -10 24 -12 10 vhcurveto
          -25 -60 -70 -11 -76 hhcurveto
          -183 -127 125 224 219 138 169 212 200 129 -132 -194 -160 -61 -57 -55 -35 -16 22 59 hvcurveto
          hintmask 1101111110000000
          -191 -83 rmoveto
          -68 -29 68 87 107 44 88 79 39 36 -18 -18 18 hvcurveto
          -236 vlineto
          -41 -26 -51 -37 -42 hhcurveto
          endchar
        </CharString>
        <CharString name="atilde">
          -5 42 0 97 196 endchar
        </CharString>
        <CharString name="atilde.smcp">
          -25 callsubr
          67 68 73 callgsubr
          -415 340 -102 callsubr
          hintmask 00000000
          120 425 -89 callsubr
          hintmask 00010100
          -91 callsubr
        </CharString>
        <CharString name="b">
          15 -7 57 384 65 hstem
          88 73 237 75 vstem
          473 251 rmoveto
          145 -58 103 -113 -60 -49 -30 -31 -32 vhcurveto
          247 vlineto
          33 -6 17 -34 51 callsubr
          -704 vlineto
          -21 57 58 -11 60 hhcurveto
          105 105 76 182 hvcurveto
          -182 183 rmoveto
          57 50 -53 -130 -137 -63 -64 -73 -40 -30 5 12 -31 hvcurveto
          297 vlineto
          40 31 50 30 49 hhcurveto
          endchar
        </CharString>
        <CharString name="b.smcp">
          30 -3 61 198 61 168 61 hstemhm
          91 75 216 77 -48 78 hintmask 00000000
          hintmask 11111000
          96 543 rmoveto
          -5 -6 rlineto
          -532 vlineto
          5 -5 rlineto
          -1 65 44 -2 74 hhcurveto
          hintmask 11110100
          154 56 71 84 69 -54 54 -62 15 hvcurveto
          hintmask 11111000
          53 17 33 45 51 vvcurveto
          88 -55 55 -136 -57 -53 -2 -1 -62 vhcurveto
          179 -287 rmoveto
          hintmask 11110100
          106 30 -59 -41 -42 -21 -56 -106 hvcurveto
          -41 -36 -1 -41 hhcurveto
          199 vlineto
          230 vmoveto
          -1 32 43 0 28 hhcurveto
          hintmask 11111000
          93 20 -42 -41 -40 -21 -45 -94 hvcurveto
          -101 hlineto
          endchar
        </CharString>
        <CharString name="backslash">
          -102 -106 864 hstem
          13 383 vstem
          330 -106 rmoveto
          21 1 27 10 18 14 -317 839 rcurveline
          -21 -1 -26 -9 -19 -15 rrcurveto
          endchar
        </CharString>
        <CharString name="bar">
          -262 -143 921 hstem
          88 71 vstem
          88 -140 rmoveto
          -2 10 8 callsubr
          915 vlineto
          2 -11 -12 50 callgsubr
          -12 -13 -14 callgsubr
          endchar
        </CharString>
        <CharString name="braceleft">
          -191 -162 971 hstemhm
          37 81 3 77 hintmask 00000000
          hintmask 10100000
          41 350 rmoveto
          hintmask 11000000
          -5 -12 0 -27 5 -12 rrcurveto
          hintmask 10100000
          44 -18 36 -42 -62 vvcurveto
          -177 vlineto
          -90 56 -52 76 -13 vhcurveto
          43 -7 10 12 7 24 -5 19 rlinecurve
          -43 13 rlineto
          -45 14 -22 32 49 vvcurveto
          174 vlineto
          60 -31 61 -49 24 vhcurveto
          8 vlineto
          49 24 31 61 61 vvcurveto
          172 vlineto
          49 22 33 45 13 vhcurveto
          43 14 5 18 -7 25 -10 11 rlinecurve
          -43 -7 rlineto
          -76 -13 -56 -51 -91 vvcurveto
          -175 vlineto
          -64 -36 -41 -44 -17 vhcurveto
          endchar
        </CharString>
        <CharString name="braceright">
          -191 -162 971 hstem
          120 76 vstem
          276 350 rmoveto
          -44 17 -36 41 64 vvcurveto
          175 vlineto
          91 -56 51 -76 13 vhcurveto
          -42 7 -11 -11 -6 -25 4 -18 rlinecurve
          44 -14 rlineto
          45 -13 22 -33 -49 vvcurveto
          -172 vlineto
          -61 31 -61 49 -24 vhcurveto
          -8 vlineto
          -49 -24 -31 -61 -60 vvcurveto
          -174 vlineto
          -49 -22 -32 -45 -14 vhcurveto
          -44 -13 -4 -19 6 -24 11 -12 rlinecurve
          42 7 rlineto
          76 13 56 52 90 vvcurveto
          177 vlineto
          62 36 42 44 18 vhcurveto
          6 12 0 27 -6 12 rrcurveto
          endchar
        </CharString>
        <CharString name="bracketleft">
          60 callsubr
          100 76 vstem
          283 -134 rmoveto
          2 8 0 8 7 vvcurveto
          11 -3 13 -3 10 vhcurveto
          -103 3 rlineto
          815 vlineto
          103 3 rlineto
          3 9 3 14 11 vvcurveto
          7 0 8 -2 8 vhcurveto
          -177 7 -24 callsubr
          -937 41 callsubr
          endchar
        </CharString>
        <CharString name="bracketright">
          60 callsubr
          139 77 vstem
          209 -141 rmoveto
          7 6 rlineto
          937 vlineto
          -7 6 -177 -7 rlineto
          -2 -8 0 -8 -7 vvcurveto
          -11 3 -14 3 -9 vhcurveto
          103 -3 rlineto
          -815 vlineto
          -103 -3 rlineto
          -3 -10 -3 -13 -11 vvcurveto
          -7 0 -8 2 -8 vhcurveto
          endchar
        </CharString>
        <CharString name="brokenbar">
          -268 -143 921 hstem
          86 70 vstem
          86 -140 rmoveto
          -12 callgsubr
          141 vmoveto
          -12 callgsubr
          endchar
        </CharString>
        <CharString name="bullet">
          -71 192 158 hstem
          118 189 vstem
          118 271 rmoveto
          -21 5 -42 8 -16 vhcurveto
          -9 17 41 -9 30 hhcurveto
          29 46 9 9 13 hvcurveto
          9 16 5 42 21 vvcurveto
          22 -5 43 -9 14 vhcurveto
          9 -15 -44 11 -29 hhcurveto
          -30 -41 -11 -9 -17 hvcurveto
          -8 -14 -5 -43 -22 vvcurveto
          endchar
        </CharString>
        <CharString name="c">
          -40 -12 64 391 60 hstem
          52 77 226 71 vstem
          -44 callgsubr
          endchar
        </CharString>
        <CharString name="c.smcp">
          54 callgsubr
          hstem
          45 80 vstem
          -75 callgsubr
          endchar
        </CharString>
        <CharString name="cacute">
          -40 52 0 99 82 callgsubr
        </CharString>
        <CharString name="cacute.smcp">
          54 callgsubr
          30 callgsubr
          45 80 95 198 hintmask 11010000
          -75 callgsubr
          hintmask 00101000
          -200 272 -96 callsubr
        </CharString>
        <CharString name="caron">
          548 170 hstem
          66 272 vstem
          106 713 -99 callsubr
        </CharString>
        <CharString name="caron.alt">
          -107 560 209 hstemhm
          206 90 39 callgsubr
          206 566 -20 callsubr
        </CharString>
        <CharString name="caron.cap">
          737 146 hstem
          53 293 vstem
          89 877 -93 callsubr
        </CharString>
        <CharString name="ccaron">
          -40 -12 64 391 60 45 3 callsubr
          52 77 -11 272 -35 71 hintmask 11010100
          -44 callgsubr
          hintmask 00101000
          -197 396 -99 callsubr
        </CharString>
        <CharString name="ccaron.smcp">
          54 callgsubr
          45 3 callsubr
          45 80 27 272 hintmask 11010000
          -75 callgsubr
          hintmask 00101000
          -228 417 -99 callsubr
        </CharString>
        <CharString name="ccedilla">
          -40 13 callsubr
          135 391 60 hstemhm
          52 77 158 65 3 71 hintmask 00000000
          hintmask 10111100
          199 15 callsubr
          14 -19 -24 -23 -13 -21 -36 -18 -21 6 8 -12 hvcurveto
          hintmask 01111100
          -10 26 callsubr
          hintmask 10111100
          -11 16 29 -8 30 hhcurveto
          62 47 39 53 52 -38 31 -50 4 hvcurveto
          3 9 5 12 5 9 56 7 48 26 39 37 -25 callgsubr
          hvcurveto
          hintmask 10111010
          84 48 callsubr
          -22 callgsubr
          -118 45 -119 123 -14 hvcurveto
          hintmask 10111100
          -8 -19 -8 -24 -5 -19 rrcurveto
          endchar
        </CharString>
        <CharString name="ccedilla.smcp">
          22 13 callsubr
          43 29 65 438 63 hstemhm
          45 80 195 65 hintmask 00000000
          hintmask 10111110
          232 -14 callsubr
          hintmask 01011100
          -9 26 callsubr
          hintmask 10111110
          -11 16 28 -8 30 hhcurveto
          63 47 66 callsubr
          hintmask 10011100
          3 9 5 12 5 9 74 8 61 31 43 38 -53 callgsubr
          -38 callsubr
          -137 58 -133 150 -11 hvcurveto
          hintmask 10111110
          61 callsubr
        </CharString>
        <CharString name="cedilla">
          13 callsubr
          43 -43 83 hstemhm
          239 65 hintmask 00000000
          hintmask 10011000
          151 -14 callsubr
          hintmask 01011000
          -9 26 callsubr
          hintmask 10101000
          -11 16 28 -8 31 hhcurveto
          62 47 39 53 52 -39 31 -49 4 hvcurveto
          hintmask 10011000
          4 12 8 18 5 10 rrcurveto
          -56 hlineto
          -9 -19 -11 -31 -6 -22 rrcurveto
          endchar
        </CharString>
        <CharString name="cent">
          -38 -30 163 391 156 hstem
          51 80 85 67 vstem
          216 -30 rmoveto
          -1 8 16 -1 9 43 callgsubr
          1 1 9 hvcurveto
          100 vlineto
          55 9 49 27 35 41 -6 16 -18 19 -15 8 rrcurveto
          -31 -34 -43 -26 -49 hhcurveto
          -80 -46 62 128 132 47 69 72 85 48 callsubr
          -2 11 10 31 callgsubr
          33 7 21 26 47 -38 79 -102 14 hvcurveto
          98 vlineto
          2 -9 -13 1 -12 hhcurveto
          -9 -16 -1 -2 -8 hvcurveto
          -99 vlineto
          -91 -16 -77 -81 -161 vvcurveto
          -115 43 -121 122 -17 vhcurveto
          endchar
        </CharString>
        <CharString name="cent.smcp">
          -86 -28 140 325 56 hstemhm
          47 77 67 64 hintmask 00000000
          hintmask 11110000
          191 -28 rmoveto
          -2 8 15 31 callgsubr
          10 12 1 2 9 hvcurveto
          79 vlineto
          48 7 44 22 31 32 -6 16 -16 18 -15 8 rrcurveto
          -23 -30 -37 -19 -42 hhcurveto
          -69 -39 54 104 108 39 59 62 70 19 -54 -48 -3 hvcurveto
          -2 10 12 -2 9 hhcurveto
          32 7 20 27 44 -36 60 -88 11 hvcurveto
          80 vlineto
          2 -9 -12 1 -9 hhcurveto
          -10 -15 -1 -2 -8 hvcurveto
          -81 vlineto
          -79 -15 -68 -71 -136 vvcurveto
          -96 37 -106 107 -17 vhcurveto
          endchar
        </CharString>
        <CharString name="circumflex">
          538 170 hstem
          62 272 vstem
          294 543 -91 callgsubr
        </CharString>
        <CharString name="circumflex.cap">
          732 146 hstem
          52 293 vstem
          308 738 -85 callgsubr
        </CharString>
        <CharString name="colon">
          -255 3 88 252 88 hstemhm
          67 112 hintmask 10100000
          67 47 rmoveto
          -76 callgsubr
          hintmask 01100000
          340 vmoveto
          -76 callgsubr
          endchar
        </CharString>
        <CharString name="comma">
          -255 -9 100 hstem
          79 113 vstem
          181 -33 callgsubr
          endchar
        </CharString>
        <CharString name="commaaccent">
          -33 callsubr
        </CharString>
        <CharString name="commaaccent.cap">
          -33 callsubr
        </CharString>
        <CharString name="copyright">
          301 -18 57 101 57 291 56 100 57 hstem
          45 70 116 72 392 70 vstem
          45 341 rmoveto
          -203 156 -156 203 203 158 156 203 203 -158 157 -203 -203 -156 -157 -203 vhcurveto
          70 hmoveto
          166 123 137 166 167 124 -137 -166 -166 -124 -136 -167 -166 -123 136 166 vhcurveto
          376 48 rmoveto
          -3 8 10 -2 12 hhcurveto
          27 8 19 20 47 -44 74 -105 -87 -89 -66 -137 -120 66 -81 105 57 58 27 36 35 hvcurveto
          -6 15 -13 17 -14 7 rrcurveto
          -26 -29 -41 -19 -39 hhcurveto
          -66 -41 51 93 96 41 51 61 67 23 -54 -45 -4 hvcurveto
          endchar
        </CharString>
        <CharString name="currency">
          57 124 59 305 58 hstem
          71 78 268 78 vstem
          71 335 rmoveto
          -47 14 -42 24 -35 vhcurveto
          -72 -77 11 -18 16 -16 17 -10 rlinecurve
          77 72 rlineto
          -24 35 42 -14 48 hhcurveto
          47 43 14 24 35 hvcurveto
          77 -72 18 11 17 16 9 17 rlinecurve
          -72 77 rlineto
          24 35 14 42 47 vvcurveto
          47 -15 43 -24 35 vhcurveto
          72 77 -9 18 -18 17 -17 9 rlinecurve
          -78 -72 rlineto
          23 -34 -42 14 -47 hhcurveto
          -48 -43 -14 -24 -34 hvcurveto
          -77 72 -18 -10 -16 -17 -10 -17 rlinecurve
          72 -77 rlineto
          -24 -35 -14 -42 -47 vvcurveto
          78 hmoveto
          82 52 71 82 82 52 -71 -82 -82 -52 -70 -82 -82 -52 70 82 vhcurveto
          endchar
        </CharString>
        <CharString name="currency.smcp">
          -52 94 57 235 56 hstem
          52 76 202 75 vstem
          52 268 rmoveto
          -38 10 -34 19 -28 vhcurveto
          -58 -63 11 -17 15 -16 17 -9 rlinecurve
          63 58 rlineto
          -17 28 34 -10 38 hhcurveto
          37 35 9 18 27 hvcurveto
          63 -59 18 11 17 15 8 17 rlinecurve
          -59 63 rlineto
          19 28 11 34 38 vvcurveto
          37 -11 35 -18 27 vhcurveto
          58 65 -9 16 -18 17 -16 9 rlinecurve
          -64 -59 rlineto
          17 -27 -34 10 -37 hhcurveto
          -38 -35 -10 -18 -28 hvcurveto
          -62 58 -18 -9 -16 -17 -9 -16 rlinecurve
          58 -62 rlineto
          -19 -28 -10 -34 -38 vvcurveto
          76 hmoveto
          63 35 55 66 63 38 -55 -63 -64 -38 -53 -63 -66 -35 54 63 vhcurveto
          endchar
        </CharString>
        <CharString name="d">
          16 -12 75 callgsubr
          hstem
          51 75 237 72 vstem
          -59 callsubr
          endchar
        </CharString>
        <CharString name="d.smcp">
          62 -3 61 425 63 57 callsubr
          276 80 vstem
          -50 callsubr
          endchar
        </CharString>
        <CharString name="dcaron">
          50 -12 75 callgsubr
          hstemhm
          51 75 237 72 vstemhm
          -59 callsubr
          265 514 -20 callsubr
        </CharString>
        <CharString name="dcaron.smcp">
          62 -3 61 425 63 54 170 78 callgsubr
          -30 272 34 39 callsubr
          -50 callsubr
          hintmask 00101000
          -266 495 -99 callsubr
        </CharString>
        <CharString name="degree">
          -195 392 56 166 56 hstem
          20 62 149 63 vstem
          20 531 rmoveto
          -79 59 -60 78 78 59 60 79 79 -59 60 -78 -78 -59 -60 -79 vhcurveto
          62 hmoveto
          47 29 36 46 45 29 -36 -47 -48 -29 -35 -45 -46 -29 35 48 vhcurveto
          endchar
        </CharString>
        <CharString name="dieresis">
          572 68 hstem
          64 59 callgsubr
          vstem
          241 606 -107 callgsubr
        </CharString>
        <CharString name="dieresis.cap">
          745 81 hstem
          58 56 callgsubr
          vstem
          298 826 -106 callgsubr
        </CharString>
        <CharString name="divide">
          21 75 73 109 69 105 73 hstem
          213 96 vstem
          213 468 rmoveto
          -13 4 -16 63 callsubr
          -7 9 19 -4 2 callsubr
          5 6 7 19 callsubr
          16 13 -19 callsubr
          16 -4 8 vhcurveto
          7 -8 -28 callsubr
          -7 -9 hvcurveto
          -4 -8 -4 -16 -12 vvcurveto
          -357 vmoveto
          -12 4 -16 63 callsubr
          -7 9 19 -4 2 callsubr
          4 7 7 19 callsubr
          16 12 vvcurveto
          13 -3 16 -4 8 vhcurveto
          7 -8 -28 callsubr
          -7 -9 hvcurveto
          -4 -8 -4 -16 -13 vvcurveto
          258 146 rmoveto
          3 65 callsubr
          -3 11 vhcurveto
          -412 -13 callgsubr
          -9 vhcurveto
          endchar
        </CharString>
        <CharString name="dollar">
          -15 39 65 437 20 callsubr
          62 75 65 66 -62 66 98 77 hintmask 00000000
          hintmask 11101100
          39 101 rmoveto
          hintmask 11110100
          35 -24 58 -26 70 -9 rrcurveto
          -80 vlineto
          -1 7 17 35 callsubr
          11 14 1 1 8 hvcurveto
          77 vlineto
          116 4 63 65 89 vvcurveto
          74 -58 53 -71 25 vhcurveto
          -100 36 rlineto
          -53 19 -28 17 40 vvcurveto
          51 44 29 64 48 59 -15 -23 47 vhcurveto
          17 14 11 24 22 vvcurveto
          -40 19 -55 19 -60 4 rrcurveto
          82 vlineto
          2 -8 -14 1 -11 hhcurveto
          -9 -17 -1 -2 -7 hvcurveto
          -84 vlineto
          -92 -14 -52 -60 -73 vvcurveto
          -66 39 -42 78 -29 vhcurveto
          103 -37 rlineto
          51 -19 37 -34 -44 vvcurveto
          -54 -53 -27 -63 -76 -61 30 27 -46 vhcurveto
          -15 -12 -16 -26 -1 -22 rrcurveto
          endchar
        </CharString>
        <CharString name="dollar.smcp">
          -75 -31 126 354 127 hstemhm
          52 77 48 61 -58 61 75 77 hintmask 00000000
          hintmask 11101100
          35 80 rmoveto
          hintmask 11110100
          30 -19 51 -22 61 -7 rrcurveto
          -63 vlineto
          -1 7 14 73 callsubr
          14 1 1 7 hvcurveto
          62 vlineto
          96 6 59 49 75 vvcurveto
          68 -47 42 -73 26 vhcurveto
          -75 27 rlineto
          -44 15 -25 14 33 vvcurveto
          39 33 24 53 42 50 -15 -19 41 vhcurveto
          19 13 10 24 24 vvcurveto
          -37 17 -48 15 -51 3 rrcurveto
          65 vlineto
          2 -7 -14 1 -10 hhcurveto
          -8 -15 -1 -2 -7 hvcurveto
          -67 vlineto
          -81 -13 -47 -52 -64 vvcurveto
          -59 38 -37 67 -25 vhcurveto
          87 -31 rlineto
          50 -17 22 -24 -33 vvcurveto
          -41 -38 -18 -55 -66 -53 22 22 -40 vhcurveto
          -15 -11 -13 -28 -1 -20 rrcurveto
          endchar
        </CharString>
        <CharString name="dotaccent">
          588 74 hstem
          147 97 vstem
          147 625 -92 callsubr
          endchar
        </CharString>
        <CharString name="dotaccent.cap">
          754 75 hstem
          147 97 vstem
          147 791 -32 callsubr
        </CharString>
        <CharString name="dotlessi">
          70 callgsubr
          hstemhm
          96 74 39 callgsubr
          -78 callgsubr
          endchar
        </CharString>
        <CharString name="dotlessj">
          26 callgsubr
          hstem
          103 74 vstem
          177 422 -83 callsubr
          endchar
        </CharString>
        <CharString name="e">
          -6 -12 -3 callgsubr
          hstem
          52 78 240 75 vstem
          -78 callsubr
          endchar
        </CharString>
        <CharString name="e.smcp">
          -7 -21 callgsubr
          hstem
          91 75 vstem
          -104 callgsubr
          endchar
        </CharString>
        <CharString name="eacute">
          -6 -12 -3 callgsubr
          30 callgsubr
          52 78 60 198 -18 75 hintmask 11101010
          -78 callsubr
          hintmask 00010100
          -62 122 -96 callsubr
        </CharString>
        <CharString name="eacute.smcp">
          22 callgsubr
          39 198 -101 callsubr
          hintmask 00010100
          -250 556 -96 callsubr
        </CharString>
        <CharString name="ecaron">
          -6 56 0 101 207 endchar
        </CharString>
        <CharString name="ecaron.smcp">
          -7 -21 callgsubr
          58 3 callsubr
          91 75 -29 272 -101 callsubr
          hintmask 00010100
          -278 701 -99 callsubr
        </CharString>
        <CharString name="ecircumflex">
          -6 56 0 101 195 endchar
        </CharString>
        <CharString name="ecircumflex.smcp">
          -7 -21 callgsubr
          48 3 callsubr
          91 75 -33 272 -101 callsubr
          hintmask 00010100
          -90 531 -91 callgsubr
        </CharString>
        <CharString name="edieresis">
          -6 -12 -3 callgsubr
          69 68 hstemhm
          52 78 -10 59 callgsubr
          -13 75 hintmask 11101001
          -78 callsubr
          hintmask 00010110
          45 160 -107 callgsubr
        </CharString>
        <CharString name="edieresis.smcp">
          -7 -21 callgsubr
          82 68 hstemhm
          91 75 -31 59 callgsubr
          -101 callsubr
          hintmask 00010110
          -143 594 -107 callgsubr
        </CharString>
        <CharString name="egrave">
          -6 60 0 101 193 endchar
        </CharString>
        <CharString name="egrave.smcp">
          22 callgsubr
          -21 198 -101 callsubr
          hintmask 00010100
          -249 710 -70 callsubr
        </CharString>
        <CharString name="eight">
          21 -12 58 556 58 hstemhm
          54 78 -60 78 230 77 -61 79 hintmask 00000000
          hintmask 11101000
          54 162 rmoveto
          -112 85 -62 122 vhcurveto
          hintmask 11100100
          115 99 68 114 83 -50 59 -69 34 hvcurveto
          hintmask 11011000
          57 29 44 53 69 vvcurveto
          97 -82 66 -111 -106 -86 -68 -100 -72 44 -51 60 -30 vhcurveto
          hintmask 11101000
          -66 -32 -56 -65 -80 vvcurveto
          184 154 rmoveto
          13 -3 rlineto
          hintmask 11100100
          70 -18 75 -41 -83 vvcurveto
          -80 -63 -45 -70 -71 -60 40 82 vhcurveto
          hintmask 11101000
          60 38 59 67 29 vhcurveto
          46 56 rmoveto
          hintmask 11011000
          -81 20 -52 36 66 vvcurveto
          66 51 42 63 63 53 -39 -70 -52 -33 -48 -52 -25 vhcurveto
          endchar
        </CharString>
        <CharString name="eight.smcp">
          -27 -12 56 455 56 hstemhm
          50 76 -60 75 198 75 -60 78 hintmask 00000000
          hintmask 11100100
          50 129 rmoveto
          -89 76 -52 111 107 88 55 99 69 -46 47 -62 32 vhcurveto
          hintmask 11011000
          52 23 38 44 62 vvcurveto
          81 -73 55 -101 -97 -77 -57 -87 -62 41 -41 58 -28 vhcurveto
          hintmask 11100100
          -65 -25 -50 -60 -66 vvcurveto
          304 9 rmoveto
          -64 -49 -30 -66 -64 -49 29 63 48 38 48 69 22 vhcurveto
          58 -20 63 -34 -62 vvcurveto
          hintmask 11011000
          -213 279 rmoveto
          47 41 35 58 59 40 -31 -51 -41 -28 -39 -48 -20 vhcurveto
          -7 3 rlineto
          -71 25 -44 22 50 vvcurveto
          endchar
        </CharString>
        <CharString name="emdash">
          280 232 65 hstem
          79 631 vstem
          707 232 rmoveto
          2 67 callsubr
          42 callsubr
          -625 hlineto
          -5 callsubr
          endchar
        </CharString>
        <CharString name="endash">
          8 232 65 hstem
          64 390 vstem
          450 232 rmoveto
          3 67 callsubr
          -3 11 vhcurveto
          -383 hlineto
          -5 callsubr
          endchar
        </CharString>
        <CharString name="eogonek">
          -6 -217 54 151 -3 callgsubr
          hstem
          52 78 88 65 87 75 vstem
          -57 callsubr
          9 9 0 1 10 vhcurveto
          -36 -34 -23 -41 -40 6 callsubr
          -16 -24 -9 -23 hhcurveto
          -31 -22 18 33 34 25 46 48 38 hvcurveto
          28 10 26 13 21 15 -71 callsubr
          endchar
        </CharString>
        <CharString name="eogonek.smcp">
          -7 -217 54 163 65 179 64 171 63 hstem
          91 75 93 66 vstem
          441 -145 rmoveto
          -9 -17 -23 -9 -24 hhcurveto
          -30 23 callsubr
          13 5 10 11 3 16 rrcurveto
          2 10 0 13 7 vvcurveto
          -235 hlineto
          -23 -17 -1 -104 callsubr
          202 hlineto
          -47 -31 -31 -47 -48 vvcurveto
          -59 44 -32 57 18 callgsubr
          -10 8 vhcurveto
          endchar
        </CharString>
        <CharString name="equal">
          21 171 69 103 70 hstem
          55 420 vstem
          471 171 rmoveto
          3 10 -3 callsubr
          -3 10 vhcurveto
          -412 hlineto
          -3 -10 -10 callgsubr
          -10 vhcurveto
          412 172 rmoveto
          3 10 -3 callsubr
          -3 11 vhcurveto
          -412 -13 callgsubr
          -10 vhcurveto
          endchar
        </CharString>
        <CharString name="eth">
          7 -12 58 382 59 hstem
          50 77 262 76 vstem
          127 572 rmoveto
          1 -15 17 -22 13 -8 104 72 rcurveline
          40 -41 31 -48 16 -46 rrcurveto
          14 -28 -33 9 -32 hhcurveto
          -56 -45 -18 -35 -35 hvcurveto
          -52 -52 -18 -63 -79 vvcurveto
          -79 18 -67 -31 callsubr
          70 78 vvcurveto
          159 -52 138 -96 98 vhcurveto
          78 54 -1 15 -18 22 -12 8 rlinecurve
          -88 -61 -34 27 -39 23 -42 19 rlinecurve
          -15 -8 -12 -22 -4 -19 32 -15 31 -19 28 -24 rrcurveto
          168 -395 rmoveto
          -97 -32 -99 -99 -100 -31 97 97 98 32 90 99 45 39 -16 -22 29 vhcurveto
          10 -38 8 -47 -63 vvcurveto
          endchar
        </CharString>
        <CharString name="eth.smcp">
          67 -3 61 182 65 178 63 hstem
          96 76 277 79 vstem
          528 270 rmoveto
          93 -14 83 -78 59 vhcurveto
          29 -39 -8 callsubr
          -232 -63 vlineto
          -5 callsubr
          63 -235 hlineto
          -8 callgsubr
          39 hvcurveto
          79 59 13 81 93 vvcurveto
          -79 hmoveto
          -98 -24 -114 -147 vhcurveto
          -40 -31 -1 -35 hhcurveto
          183 141 vlineto
          2 9 1 9 40 callsubr
          8 42 callsubr
          -141 179 hlineto
          35 31 -1 40 hhcurveto
          147 24 -113 -100 hvcurveto
          endchar
        </CharString>
        <CharString name="exclam">
          -232 3 91 hstemhm
          104 72 39 callgsubr
          108 186 rmoveto
          -3 9 11 31 callgsubr
          10 11 1 3 8 hvcurveto
          19 498 -5 5 rlineto
          -30 -31 -8 -14 -19 hvcurveto
          37 -573 rmoveto
          -18 -18 -5 -6 -11 hvcurveto
          -4 -7 -3 -21 -12 -9 callsubr
          12 -3 21 -4 7 vhcurveto
          6 -10 -21 5 -16 hhcurveto
          endchar
        </CharString>
        <CharString name="exclamdown">
          -232 397 90 hstem
          99 73 vstem
          169 304 rmoveto
          3 -9 -11 1 -10 hhcurveto
          -10 -11 72 callsubr
          -19 -497 6 -6 rlineto
          30 31 9 13 19 hvcurveto
          -37 574 rmoveto
          18 18 4 6 11 hvcurveto
          4 7 74 callsubr
          12 -3 21 -4 7 vhcurveto
          7 -11 -18 4 -18 hhcurveto
          -17 -20 -4 -7 -10 hvcurveto
          -5 -7 -3 -21 -12 vvcurveto
          -11 3 -22 5 -7 vhcurveto
          -6 10 20 -4 17 hhcurveto
          endchar
        </CharString>
        <CharString name="f">
          -189 434 56 193 56 hstem
          108 72 vstem
          108 hmoveto
          -2 11 13 43 callsubr
          12 14 -47 callgsubr
          435 vlineto
          142 -1 rlineto
          10 callsubr
          9 10 13 callgsubr
          -146 -2 rlineto
          -5 36 -4 33 32 vvcurveto
          59 30 34 49 29 32 -8 -8 30 vhcurveto
          11 12 7 21 18 vvcurveto
          11 -29 -49 10 -36 hhcurveto
          -94 -49 -64 -82 -30 4 -36 3 -38 hvcurveto
          -83 2 72 callgsubr
          -8 -10 78 callsubr
          -9 4 callgsubr
          86 1 rlineto
          endchar
        </CharString>
        <CharString name="f.smcp">
          -51 242 62 174 64 57 callsubr
          vstem
          433 542 rmoveto
          -337 hlineto
          -5 -4 rlineto
          -538 vlineto
          -4 callgsubr
          243 vlineto
          -1 17 16 0 14 hhcurveto
          174 9 callsubr
          12 9 vvcurveto
          8 -1 13 0 callsubr
          -174 hlineto
          -14 -16 -1 -17 hhcurveto
          76 vlineto
          32 -1 35 33 vvcurveto
          -1 26 32 0 37 hhcurveto
          134 hlineto
          34 9 13 22 8 -2 13 -3 8 hvcurveto
          endchar
        </CharString>
        <CharString name="five">
          21 -12 62 317 62 152 67 hstem
          94 74 218 80 vstem
          432 648 rmoveto
          -325 hlineto
          -6 -6 -13 -301 6 -10 15 -13 14 -2 rlinecurve
          33 38 47 18 43 hhcurveto
          60 75 -30 -118 -118 -69 -51 -72 -59 -45 22 28 -41 hvcurveto
          -16 -11 -15 -23 -3 -18 rrcurveto
          -31 40 62 -29 79 hhcurveto
          110 109 73 163 131 -82 74 -115 -38 -37 -11 -17 -32 hvcurveto
          3 35 4 82 rlineto
          64 vlineto
          -1 17 18 0 20 hhcurveto
          179 hlineto
          23 11 12 24 8 -2 13 -3 10 hvcurveto
          endchar
        </CharString>
        <CharString name="five.smcp">
          -27 -12 62 249 59 121 63 hstem
          86 74 186 78 vstem
          60 39 rmoveto
          -28 37 57 -23 72 hhcurveto
          99 99 63 132 107 -74 68 -100 -34 -34 -9 -14 -29 hvcurveto
          2 16 0 16 1 12 4 77 rcurveline
          23 46 vlineto
          156 hlineto
          25 12 11 23 7 -1 12 -4 10 hvcurveto
          -296 hlineto
          -6 -5 -12 -257 10 -11 12 -9 13 -3 rlinecurve
          25 39 37 17 42 hhcurveto
          50 63 -32 -89 -87 -60 -41 -64 -52 -40 14 24 -37 hvcurveto
          -16 -10 -13 -23 -4 -16 rrcurveto
          endchar
        </CharString>
        <CharString name="four">
          21 151 64 438 -20 hstem
          303 74 vstem
          303 hmoveto
          -2 10 13 22 callsubr
          15 12 -65 callgsubr
          109 vlineto
          11 -1 21 11 vvcurveto
          10 19 -1 11 hhcurveto
          64 hlineto
          4 12 1 13 9 vvcurveto
          9 0 10 -2 12 vhcurveto
          -67 hlineto
          -11 -19 -1 -10 hhcurveto
          10 1 21 11 vvcurveto
          152 vlineto
          -4 3 rlineto
          -23 hlineto
          -28 -19 -18 -36 hvcurveto
          -104 vlineto
          -10 1 -19 -10 vvcurveto
          -73 hlineto
          -24 -43 -1 -2 -38 hvcurveto
          -2 3 14 26 19 43 15 33 rlinecurve
          142 324 -17 11 -34 6 -20 -5 rlinecurve
          -174 -397 rlineto
          -12 -29 -9 -20 -11 vvcurveto
          -15 9 -14 9 -16 vhcurveto
          196 hlineto
          11 20 1 11 hhcurveto
          -11 -1 -21 -11 vvcurveto
          endchar
        </CharString>
        <CharString name="four.smcp">
          -27 122 63 363 -20 hstem
          275 71 vstem
          275 hmoveto
          -2 10 56 callsubr
          13 11 -65 callgsubr
          81 vlineto
          11 -1 20 11 vvcurveto
          11 16 31 callgsubr
          55 hlineto
          4 12 1 12 11 vvcurveto
          9 0 9 42 callsubr
          -58 hlineto
          -10 -16 -1 -11 hhcurveto
          11 1 22 11 vvcurveto
          116 vlineto
          -3 4 rlineto
          -22 hlineto
          -26 -20 -19 -35 hvcurveto
          -70 vlineto
          -9 1 -23 -8 vvcurveto
          -58 hlineto
          -21 -42 -1 -2 -33 hvcurveto
          -2 2 14 26 20 41 14 30 rlinecurve
          123 252 -17 12 -33 7 -21 -4 rlinecurve
          -156 -330 rlineto
          -10 -22 -8 -19 -10 vvcurveto
          -14 8 -16 9 -15 vhcurveto
          172 hlineto
          12 18 1 11 hhcurveto
          -11 -1 -20 -11 vvcurveto
          endchar
        </CharString>
        <CharString name="foursuperior">
          -89 434 58 hstem
          70 55 105 63 vstem
          230 352 rmoveto
          -3 9 12 43 callsubr
          10 13 1 3 7 hvcurveto
          82 63 vlineto
          4 8 2 15 9 vvcurveto
          8 -1 11 -2 7 vhcurveto
          -66 115 hlineto
          -1 2 rlineto
          -22 hlineto
          -23 -17 -17 -28 hvcurveto
          -72 -46 vlineto
          -15 -21 0 -1 -22 hvcurveto
          -1 2 13 18 12 25 11 23 rlinecurve
          89 193 -11 12 -31 6 -19 -3 rlinecurve
          -119 -250 rlineto
          -7 -14 -8 -18 -12 vvcurveto
          -12 8 -16 7 -11 vhcurveto
          160 hlineto
          endchar
        </CharString>
        <CharString name="fraction">
          -318 0 -20 hstem
          -130 451 vstem
          -130 hmoveto
          -42 callgsubr
          endchar
        </CharString>
        <CharString name="g">
          15 -220 60 152 75 callgsubr
          -5 -20 hstemhm
          51 75 240 70 hintmask 00000000
          hintmask 11101100
          51 244 rmoveto
          -152 58 -100 112 62 51 33 33 32 vhcurveto
          -58 vlineto
          -85 -18 -75 -117 -37 -59 12 20 -41 vhcurveto
          -12 -14 -8 -24 -1 -20 rrcurveto
          -18 42 62 -16 61 hhcurveto
          72 53 29 34 28 hvcurveto
          32 39 13 55 101 vvcurveto
          314 vlineto
          hintmask 11011100
          32 callsubr
          hintmask 11101100
          -27 -10 -17 -17 -9 -22 rrcurveto
          30 -34 -43 24 -64 hhcurveto
          -87 -99 -78 -181 hvcurveto
          315 132 rmoveto
          -246 vlineto
          -42 -32 -51 -32 -51 hhcurveto
          -58 -48 55 133 138 57 57 64 42 43 -21 -29 34 hvcurveto
          endchar
        </CharString>
        <CharString name="g.smcp">
          42 -12 63 164 66 208 66 -59 -20 hstemhm
          47 80 290 5 callgsubr
          hintmask 11101100
          295 279 rmoveto
          -3 -8 -2 -14 -8 vvcurveto
          -24 13 -10 23 vhcurveto
          94 hlineto
          -2 -19 -1 -18 -12 vvcurveto
          -98 vlineto
          -9 -30 -39 -8 -50 hhcurveto
          -114 -57 74 143 165 77 56 88 61 55 -19 -30 42 hvcurveto
          hintmask 11011100
          16 10 18 23 5 23 rrcurveto
          hintmask 11101100
          37 -49 -75 22 -70 hhcurveto
          -123 -125 -75 -211 -140 56 -141 180 77 77 17 19 54 hvcurveto
          209 vlineto
          33 -15 15 -53 -44 -42 -1 -1 -42 vhcurveto
          endchar
        </CharString>
        <CharString name="germandbls">
          -82 callgsubr
        </CharString>
        <CharString name="germandbls.cap">
          -82 callgsubr
        </CharString>
        <CharString name="germandbls.cap_smcp">
          41 -10 58 219 62 168 58 hstem
          93 76 234 74 vstem
          93 hmoveto
          -2 11 14 43 callsubr
          13 14 1 2 12 hvcurveto
          377 vlineto
          81 39 39 79 77 39 -50 -59 -6 -1 -6 -1 -6 vhcurveto
          -52 -19 -41 -39 -48 vvcurveto
          -32 20 -30 40 -28 vhcurveto
          36 -25 rlineto
          25 -18 11 -16 -19 vvcurveto
          -28 -29 -20 -42 -30 -29 8 12 -25 vhcurveto
          -14 -12 -10 -26 -1 -17 rrcurveto
          -15 33 41 -8 40 hhcurveto
          88 58 43 64 35 -19 33 -44 32 hvcurveto
          -33 23 rlineto
          -26 19 -10 12 17 vvcurveto
          30 32 24 48 10 vhcurveto
          7 20 2 22 18 vvcurveto
          95 -77 68 -112 -111 -84 -52 -115 vhcurveto
          -59 vlineto
          -77 1 rlineto
          -2 -9 -1 -12 -9 vvcurveto
          -11 1 -12 4 callgsubr
          77 1 rlineto
          endchar
        </CharString>
        <CharString name="germandbls.smcp">
          465 47 callgsubr
          hstemhm
          48 79 245 80 83 79 245 80 hintmask 11110000
          -97 callsubr
          hintmask 11001100
          487 hmoveto
          -100 callsubr
          endchar
        </CharString>
        <CharString name="grave">
          536 186 hstem
          70 198 vstem
          131 722 -70 callsubr
        </CharString>
        <CharString name="grave.cap">
          729 153 hstem
          73 229 vstem
          111 882 -56 callgsubr
        </CharString>
        <CharString name="greater">
          21 53 475 hstem
          397 78 vstem
          475 259 rmoveto
          7 20 -2 23 -5 20 -377 206 rcurveline
          -17 -12 -16 -22 -3 -26 268 -141 rcurveline
          17 -9 36 -17 14 -7 rrcurveto
          -7 vlineto
          -14 -7 -36 -17 -17 -9 -268 -141 rcurveline
          3 -26 16 -22 16 -12 rrcurveto
          endchar
        </CharString>
        <CharString name="guillemotleft">
          17 43 420 hstemhm
          39 243 -38 243 hintmask 10100000
          481 422 -43 callgsubr
          hintmask 11000000
          -58 166 -43 callgsubr
          endchar
        </CharString>
        <CharString name="guillemotright">
          17 43 420 hstemhm
          39 244 -39 244 hintmask 11000000
          45 84 -43 callsubr
          hintmask 10100000
          57 -166 -43 callsubr
          endchar
        </CharString>
        <CharString name="guilsinglleft">
          -187 43 420 hstem
          39 243 vstem
          276 422 -43 callgsubr
          endchar
        </CharString>
        <CharString name="guilsinglright">
          -187 43 420 hstem
          39 244 vstem
          45 84 -43 callsubr
          endchar
        </CharString>
        <CharString name="h">
          35 431 68 hstem
          88 73 227 73 vstem
          461 342 rmoveto
          51 callgsubr
          258 vlineto
          33 -6 17 -34 51 callsubr
          -729 -27 callgsubr
          endchar
        </CharString>
        <CharString name="h.smcp">
          97 250 65 227 -20 57 callsubr
          272 76 vstem
          439 hmoveto
          -4 callgsubr
          542 vlineto
          37 callsubr
          -169 46 callgsubr
          34 callsubr
          169 -70 callgsubr
          -542 vlineto
          -2 10 15 -1 12 -66 callsubr
          -11 callgsubr
          endchar
        </CharString>
        <CharString name="hbar">
          38 431 68 76 54 hstem
          91 73 227 73 vstem
          164 685 rmoveto
          33 -6 17 -34 51 callsubr
          -100 vlineto
          -68 1 72 callgsubr
          -7 -11 vvcurveto
          -10 68 callgsubr
          68 1 rlineto
          -575 -27 callgsubr
          247 vlineto
          51 callgsubr
          149 vlineto
          168 -2 rlineto
          10 callsubr
          8 10 vvcurveto
          11 -1 7 0 callsubr
          -168 -2 rlineto
          endchar
        </CharString>
        <CharString name="hbar.smcp">
          105 250 65 77 60 hstem
          95 76 272 76 vstem
          171 hmoveto
          -11 callgsubr
          -191 vlineto
          -4 callgsubr
          392 63 vlineto
          2 9 2 8 13 vvcurveto
          14 -2 6 0 callsubr
          -63 90 hlineto
          37 callsubr
          -90 -272 90 -70 callgsubr
          -90 -64 vlineto
          58 callsubr
          -7 -13 3 callgsubr
          -8 49 callsubr
          64 -392 hlineto
          -2 10 15 -1 12 -66 callsubr
          219 315 rmoveto
          34 callsubr
          19 272 -19 46 callgsubr
          endchar
        </CharString>
        <CharString name="hyphen">
          -29 callsubr
        </CharString>
        <CharString name="i">
          -253 -82 0 245 199 endchar
        </CharString>
        <CharString name="i.smcp">
          15 callgsubr
          hstem
          95 76 vstem
          95 hmoveto
          -2 10 15 -1 12 -66 callsubr
          542 -70 callgsubr
          endchar
        </CharString>
        <CharString name="iacute">
          55 callgsubr
          82 callgsubr
        </CharString>
        <CharString name="iacute.smcp">
          15 callgsubr
          66 0 callgsubr
          67 198 -170 76 hintmask 10010000
          95 hmoveto
          -2 10 15 -1 12 -66 callsubr
          542 -70 callgsubr
          hintmask 01100000
          -28 78 -96 callsubr
        </CharString>
        <CharString name="icircumflex">
          70 callgsubr
          44 3 callsubr
          -22 272 -154 5 callgsubr
          hintmask 10010000
          -78 callgsubr
          hintmask 01100000
          40 543 -91 callgsubr
        </CharString>
        <CharString name="icircumflex.smcp">
          15 callgsubr
          68 3 callsubr
          -5 272 -172 76 hintmask 10010000
          95 hmoveto
          -2 10 15 -1 12 -66 callsubr
          542 -70 callgsubr
          hintmask 01100000
          132 53 -91 callgsubr
        </CharString>
        <CharString name="idieresis">
          55 callgsubr
          200 endchar
        </CharString>
        <CharString name="idieresis.smcp">
          15 callgsubr
          102 68 hstemhm
          -3 86 12 76 3 86 hintmask 10010000
          95 hmoveto
          -2 10 15 -1 12 -66 callsubr
          542 -70 callgsubr
          hintmask 01101000
          79 116 -107 callgsubr
        </CharString>
        <CharString name="igrave">
          70 callgsubr
          42 0 callgsubr
          -10 198 -92 5 callgsubr
          hintmask 10010000
          -78 callgsubr
          hintmask 01100000
          -119 722 -70 callsubr
        </CharString>
        <CharString name="igrave.smcp">
          15 callgsubr
          66 0 callgsubr
          7 198 -110 76 hintmask 10010000
          95 hmoveto
          -2 10 15 -1 12 -66 callsubr
          542 -70 callgsubr
          hintmask 01100000
          -27 232 -70 callsubr
        </CharString>
        <CharString name="ij">
          10 -198 -21 653 60 94 74 hstemhm
          65 97 -66 74 158 97 -66 5 callgsubr
          hintmask 01001000
          -78 callgsubr
          hintmask 00110000
          -105 625 -92 callsubr
          hintmask 11000010
          368 -203 -83 callsubr
          hintmask 00100100
          -105 612 -92 callsubr
          endchar
        </CharString>
        <CharString name="ij.smcp">
          139 69 callsubr
          hstemhm
          95 76 324 76 hintmask 01100000
          95 hmoveto
          -2 10 15 -1 12 -66 callsubr
          542 -70 callgsubr
          hintmask 11010000
          201 -461 -60 callgsubr
          endchar
        </CharString>
        <CharString name="itilde">
          55 callgsubr
          196 endchar
        </CharString>
        <CharString name="itilde.smcp">
          15 callgsubr
          87 68 hstemhm
          -38 340 -207 76 hintmask 10010000
          95 hmoveto
          -2 10 15 -1 12 -66 callsubr
          542 -70 callgsubr
          hintmask 00000000
          54 81 -89 callsubr
          hintmask 01100000
          -91 callsubr
        </CharString>
        <CharString name="j">
          26 callgsubr
          94 74 hstemhm
          72 97 -66 74 hintmask 11001000
          177 422 -83 callsubr
          hintmask 00110000
          -105 612 -92 callsubr
          endchar
        </CharString>
        <CharString name="j.smcp">
          -126 69 callsubr
          hstem
          230 76 vstem
          31 81 -60 callgsubr
          endchar
        </CharString>
        <CharString name="jcircumflex">
          26 callgsubr
          44 3 callsubr
          -15 272 -155 74 hintmask 11001000
          176 422 -83 callsubr
          hintmask 00110000
          41 530 -91 callgsubr
        </CharString>
        <CharString name="jcircumflex.smcp">
          -126 69 callsubr
          68 3 callsubr
          130 272 -172 76 hintmask 11001000
          31 81 -60 callgsubr
          hintmask 00110000
          331 514 -91 callgsubr
        </CharString>
        <CharString name="k">
          -19 224 61 199 10 hstem
          88 73 vstem
          -72 callsubr
          endchar
        </CharString>
        <CharString name="k.smcp">
          22 248 63 224 10 -3 -20 hstemhm
          91 55 callsubr
          hintmask 11010000
          -73 callgsubr
          hintmask 10110000
          -36 callgsubr
          endchar
        </CharString>
        <CharString name="kcommaaccent">
          -19 -24 callgsubr
          279 61 199 10 hstemhm
          88 73 80 78 hintmask 00011100
          -72 callsubr
          hintmask 11100010
          -109 -149 -94 callsubr
        </CharString>
        <CharString name="kcommaaccent.smcp">
          15 -24 callgsubr
          303 63 224 10 -3 -20 78 callgsubr
          80 78 hintmask 00000000
          hintmask 00011010
          -73 callgsubr
          hintmask 00010110
          -36 callgsubr
          hintmask 11100001
          -191 -80 -94 callsubr
        </CharString>
        <CharString name="kgreenlandic">
          -19 224 61 199 10 hstem
          88 73 vstem
          -61 callsubr
          160 64 callgsubr
          18 -34 51 callsubr
          -488 -61 callgsubr
          endchar
        </CharString>
        <CharString name="kgreenlandic.smcp">
          22 248 63 224 10 57 callsubr
          vstem
          -73 callgsubr
          185 64 callgsubr
          18 -34 vhcurveto
          -30 -39 callgsubr
          -540 vlineto
          -2 10 56 callsubr
          14 16 1 2 10 -16 callgsubr
          endchar
        </CharString>
        <CharString name="l">
          -226 -4 61 hstem
          86 73 vstem
          -28 callgsubr
          endchar
        </CharString>
        <CharString name="l.smcp">
          -52 0 66 480 -20 57 callsubr
          vstem
          -26 callgsubr
          endchar
        </CharString>
        <CharString name="ldot">
          -188 -4 61 251 82 hstemhm
          86 73 72 94 hintmask 10100000
          -28 callgsubr
          hintmask 01010000
          -7 292 -62 callgsubr
        </CharString>
        <CharString name="ldot.smcp">
          -51 0 66 196 82 202 -20 78 callgsubr
          129 94 hintmask 10110000
          -26 callgsubr
          hintmask 01001000
          -135 237 -62 callgsubr
        </CharString>
        <CharString name="less">
          21 52 475 hstem
          55 78 vstem
          55 321 rmoveto
          -7 -20 2 -23 5 -20 377 -206 rcurveline
          17 12 15 22 4 26 -268 141 rcurveline
          -17 9 -36 17 -14 7 rrcurveto
          7 vlineto
          14 7 36 17 17 9 268 141 rcurveline
          -3 26 -16 22 -17 12 rrcurveto
          endchar
        </CharString>
        <CharString name="logicalnot">
          21 262 69 hstem
          396 74 vstem
          54 331 rmoveto
          -3 -11 -1 -10 -1 callsubr
          -12 3 -9 vhcurveto
          305 hlineto
          10 16 1 12 hhcurveto
          -11 -1 -17 -10 vvcurveto
          -115 vlineto
          -2 11 11 -1 15 hhcurveto
          13 14 -47 callgsubr
          215 vlineto
          -7 6 rlineto
          endchar
        </CharString>
        <CharString name="lslash">
          -197 -4 61 hstem
          111 73 vstem
          221 57 rmoveto
          -24 -13 14 29 hvcurveto
          269 vlineto
          88 48 4 18 0 22 -5 19 rlinecurve
          -6 3 -81 -44 rlineto
          250 vlineto
          33 -6 17 -34 51 callsubr
          -334 vlineto
          -77 -42 -4 -19 0 -22 5 -18 rlinecurve
          5 -3 71 38 rlineto
          -250 vlineto
          -54 34 -29 50 21 33 3 3 19 vhcurveto
          1 9 callgsubr
          -2 15 -4 10 vhcurveto
          endchar
        </CharString>
        <CharString name="lslash.smcp">
          -45 0 66 480 -20 hstem
          98 75 vstem
          173 498 rmoveto
          33 -7 15 -33 vhcurveto
          -30 -15 callgsubr
          -246 vlineto
          -64 -19 -4 -18 0 -23 5 -17 rlinecurve
          5 -3 58 17 rlineto
          -184 vlineto
          -31 18 -17 25 vhcurveto
          246 -40 callgsubr
          8 vvcurveto
          -185 hlineto
          -25 -27 -1 -3 -27 hvcurveto
          191 vlineto
          172 51 4 18 0 24 -5 16 rlinecurve
          -5 2 -166 -49 rlineto
          endchar
        </CharString>
        <CharString name="m">
          282 432 67 hstem
          88 74 199 74 200 73 vstem
          361 320 rmoveto
          -320 vlineto
          -2 10 13 81 callgsubr
          14 13 -47 callgsubr
          345 vlineto
          11 vlineto
          49 39 52 27 41 hhcurveto
          49 19 -32 -79 hvcurveto
          -278 14 callsubr
          18 18 7 callgsubr
          250 vlineto
          85 -38 69 -87 -58 -55 -30 -45 -49 vhcurveto
          45 -18 -37 30 -57 hhcurveto
          -52 -55 -26 -46 -40 hvcurveto
          15 -7 callsubr
          -7 rlineto
          -487 -64 callsubr
          354 vlineto
          49 36 53 29 42 hhcurveto
          50 18 -33 -79 hvcurveto
          endchar
        </CharString>
        <CharString name="m.smcp">
          209 1 -20 99 76 304 82 hstem
          76 566 vstem
          76 1 rmoveto
          -3 10 17 -2 13 hhcurveto
          12 12 1 2 12 hvcurveto
          26 318 rlineto
          3 37 4 67 39 vvcurveto
          5 hlineto
          132 -380 rlineto
          62 callgsubr
          43 callsubr
          13 -53 callsubr
          132 380 rlineto
          5 hlineto
          -39 4 -67 3 -37 vhcurveto
          26 -318 rlineto
          -2 12 11 43 callsubr
          13 16 2 3 12 hvcurveto
          -51 541 rlineto
          4 -11 -26 2 -14 hhcurveto
          -16 -24 -2 -4 -11 hvcurveto
          -92 -272 -9 -25 -24 -72 -2 -17 rlinecurve
          -4 hlineto
          -3 17 -24 72 -9 25 -94 272 rcurveline
          5 -12 -22 1 -15 hhcurveto
          -16 -22 -1 -5 -14 hvcurveto
          endchar
        </CharString>
        <CharString name="macron">
          578 66 hstemhm
          66 266 39 callgsubr
          332 578 rmoveto
          2 9 1 10 40 callsubr
          9 0 callsubr
          -266 hlineto
          58 callsubr
          -10 -1 callsubr
          -10 49 callsubr
          endchar
        </CharString>
        <CharString name="mu">
          46 -197 -21 208 67 433 -20 hstem
          88 73 231 73 vstem
          465 490 rmoveto
          3 -9 -13 1 -15 hhcurveto
          -14 -13 72 callsubr
          -358 vlineto
          -46 -31 -44 -29 -50 hhcurveto
          -61 -45 40 74 hvcurveto
          319 71 callsubr
          -14 hhcurveto
          -14 -12 -32 callgsubr
          -608 vlineto
          -32 -2 -31 -9 -22 vhcurveto
          -10 10 18 -5 17 hhcurveto
          28 9 17 32 hvcurveto
          197 vlineto
          -24 24 34 -14 42 hhcurveto
          59 47 30 42 33 hvcurveto
          8 -31 18 -26 36 -12 15 7 13 17 5 14 rrcurveto
          -24 24 -4 41 42 vvcurveto
          endchar
        </CharString>
        <CharString name="multiply">
          21 105 371 hstem
          80 370 vstem
          242 218 rmoveto
          23 24 7 -8 9 -10 7 -6 rlinecurve
          112 -113 11 4 11 8 8 8 rlinecurve
          9 9 6 9 5 13 -113 111 rcurveline
          -24 23 8 8 10 9 6 7 rlinecurve
          113 111 -5 13 -7 10 -9 9 rlinecurve
          -8 8 -11 6 -10 5 -112 -113 rcurveline
          -23 -24 -8 7 -10 10 -5 7 rlinecurve
          -112 113 -11 -4 -11 -7 -8 -9 rlinecurve
          -10 -10 -5 -9 -5 -12 112 -111 rcurveline
          6 -7 10 -9 8 -8 -24 -23 rcurveline
          -112 -111 5 -13 8 -10 8 -8 rlinecurve
          7 -7 10 -8 12 -5 rrcurveto
          endchar
        </CharString>
        <CharString name="n">
          54 callsubr
          hstemhm
          88 74 227 5 callgsubr
          hintmask 10110000
          -13 callsubr
          hintmask 01110000
          14 -7 callsubr
          -6 rlineto
          -488 -64 callsubr
          355 vlineto
          45 39 63 32 52 hhcurveto
          57 16 -33 -79 hvcurveto
          -277 14 callsubr
          18 19 6 10 10 vhcurveto
          -9 22 -2 30 33 vvcurveto
          endchar
        </CharString>
        <CharString name="n.smcp">
          1 callsubr
          hstemhm
          91 73 282 5 callgsubr
          hintmask 10111000
          -56 callsubr
          hintmask 11011000
          -87 callgsubr
          endchar
        </CharString>
        <CharString name="nacute">
          36 78 0 110 82 callgsubr
        </CharString>
        <CharString name="nacute.smcp">
          1 callsubr
          62 0 callgsubr
          91 73 78 198 6 -88 callgsubr
          hintmask 00010100
          -278 79 -96 callsubr
        </CharString>
        <CharString name="nbspace">
          -289 0 0 32 32 endchar
        </CharString>
        <CharString name="ncaron">
          54 callsubr
          74 3 callsubr
          88 74 -18 272 -27 -52 callgsubr
          hintmask 00101000
          -279 618 -99 callsubr
        </CharString>
        <CharString name="ncaron.smcp">
          1 callsubr
          74 3 callsubr
          91 73 10 272 0 -88 callgsubr
          hintmask 00010100
          -306 224 -99 callsubr
        </CharString>
        <CharString name="nine">
          21 -12 62 167 66 316 61 hstem
          52 79 260 79 vstem
          258 660 rmoveto
          -125 -81 -97 -130 -146 74 -70 109 58 58 27 40 40 hvcurveto
          -129 -3 -49 -105 -120 hhcurveto
          -45 -33 12 11 -24 hvcurveto
          -17 -11 -11 -25 -2 -19 rrcurveto
          -19 31 51 -11 52 hhcurveto
          166 83 131 197 209 -55 56 -18 21 hvcurveto
          20 -18 -42 38 -79 hhcurveto
          -5 -377 rmoveto
          -68 -54 37 118 98 46 63 80 38 28 -18 -24 20 hvcurveto
          38 -49 10 -89 -48 vvcurveto
          -17 vlineto
          -44 -37 -55 -27 -46 hhcurveto
          endchar
        </CharString>
        <CharString name="nine.smcp">
          -27 -12 61 144 61 242 59 hstem
          58 77 223 78 vstem
          244 555 rmoveto
          -112 -74 -79 -108 -115 63 -60 100 55 48 21 30 34 hvcurveto
          -111 -3 -34 -84 -113 hhcurveto
          -39 -31 8 8 -22 hvcurveto
          -14 -12 -11 -19 -3 -20 rrcurveto
          -17 29 47 -9 47 hhcurveto
          149 76 108 165 92 -12 96 -54 56 hvcurveto
          31 -29 -40 19 -57 hhcurveto
          -4 -301 rmoveto
          -59 -46 30 89 74 39 49 69 34 24 -14 -18 17 hvcurveto
          33 -39 7 -68 -42 vvcurveto
          -8 vlineto
          -30 -34 -47 -23 -37 hhcurveto
          endchar
        </CharString>
        <CharString name="ntilde">
          54 callsubr
          83 68 hstemhm
          88 74 -55 340 -58 -52 callgsubr
          hintmask 00000000
          -169 476 -81 callsubr
        </CharString>
        <CharString name="ntilde.smcp">
          1 callsubr
          83 68 hstemhm
          91 73 -27 340 -31 -88 callgsubr
          hintmask 00000000
          -196 82 -89 callsubr
          hintmask 00010100
          -91 callsubr
        </CharString>
        <CharString name="numbersign">
          96 167 65 182 65 hstem
          26 556 vstem
          406 479 rmoveto
          -129 45 callgsubr
          -35 -153 rlineto
          -132 hlineto
          -6 -17 0 -31 6 -17 rrcurveto
          118 hlineto
          -41 -182 rlineto
          -121 hlineto
          -7 -17 0 -31 7 -17 rrcurveto
          106 hlineto
          -34 -153 16 -8 38 67 callgsubr
          130 hlineto
          -34 -153 16 -8 37 67 callgsubr
          126 hlineto
          7 17 0 31 -7 17 rrcurveto
          -111 hlineto
          41 182 rlineto
          115 hlineto
          6 17 0 31 -6 17 rrcurveto
          -101 45 callgsubr
          -178 -218 rmoveto
          129 hlineto
          -41 -182 rlineto
          -129 hlineto
          endchar
        </CharString>
        <CharString name="o">
          53 callgsubr
          hstem
          52 77 262 76 vstem
          -77 callgsubr
          endchar
        </CharString>
        <CharString name="o.smcp">
          -2 callsubr
          hstem
          45 80 330 80 vstem
          -100 callgsubr
          endchar
        </CharString>
        <CharString name="oacute">
          53 callgsubr
          30 callgsubr
          52 77 65 198 -1 76 hintmask 11010100
          -77 callgsubr
          hintmask 00101000
          65 323 -96 callsubr
        </CharString>
        <CharString name="oacute.smcp">
          -2 callsubr
          30 callgsubr
          45 80 100 198 32 -92 callgsubr
          hintmask 00101000
          180 349 -96 callsubr
        </CharString>
        <CharString name="ocircumflex">
          10 60 0 111 195 endchar
        </CharString>
        <CharString name="ocircumflex.smcp">
          -2 callsubr
          35 3 callsubr
          45 80 28 272 30 -92 callgsubr
          hintmask 00101000
          340 324 -91 callgsubr
        </CharString>
        <CharString name="odieresis">
          10 60 0 111 200 endchar
        </CharString>
        <CharString name="odieresis.smcp">
          -2 callsubr
          69 68 hstemhm
          45 80 30 59 callgsubr
          37 80 hintmask 11010010
          -100 callgsubr
          hintmask 00101100
          287 387 -107 callgsubr
        </CharString>
        <CharString name="oe">
          335 -12 58 -58 -3 callgsubr
          hstemhm
          52 77 262 81 239 55 callsubr
          hintmask 10111110
          783 223 rmoveto
          3 -22 callsubr
          -78 -55 -40 -64 -31 vhcurveto
          62 -29 -53 42 -89 -11 callsubr
          -52 -18 -72 -80 vvcurveto
          -79 18 -73 52 -52 vhcurveto
          -35 35 46 -18 56 hhcurveto
          88 52 41 58 29 hvcurveto
          hintmask 01111110
          -59 27 51 -40 85 hhcurveto
          68 68 24 32 46 hvcurveto
          -46 callgsubr
          hintmask 10111110
          -343 22 rmoveto
          1 callgsubr
          -98 -32 -101 -99 -100 -31 101 98 vhcurveto
          465 201 rmoveto
          85 32 -70 -85 hvcurveto
          -11 -239 vlineto
          101 6 42 65 74 hhcurveto
          endchar
        </CharString>
        <CharString name="oe.smcp">
          278 -21 callgsubr
          hstem
          45 81 250 74 vstem
          740 64 rmoveto
          -235 hlineto
          -24 -17 0 -1 -15 hvcurveto
          14 1 22 13 vvcurveto
          132 vlineto
          -1 20 10 callgsubr
          174 hlineto
          3 -30 callsubr
          -3 11 vhcurveto
          -174 hlineto
          -14 -20 -1 -20 hhcurveto
          120 vlineto
          14 -1 25 13 vvcurveto
          -1 20 21 5 callsubr
          218 hlineto
          4 11 1 14 -29 callgsubr
          -327 hlineto
          6 -35 -33 7 -38 hhcurveto
          -70 -44 -20 -28 -37 hvcurveto
          -69 -55 -27 -93 -87 vvcurveto
          -88 27 -94 69 -55 -5 callgsubr
          70 hhcurveto
          38 31 7 5 33 hvcurveto
          296 -45 callgsubr
          -448 -15 rmoveto
          -135 -31 123 99 99 30 123 136 27 30 -6 -6 27 hvcurveto
          -420 vlineto
          -7 -26 -30 -5 -28 hhcurveto
          endchar
        </CharString>
        <CharString name="ograve">
          10 64 0 111 193 endchar
        </CharString>
        <CharString name="ograve.smcp">
          -2 callsubr
          30 callgsubr
          45 80 40 198 92 -92 callgsubr
          hintmask 00101000
          181 503 -70 callsubr
        </CharString>
        <CharString name="one">
          21 0 64 584 -20 hstem
          255 74 vstem
          75 462 rmoveto
          5 -20 11 -15 17 -11 54 23 60 44 36 49 rrcurveto
          -1 -41 -2 -60 -23 vvcurveto
          -282 vlineto
          -23 1 -18 -22 vvcurveto
          -14 -28 1 -12 hhcurveto
          -97 hlineto
          -2 -11 -1 -11 -10 vvcurveto
          -11 1 -10 2 -11 vhcurveto
          354 hlineto
          2 11 1 10 11 vvcurveto
          10 -1 11 42 callsubr
          -77 hlineto
          -12 -28 -1 -14 hhcurveto
          22 1 18 23 vvcurveto
          522 vlineto
          3 -12 -12 1 -11 35 callgsubr
          -1 -3 -12 hvcurveto
          -22 -53 -65 -75 -96 -58 rrcurveto
          endchar
        </CharString>
        <CharString name="one.smcp">
          -27 0 62 480 -20 hstem
          226 74 vstem
          69 391 rmoveto
          3 -19 11 -18 16 -8 50 20 48 30 32 38 rrcurveto
          -1 -20 -2 -19 -17 vvcurveto
          -318 vlineto
          -13 -24 2 -12 hhcurveto
          -85 hlineto
          -2 -10 -2 -12 -9 vvcurveto
          -10 2 -10 2 -11 vhcurveto
          325 9 callsubr
          11 10 vvcurveto
          9 -1 12 0 callsubr
          -67 hlineto
          -11 -27 -2 -12 hhcurveto
          482 vlineto
          4 -12 -12 0 -11 35 callgsubr
          0 -4 -11 hvcurveto
          -21 -47 -53 -55 -87 -49 rrcurveto
          endchar
        </CharString>
        <CharString name="onehalf">
          377 -3 60 -57 -20 292 56 31 58 hstemhm
          165 65 8 451 65 69 hintmask 01000100
          238 hmoveto
          -42 callgsubr
          hintmask 00101000
          -574 -132 -83 callgsubr
          hintmask 10010010
          793 -494 -57 callgsubr
        </CharString>
        <CharString name="onequarter">
          377 0 -20 102 58 132 56 hstemhm
          165 65 24 451 -155 55 105 63 hintmask 00110000
          41 551 -83 callgsubr
          hintmask 10001000
          213 -551 rmoveto
          -42 callgsubr
          hintmask 01000110
          79 -683 rmoveto
          -3 9 12 43 callsubr
          10 13 1 3 7 hvcurveto
          82 63 vlineto
          4 8 2 15 9 vvcurveto
          8 -1 11 -2 7 vhcurveto
          -66 115 hlineto
          -1 2 rlineto
          -22 hlineto
          -23 -17 -17 -28 hvcurveto
          -72 -46 vlineto
          -15 -21 0 -1 -22 hvcurveto
          -1 2 13 18 12 25 11 23 rlinecurve
          89 193 -11 12 -31 6 -19 -3 rlinecurve
          -119 -250 rlineto
          -7 -14 -8 -18 -12 vvcurveto
          -12 8 -16 7 -11 vhcurveto
          160 hlineto
          endchar
        </CharString>
        <CharString name="onesuperior">
          -89 352 56 hstem
          198 65 vstem
          74 631 -83 callgsubr
          endchar
        </CharString>
        <CharString name="ordfeminine">
          -103 304 53 133 49 99 57 hstem
          40 67 164 62 vstem
          356 340 rmoveto
          -20 19 -3 24 32 vvcurveto
          152 vlineto
          84 -40 44 -83 -56 -61 -19 -17 -40 vhcurveto
          -21 12 -20 11 -10 vhcurveto
          19 43 42 11 45 hhcurveto
          40 25 -22 -52 hvcurveto
          -30 vlineto
          3 -28 -30 2 -26 hhcurveto
          -88 -59 -38 -85 -55 37 -57 78 49 42 26 27 30 hvcurveto
          7 -24 16 -17 26 -9 14 7 14 15 3 11 rrcurveto
          -192 17 rmoveto
          -36 -21 30 34 42 31 27 48 28 30 -3 -3 27 hvcurveto
          -71 vlineto
          -36 -32 -42 -20 -33 hhcurveto
          endchar
        </CharString>
        <CharString name="ordmasculine">
          -120 304 55 283 53 hstem
          32 69 187 68 vstem
          356 500 rmoveto
          59 -16 56 -38 41 vhcurveto
          25 -27 -38 14 -43 hhcurveto
          -43 -37 -14 -25 -27 hvcurveto
          -39 -41 -16 -56 -59 vvcurveto
          -61 16 -55 39 -41 vhcurveto
          -25 27 37 -14 43 hhcurveto
          43 38 14 25 27 hvcurveto
          38 41 16 55 61 vvcurveto
          -255 hmoveto
          72 23 70 71 69 24 -70 -72 -73 -24 -68 -69 -71 -23 68 73 vhcurveto
          endchar
        </CharString>
        <CharString name="oslash">
          10 -12 57 402 56 42 -20 hstem
          52 73 269 73 vstem
          467 245 rmoveto
          78 -17 72 -52 52 vhcurveto
          40 70 -9 14 -24 13 -16 1 rlinecurve
          -37 -63 rlineto
          14 -27 -30 7 -36 -11 callsubr
          -52 -18 -73 -79 vvcurveto
          -77 17 -72 49 -51 vhcurveto
          -40 -71 9 -13 24 -13 17 -1 rlinecurve
          36 62 rlineto
          -14 27 32 -7 36 hhcurveto
          58 45 18 35 35 hvcurveto
          53 52 17 73 79 vvcurveto
          -73 hmoveto
          -98 -32 -102 -102 -27 -21 7 11 -18 vhcurveto
          170 322 rlineto
          22 -38 8 -52 -50 vvcurveto
          -269 hmoveto
          98 33 104 102 25 20 -7 -10 17 vhcurveto
          -169 -321 rlineto
          -20 38 -8 49 49 vvcurveto
          endchar
        </CharString>
        <CharString name="oslash.smcp">
          71 -12 59 449 59 hstem
          45 78 334 78 vstem
          45 271 rmoveto
          -73 19 -76 45 -55 vhcurveto
          -46 -65 8 -14 23 -17 18 -4 rlinecurve
          42 59 rlineto
          -23 35 41 -15 60 hhcurveto
          68 44 19 28 36 hvcurveto
          69 54 28 94 88 vvcurveto
          72 -19 77 -46 56 vhcurveto
          46 64 -8 14 -23 16 -18 5 rlinecurve
          -41 -58 rlineto
          23 -34 -42 15 -60 hhcurveto
          -67 -44 -19 -28 -37 hvcurveto
          -15 callsubr
          412 hmoveto
          -100 -32 -124 -135 -42 -32 12 20 -24 vhcurveto
          235 336 rlineto
          22 -43 8 -54 -47 vvcurveto
          -334 hmoveto
          100 33 125 134 42 32 -12 -20 24 vhcurveto
          -236 -336 rlineto
          -22 42 -7 53 48 vvcurveto
          endchar
        </CharString>
        <CharString name="otilde">
          53 callgsubr
          54 68 hstemhm
          52 77 -40 340 -38 76 hintmask 11010100
          -77 callgsubr
          hintmask 00000000
          147 326 -81 callsubr
        </CharString>
        <CharString name="otilde.smcp">
          -2 callsubr
          54 68 hstemhm
          45 80 -5 340 -5 -92 callgsubr
          hintmask 00000000
          262 352 -81 callsubr
        </CharString>
        <CharString name="p">
          17 25 callgsubr
          382 65 -9 -20 hstemhm
          88 73 239 75 hintmask 00000000
          hintmask 01110110
          475 251 rmoveto
          149 -58 103 -110 -61 -51 -29 -38 -34 vhcurveto
          5 vlineto
          hintmask 01101110
          34 -7 19 -34 vhcurveto
          -26 -39 callgsubr
          -697 41 callsubr
          hintmask 10110110
          27 46 callsubr
          42 -16 47 hhcurveto
          hintmask 01110110
          87 100 77 182 hvcurveto
          -182 187 rmoveto
          55 52 -53 -134 -138 -59 -57 -60 -46 -41 22 23 -33 hvcurveto
          257 vlineto
          51 33 52 29 47 hhcurveto
          endchar
        </CharString>
        <CharString name="p.smcp">
          -13 201 61 222 62 57 callsubr
          222 79 vstem
          468 373 rmoveto
          117 -84 56 -116 -59 -50 -2 -1 -63 -47 callsubr
          201 101 vlineto
          118 82 57 115 hvcurveto
          -301 112 rmoveto
          -1 32 41 0 28 hhcurveto
          97 24 -59 -52 -50 -24 -61 -97 hvcurveto
          -101 hlineto
          endchar
        </CharString>
        <CharString name="paragraph">
          118 -153 62 706 68 hstem
          293 77 67 77 vstem
          293 58 rmoveto
          -63 -6 -32 -14 -20 vhcurveto
          -25 -18 -27 -9 -34 hhcurveto
          -31 -38 11 11 -25 hvcurveto
          -11 -14 -10 -28 -19 vvcurveto
          -11 26 52 -12 43 hhcurveto
          48 49 14 35 31 hvcurveto
          36 40 6 57 75 vvcurveto
          610 vlineto
          -6 6 rlineto
          2 -37 -19 1 -37 hhcurveto
          -128 -92 -70 -143 -140 90 -74 130 hvcurveto
          22 hlineto
          144 -394 rmoveto
          62 callgsubr
          -1 14 -66 callsubr
          750 vlineto
          -1 10 11 0 12 hhcurveto
          47 hlineto
          5 16 0 36 -5 16 rrcurveto
          -151 -39 callgsubr
          endchar
        </CharString>
        <CharString name="parenleft">
          -201 -170 991 hstem
          65 82 vstem
          147 326 rmoveto
          161 44 163 103 129 vhcurveto
          -10 24 -17 13 -19 5 rrcurveto
          -117 -117 -66 -204 -174 vvcurveto
          -174 66 -205 117 -117 vhcurveto
          19 6 17 13 10 24 rrcurveto
          -103 129 -44 163 161 vvcurveto
          endchar
        </CharString>
        <CharString name="parenright">
          -201 -170 991 hstem
          161 82 vstem
          161 326 rmoveto
          -161 -44 -163 -104 -129 vhcurveto
          11 -24 17 -13 19 -6 rrcurveto
          117 117 66 205 174 vvcurveto
          174 -66 204 -117 117 vhcurveto
          -19 -5 -17 -13 -11 -24 rrcurveto
          104 -129 44 -163 -161 vvcurveto
          endchar
        </CharString>
        <CharString name="percent">
          352 -12 53 -41 -20 318 53 -19 53 257 53 hstemhm
          50 68 163 68 163 68 163 69 hintmask 0000000000000000
          hintmask 0101111110000000
          812 187 rmoveto
          60 -9 59 -39 39 vhcurveto
          28 -26 -34 12 -43 hhcurveto
          -41 -34 -12 -28 -27 hvcurveto
          -38 -39 -9 -59 -60 vvcurveto
          hintmask 1001111110000000
          -62 10 -58 37 -39 vhcurveto
          -27 28 33 -13 41 hhcurveto
          43 33 13 27 27 hvcurveto
          hintmask 0101111110000000
          38 39 10 58 62 vvcurveto
          hintmask 1001111110000000
          -232 hmoveto
          74 17 71 65 66 callgsubr
          -65 -17 71 75 vhcurveto
          -231 310 rmoveto
          60 -9 59 -38 39 vhcurveto
          28 -26 -35 12 -42 hhcurveto
          -41 -35 -12 -28 -26 hvcurveto
          -38 -39 -9 -59 -60 vvcurveto
          hintmask 0110111110000000
          -62 10 -58 37 -39 vhcurveto
          -27 27 34 -13 41 hhcurveto
          42 34 13 27 27 hvcurveto
          hintmask 1001111110000000
          37 39 10 58 62 vvcurveto
          hintmask 0110111110000000
          -231 hmoveto
          74 16 71 66 66 callgsubr
          -66 -16 71 75 vhcurveto
          87 -497 rmoveto
          -42 callgsubr
          endchar
        </CharString>
        <CharString name="period">
          -259 3 88 hstem
          65 112 vstem
          65 47 rmoveto
          -76 callgsubr
          endchar
        </CharString>
        <CharString name="periodcentered">
          -218 238 88 hstem
          89 105 vstem
          89 282 81 callsubr
          -23 5 -9 vhcurveto
          -5 9 23 -5 16 hhcurveto
          16 26 5 5 7 -30 callgsubr
          -8 -25 6 -16 hhcurveto
          -16 -23 -6 -5 -9 hvcurveto
          -5 -8 -3 -24 -12 vvcurveto
          endchar
        </CharString>
        <CharString name="plus">
          21 256 69 hstem
          228 74 vstem
          228 362 rmoveto
          -10 1 -17 -11 vvcurveto
          -12 -16 1 -9 hhcurveto
          -133 hlineto
          76 callgsubr
          -10 -15 3 callgsubr
          -12 3 -9 vhcurveto
          133 hlineto
          9 16 1 12 hhcurveto
          -12 -1 -16 -10 vvcurveto
          -144 vlineto
          -3 11 56 callsubr
          14 13 1 3 10 hvcurveto
          144 vlineto
          10 -1 16 12 vvcurveto
          11 17 35 callsubr
          133 hlineto
          2 9 2 12 13 vvcurveto
          15 -2 9 42 callsubr
          -133 hlineto
          -9 -17 -1 -11 hhcurveto
          11 1 17 10 vvcurveto
          144 vlineto
          3 29 callgsubr
          -14 -12 -1 callgsubr
          endchar
        </CharString>
        <CharString name="plusminus">
          21 0 69 231 68 hstem
          228 74 vstem
          228 405 rmoveto
          -10 1 -17 -11 vvcurveto
          -11 -16 1 -10 hhcurveto
          -123 hlineto
          -2 -11 -1 -9 -14 vvcurveto
          -14 1 -11 49 callsubr
          123 hlineto
          10 16 1 11 hhcurveto
          -12 -1 -16 -10 vvcurveto
          -127 vlineto
          -2 11 56 callsubr
          13 14 -47 callgsubr
          127 vlineto
          10 -1 16 12 vvcurveto
          10 17 31 callgsubr
          123 hlineto
          2 9 1 11 14 vvcurveto
          14 -1 9 42 callsubr
          -123 hlineto
          -10 -17 -1 -10 hhcurveto
          11 1 17 10 vvcurveto
          125 vlineto
          2 29 callgsubr
          -14 -12 -1 -2 -11 hvcurveto
          233 -530 rmoveto
          2 12 1 9 40 callsubr
          7 -2 13 vhcurveto
          -392 hlineto
          -2 -13 -1 -7 -15 3 callgsubr
          -9 2 -12 vhcurveto
          endchar
        </CharString>
        <CharString name="q">
          15 25 callgsubr
          383 64 -5 -20 hstemhm
          51 75 238 72 hintmask 00000000
          hintmask 10101110
          364 -165 rmoveto
          -33 6 -17 33 vhcurveto
          27 hlineto
          6 6 rlineto
          561 vlineto
          32 callsubr
          hintmask 01110110
          -26 -10 -17 -16 -10 -21 rrcurveto
          29 -34 -43 23 -64 hhcurveto
          -87 -99 -78 -181 -152 58 -100 112 61 50 30 32 32 hvcurveto
          -132 2 rmoveto
          -56 -50 55 133 138 59 57 62 41 43 -20 -28 33 hvcurveto
          -1 -5 1 -5 -5 vvcurveto
          -249 vlineto
          -41 -32 -50 -30 -50 hhcurveto
          endchar
        </CharString>
        <CharString name="q.smcp">
          72 -95 56 27 61 444 62 hstemhm
          45 80 330 80 hintmask 00000000
          hintmask 01111000
          45 271 rmoveto
          -88 29 -94 68 -54 -5 callgsubr
          67 hhcurveto
          13 12 2 3 11 hvcurveto
          hintmask 11111000
          97 -68 rlineto
          -14 19 18 -6 17 hhcurveto
          29 30 18 38 hvcurveto
          -29 1 -26 7 -62 42 -12 7 rcurveline
          24 12 20 16 15 17 rrcurveto
          49 55 20 77 76 -66 callgsubr
          hintmask 01111000
          -15 callsubr
          80 hmoveto
          -76 callsubr
          endchar
        </CharString>
        <CharString name="question">
          -127 3 90 533 68 hstemhm
          96 94 -79 64 117 80 hintmask 00000000
          hintmask 11101000
          16 648 rmoveto
          2 -22 14 -26 12 -11 rrcurveto
          20 42 49 17 47 hhcurveto
          68 42 -41 -61 -66 -52 -47 -79 -42 hvcurveto
          hintmask 11011000
          -46 -24 -6 -10 4 -149 rlineto
          -3 9 11 -1 11 hhcurveto
          9 10 1 3 8 hvcurveto
          8 116 63 37 rlineto
          72 42 58 61 88 vvcurveto
          101 -72 63 -102 -64 -65 -19 -27 -53 vhcurveto
          127 -555 rmoveto
          -18 -18 -4 -6 -11 hvcurveto
          -4 -7 -3 -22 -11 -9 callsubr
          11 -3 22 -4 7 vhcurveto
          6 -10 -21 4 -16 hhcurveto
          endchar
        </CharString>
        <CharString name="questiondown">
          -127 -204 68 533 90 hstemhm
          10 81 101 94 -79 64 hintmask 00000000
          hintmask 11110000
          366 -157 rmoveto
          -2 22 -13 25 -12 12 rrcurveto
          -21 -43 -48 -17 -48 hhcurveto
          -67 -42 41 62 65 51 47 80 43 hvcurveto
          hintmask 11101000
          45 24 7 9 -4 149 rlineto
          3 -9 -12 1 -10 hhcurveto
          -10 -9 72 callsubr
          -7 -116 -64 -37 rlineto
          -72 -41 -58 -61 -89 vvcurveto
          -101 72 -63 102 65 64 19 28 53 vhcurveto
          -126 554 rmoveto
          17 19 4 6 10 68 callsubr
          11 -19 callsubr
          21 -5 7 vhcurveto
          7 -10 -19 4 -17 hhcurveto
          -17 -20 -4 -7 -11 hvcurveto
          -4 -7 -3 -21 -12 17 callsubr
          20 -4 17 hhcurveto
          endchar
        </CharString>
        <CharString name="quotedbl">
          -154 60 callgsubr
          50 97 62 97 hintmask 00000000
          hintmask 01010000
          209 695 rmoveto
          hintmask 10010000
          -54 callgsubr
          hintmask 00000000
          -159 hmoveto
          hintmask 01100000
          -54 callgsubr
          endchar
        </CharString>
        <CharString name="quotedblbase">
          -131 -9 97 hstemhm
          55 113 59 113 hintmask 11000000
          158 88 rmoveto
          -68 callsubr
          hintmask 10100000
          172 hmoveto
          -68 callsubr
          endchar
        </CharString>
        <CharString name="quotedblleft">
          -132 526 97 hstemhm
          45 113 58 113 hintmask 11000000
          55 526 rmoveto
          -69 callsubr
          hintmask 10100000
          171 hmoveto
          -69 callsubr
          endchar
        </CharString>
        <CharString name="quotedblright">
          -132 552 -20 105 97 hstemhm
          48 113 59 113 hintmask 11100000
          151 734 rmoveto
          -68 callgsubr
          hintmask 11010000
          172 hmoveto
          -68 callgsubr
          endchar
        </CharString>
        <CharString name="quoteleft">
          -303 526 97 hstem
          45 113 vstem
          55 526 rmoveto
          -69 callsubr
          endchar
        </CharString>
        <CharString name="quoteright">
          -303 552 -20 105 97 hstem
          48 113 vstem
          151 734 rmoveto
          -68 callgsubr
          endchar
        </CharString>
        <CharString name="quotesinglbase">
          -302 -9 97 hstem
          55 113 vstem
          158 88 rmoveto
          -68 callsubr
          endchar
        </CharString>
        <CharString name="quotesingle">
          -315 60 callgsubr
          45 97 hintmask 00000000
          hintmask 01100000
          45 695 rmoveto
          hintmask 10100000
          -54 callgsubr
          endchar
        </CharString>
        <CharString name="r">
          -156 424 73 hstem
          97 74 vstem
          61 456 rmoveto
          18 -17 18 -35 -50 vvcurveto
          -354 -64 callsubr
          333 vlineto
          44 20 37 47 65 hhcurveto
          11 12 0 -1 12 hvcurveto
          12 19 5 28 23 vvcurveto
          3 -19 -16 1 -11 hhcurveto
          -68 -43 -39 -49 -23 hvcurveto
          -10 43 -24 32 -38 14 -14 -9 -14 -19 -4 -14 rrcurveto
          endchar
        </CharString>
        <CharString name="r.smcp">
          38 callsubr
          57 callsubr
          230 80 vstem
          477 387 rmoveto
          100 -73 59 -125 -61 -57 -1 -2 -65 -47 callsubr
          224 84 vlineto
          58 21 -25 -42 18 hvcurveto
          52 -117 rlineto
          -29 12 11 -16 29 hhcurveto
          18 22 8 15 10 hvcurveto
          -13 13 -12 24 -12 26 -44 98 rcurveline
          -14 31 -16 22 -32 13 rrcurveto
          68 16 50 56 70 vvcurveto
          -310 99 rmoveto
          -1 32 49 0 29 hhcurveto
          95 25 -52 -46 -45 -25 -55 -96 -29 -40 0 -1 -40 hvcurveto
          endchar
        </CharString>
        <CharString name="racute">
          -156 -1 0 114 82 callgsubr
        </CharString>
        <CharString name="racute.smcp">
          38 callsubr
          42 186 78 callgsubr
          35 198 -3 39 callsubr
          477 387 rmoveto
          100 -73 59 -125 -61 -57 -1 -2 -65 -47 callsubr
          224 84 vlineto
          58 21 -25 -42 18 hvcurveto
          52 -117 rlineto
          -29 12 11 -16 29 hhcurveto
          18 22 8 15 10 hvcurveto
          -13 13 -12 24 -12 26 -44 98 rcurveline
          -14 31 -16 22 -32 13 rrcurveto
          68 16 50 56 70 vvcurveto
          -310 99 rmoveto
          -1 32 49 0 29 hhcurveto
          95 25 -52 -46 -45 -25 -55 -96 -29 -40 0 -1 -40 hvcurveto
          hintmask 00101000
          35 334 -96 callsubr
        </CharString>
        <CharString name="rcaron">
          -156 -1 0 114 207 endchar
        </CharString>
        <CharString name="rcaron.smcp">
          38 callsubr
          54 170 78 callgsubr
          -33 272 -9 39 callsubr
          477 387 rmoveto
          100 -73 59 -125 -61 -57 -1 -2 -65 -47 callsubr
          224 84 vlineto
          58 21 -25 -42 18 hvcurveto
          52 -117 rlineto
          -29 12 11 -16 29 hhcurveto
          18 22 8 15 10 hvcurveto
          -13 13 -12 24 -12 26 -44 98 rcurveline
          -14 31 -16 22 -32 13 rrcurveto
          68 16 50 56 70 vvcurveto
          -310 99 rmoveto
          -1 32 49 0 29 hhcurveto
          95 25 -52 -46 -45 -25 -55 -96 -29 -40 0 -1 -40 hvcurveto
          hintmask 00101000
          7 479 -99 callsubr
        </CharString>
        <CharString name="rcommaaccent">
          -156 -24 callgsubr
          479 73 hstemhm
          97 74 -60 78 hintmask 00011000
          61 456 rmoveto
          18 -17 18 -35 -50 vvcurveto
          -354 -64 callsubr
          333 vlineto
          44 20 37 47 65 hhcurveto
          11 12 0 -1 12 hvcurveto
          12 19 5 28 23 vvcurveto
          3 -19 -16 1 -11 hhcurveto
          -68 -43 -39 -49 -23 hvcurveto
          -10 43 -24 32 -38 14 -14 -9 -14 -19 -4 -14 rrcurveto
          hintmask 11100100
          120 -514 -94 callsubr
        </CharString>
        <CharString name="rcommaaccent.smcp">
          25 -24 callgsubr
          279 63 198 61 78 callgsubr
          80 78 72 80 hintmask 00011101
          477 387 rmoveto
          100 -73 59 -125 -61 -57 -1 -2 -65 -47 callsubr
          224 84 vlineto
          58 21 -25 -42 18 hvcurveto
          52 -117 rlineto
          -29 12 11 -16 29 hhcurveto
          18 22 8 15 10 hvcurveto
          -13 13 -12 24 -12 26 -44 98 rcurveline
          -14 31 -16 22 -32 13 rrcurveto
          68 16 50 56 70 vvcurveto
          -310 99 rmoveto
          -1 32 49 0 29 hhcurveto
          95 25 -52 -46 -45 -25 -55 -96 -29 -40 0 -1 -40 hvcurveto
          hintmask 11100010
          150 -344 -94 callsubr
        </CharString>
        <CharString name="registered">
          79 232 52 175 42 74 41 75 52 hstem
          38 57 105 52 87 53 101 56 vstem
          38 487 rmoveto
          -143 113 -112 142 143 113 112 143 143 -113 113 -143 -142 -113 -113 -143 vhcurveto
          57 hmoveto
          113 86 91 112 114 86 -91 -113 -113 -86 -90 -114 -112 -86 90 113 vhcurveto
          297 53 rmoveto
          48 -32 28 -61 -28 -38 -1 -1 -30 vhcurveto
          -3 -3 rlineto
          -247 vlineto
          17 -5 18 0 17 5 rrcurveto
          95 31 vlineto
          16 10 -9 -12 6 hvcurveto
          26 -49 rlineto
          -18 9 9 -12 17 hhcurveto
          16 13 9 11 6 hvcurveto
          -8 6 -7 10 -6 11 -16 28 rcurveline
          -9 16 -7 17 -17 8 rrcurveto
          25 8 26 21 36 vvcurveto
          -140 35 rmoveto
          46 hlineto
          29 12 -17 -20 -21 -13 -16 -32 hvcurveto
          -42 hlineto
          endchar
        </CharString>
        <CharString name="ring">
          536 44 callsubr
          642 -84 callgsubr
        </CharString>
        <CharString name="ring.cap">
          671 44 callsubr
          777 -84 callgsubr
        </CharString>
        <CharString name="s">
          53 callsubr
          hstem
          57 76 181 77 vstem
          -84 callsubr
          endchar
        </CharString>
        <CharString name="s.smcp">
          -22 47 callgsubr
          hstem
          48 79 245 80 vstem
          -97 callsubr
          endchar
        </CharString>
        <CharString name="sacute">
          53 callsubr
          30 callgsubr
          57 76 20 198 -37 77 hintmask 11010100
          -84 callsubr
          hintmask 00101000
          116 530 -96 callsubr
        </CharString>
        <CharString name="sacute.smcp">
          -22 47 callgsubr
          30 callgsubr
          48 79 47 198 0 39 callsubr
          -97 callsubr
          hintmask 00101000
          141 573 -96 callsubr
        </CharString>
        <CharString name="scaron">
          53 callsubr
          45 3 callsubr
          57 76 -48 272 -43 77 hintmask 11010100
          -84 callsubr
          hintmask 00101000
          88 675 -99 callsubr
        </CharString>
        <CharString name="scaron.smcp">
          -22 47 callgsubr
          45 3 callsubr
          48 79 -21 272 -6 39 callsubr
          -97 callsubr
          hintmask 00101000
          113 718 -99 callsubr
        </CharString>
        <CharString name="section">
          -32 -103 60 38 -20 660 60 -34 -20 hstemhm
          35 77 -38 77 177 76 -37 77 hintmask 00000000
          hintmask 11101001
          444 301 rmoveto
          88 -78 41 -82 32 vhcurveto
          hintmask 11100101
          -58 23 rlineto
          -47 19 -28 22 36 vvcurveto
          45 38 28 52 49 48 -18 -14 32 vhcurveto
          hintmask 11011001
          14 14 9 24 20 vvcurveto
          hintmask 11100101
          19 -40 -61 15 -49 hhcurveto
          -92 -77 -52 -85 -55 30 -36 40 -27 hvcurveto
          hintmask 11101010
          -60 -30 -49 -52 -66 vvcurveto
          -88 77 -42 82 -32 vhcurveto
          59 -23 rlineto
          47 -19 28 -22 -36 vvcurveto
          -45 -37 -28 -60 -58 -45 21 17 -32 vhcurveto
          -13 -10 -15 -26 1 -20 rrcurveto
          -25 38 66 -17 55 hhcurveto
          100 76 52 85 54 -30 38 -41 26 hvcurveto
          hintmask 11101001
          61 30 50 53 66 vvcurveto
          -186 89 rmoveto
          55 -21 54 -26 -52 vvcurveto
          -51 -43 -36 -50 -23 vhcurveto
          -54 22 rlineto
          -54 21 -54 26 51 vvcurveto
          51 41 35 49 23 vhcurveto
          endchar
        </CharString>
        <CharString name="semicolon">
          -251 -9 100 252 88 hstemhm
          69 112 -104 113 hintmask 10010000
          179 -33 callgsubr
          hintmask 01100000
          -110 296 rmoveto
          -76 callgsubr
          endchar
        </CharString>
        <CharString name="seven">
          21 581 67 hstem
          164 79 vstem
          75 648 rmoveto
          -4 -13 -17 callsubr
          167 hlineto
          25 112 1 6 24 hvcurveto
          3 -3 -10 -13 -22 -27 -20 -31 rlinecurve
          -10 -15 -88 -130 -67 -146 -20 -185 rlinecurve
          -4 -38 rlineto
          -3 10 16 81 callgsubr
          14 15 1 3 11 hvcurveto
          3 30 21 209 67 129 100 151 rlinecurve
          31 45 rlineto
          9 14 4 10 11 vvcurveto
          14 -6 19 -9 16 vhcurveto
          endchar
        </CharString>
        <CharString name="seven.smcp">
          -27 476 66 hstem
          149 77 vstem
          67 542 rmoveto
          -4 -12 -2 -14 -13 78 callsubr
          -10 2 -7 vhcurveto
          151 hlineto
          23 100 2 4 22 hvcurveto
          3 -2 -7 -7 -13 -16 -6 -8 rlinecurve
          -12 -16 -101 -133 -60 -124 -14 -163 rlinecurve
          -1 -13 rlineto
          -3 10 15 22 callsubr
          14 14 1 3 11 hvcurveto
          1 15 10 160 59 109 80 112 rlinecurve
          47 66 rlineto
          9 13 4 9 23 callgsubr
          -6 20 -9 15 vhcurveto
          endchar
        </CharString>
        <CharString name="six">
          21 -12 61 316 66 167 62 hstem
          60 79 260 79 vstem
          272 -12 rmoveto
          125 81 97 130 146 -74 70 -109 -59 -58 -28 -39 -39 hvcurveto
          129 2 49 105 121 hhcurveto
          45 33 -12 -11 24 hvcurveto
          17 11 11 25 2 19 rrcurveto
          19 -31 -51 11 -52 hhcurveto
          -166 -83 -131 -197 -209 55 -56 18 -21 hvcurveto
          -20 18 42 -38 79 hhcurveto
          5 377 rmoveto
          68 54 -37 -118 -98 -46 -63 -80 -38 -29 18 24 -19 hvcurveto
          -38 49 -10 89 48 vvcurveto
          16 vlineto
          44 36 55 28 47 hhcurveto
          endchar
        </CharString>
        <CharString name="six.smcp">
          -27 -12 59 242 61 144 61 hstem
          56 77 224 77 vstem
          248 -12 rmoveto
          111 75 78 109 114 -64 61 -100 -55 -48 -22 -30 -34 hvcurveto
          111 2 35 85 113 hhcurveto
          40 30 -8 -8 22 hvcurveto
          14 11 11 19 3 20 rrcurveto
          17 -28 -48 10 -46 hhcurveto
          -149 -76 -108 -166 -92 12 -95 53 -56 hvcurveto
          -31 29 41 -19 57 hhcurveto
          4 301 rmoveto
          59 46 -30 -90 -74 -39 -48 -70 -33 -25 14 17 -16 hvcurveto
          -34 40 -7 68 41 vvcurveto
          8 vlineto
          30 33 48 24 38 hhcurveto
          endchar
        </CharString>
        <CharString name="slash">
          -102 -106 864 hstem
          10 383 vstem
          10 -81 rmoveto
          -15 20 25 -10 21 hhcurveto
          317 839 -18 14 -27 9 -21 2 rlinecurve
          endchar
        </CharString>
        <CharString name="space">
          -289 endchar
        </CharString>
        <CharString name="sterling">
          15 0 66 208 61 260 65 hstemhm
          71 73 -63 77 -18 5 callgsubr
          hintmask 11100100
          214 255 rmoveto
          6 -1 7 7 vvcurveto
          59 58 -1 60 hhcurveto
          5 19 0 23 -5 19 rrcurveto
          hintmask 11101000
          -76 -59 -1 -56 hhcurveto
          -16 50 -25 47 53 vvcurveto
          70 52 41 65 41 59 -21 -38 45 vhcurveto
          21 7 18 27 1 20 rrcurveto
          31 -35 -67 39 -88 hhcurveto
          -132 -57 -93 -81 -56 26 -47 17 -49 hvcurveto
          hintmask 11100100
          1 -20 -21 0 -20 hhcurveto
          -4 -22 0 -21 4 -18 rrcurveto
          25 25 0 1 26 hvcurveto
          -6 1 -6 -6 vvcurveto
          -58 -28 -48 -23 -34 vhcurveto
          hintmask 11110000
          -18 -28 rlineto
          -10 -13 -2 -13 -12 18 callsubr
          11 -33 vhcurveto
          359 -21 callsubr
          12 0 9 10 vvcurveto
          -219 hlineto
          -60 -29 -3 -1 -29 hvcurveto
          -3 3 rlineto
          26 37 47 78 75 vvcurveto
          endchar
        </CharString>
        <CharString name="sterling.smcp">
          -43 0 64 168 58 201 64 -58 -20 hstemhm
          66 68 -61 75 -23 73 hintmask 00000000
          hintmask 11100010
          198 218 rmoveto
          5 -1 5 5 vvcurveto
          50 51 -1 52 hhcurveto
          5 18 0 23 -5 17 rrcurveto
          hintmask 11100100
          -66 -54 -1 -48 hhcurveto
          -15 39 -19 38 39 vvcurveto
          55 44 31 52 40 50 -16 -29 40 vhcurveto
          hintmask 11010010
          20 7 17 25 2 19 rrcurveto
          hintmask 11100100
          27 -33 -59 31 -79 hhcurveto
          -116 -53 -79 -71 -42 19 -38 15 -36 hvcurveto
          hintmask 11100010
          -17 -16 1 -16 hhcurveto
          -4 -19 0 -22 4 -17 rrcurveto
          66 hlineto
          -4 1 -4 -4 vvcurveto
          -46 -24 -36 -19 -30 vhcurveto
          hintmask 11101000
          -16 -24 rlineto
          -8 -12 -3 -11 -12 vvcurveto
          -8 2 -9 9 -32 vhcurveto
          309 hlineto
          28 17 11 24 63 callgsubr
          11 -1 9 9 vvcurveto
          -180 hlineto
          -55 -28 -2 -1 -26 hvcurveto
          -3 2 rlineto
          24 33 40 62 60 vvcurveto
          endchar
        </CharString>
        <CharString name="t">
          -172 -4 61 377 56 hstem
          106 72 vstem
          -59 callgsubr
          endchar
        </CharString>
        <CharString name="t.smcp">
          -84 479 63 hstem
          177 76 vstem
          -46 callsubr
          endchar
        </CharString>
        <CharString name="tcaron">
          -170 -4 61 377 56 hstemhm
          106 72 vstemhm
          -59 callgsubr
          -62 75 -20 callsubr
        </CharString>
        <CharString name="tcaron.smcp">
          -84 479 63 58 3 callsubr
          82 272 -177 76 hintmask 10010000
          -46 callsubr
          hintmask 01100000
          -55 344 -99 callsubr
        </CharString>
        <CharString name="thorn">
          16 25 callgsubr
          378 65 hstemhm
          88 72 239 75 hintmask 00000000
          hintmask 01111100
          474 251 rmoveto
          146 -59 102 -109 -61 -51 -29 -38 -34 vhcurveto
          253 -37 callsubr
          -26 -39 callgsubr
          -938 41 callsubr
          hintmask 10111100
          26 46 callsubr
          43 -16 46 hhcurveto
          hintmask 01111100
          87 100 75 184 hvcurveto
          -183 183 rmoveto
          56 52 -52 -132 -138 -59 -56 -60 -46 -41 22 23 -33 hvcurveto
          253 vlineto
          51 33 52 29 46 hhcurveto
          endchar
        </CharString>
        <CharString name="thorn.smcp">
          -7 110 61 222 149 57 callsubr
          222 79 vstem
          91 hmoveto
          -2 10 14 61 callgsubr
          110 101 vlineto
          119 81 59 113 114 -83 58 -117 hvcurveto
          -34 -35 -1 -32 hhcurveto
          89 vlineto
          3 -11 -13 1 -15 hhcurveto
          -13 -14 -32 callgsubr
          177 -149 rmoveto
          97 24 -60 -51 -49 -24 -62 -97 hvcurveto
          -101 222 hlineto
          -1 35 41 1 25 hhcurveto
          endchar
        </CharString>
        <CharString name="three">
          21 -12 62 288 55 188 67 hstem
          386 79 vstem
          426 560 rmoveto
          13 14 4 11 12 vvcurveto
          14 -9 21 -9 16 vhcurveto
          -342 hlineto
          74 callgsubr
          -13 vvcurveto
          -8 1 -10 49 callsubr
          154 hlineto
          42 60 2 6 23 hvcurveto
          3 -4 -18 -15 -37 -38 -13 -14 rlinecurve
          -143 -158 5 -18 14 -16 14 -7 rlinecurve
          13 21 31 6 24 hhcurveto
          79 47 -48 -83 -105 -68 -52 -81 -58 -47 21 31 -42 hvcurveto
          -16 -12 -15 -22 -4 -19 rrcurveto
          -35 43 67 -26 81 hhcurveto
          103 116 67 149 132 -89 57 -99 hvcurveto
          -12 hlineto
          15 12 15 12 11 12 rrcurveto
          endchar
        </CharString>
        <CharString name="three.smcp">
          -27 -12 62 229 54 146 63 hstem
          344 78 vstem
          384 460 rmoveto
          12 11 4 11 11 vvcurveto
          14 -9 21 -8 14 vhcurveto
          -310 hlineto
          -4 -12 -2 -13 -11 vvcurveto
          -8 1 -9 3 -10 vhcurveto
          136 hlineto
          36 54 2 4 21 hvcurveto
          3 -3 -16 -12 -24 -23 -13 -12 rlinecurve
          -130 -130 rlineto
          -1 0 -1 -1 hhcurveto
          -1 vlineto
          6 -15 13 -17 13 -7 rrcurveto
          10 19 26 5 21 hhcurveto
          70 40 -43 -63 -79 -59 -44 -71 -50 -42 17 25 -38 hvcurveto
          -16 -11 -14 -24 -4 -17 rrcurveto
          -29 39 61 -23 73 hhcurveto
          94 105 62 123 102 -76 58 -77 -5 -5 0 -1 -5 hvcurveto
          13 11 14 12 14 14 rrcurveto
          endchar
        </CharString>
        <CharString name="threequarters">
          377 0 -20 287 56 162 46 98 56 hstemhm
          241 69 -63 451 hintmask 10000100
          247 hmoveto
          -42 callgsubr
          hintmask 00000000
          -314 -58 -67 callsubr
          hintmask 01111000
          470 -556 rmoveto
          -3 9 12 43 callsubr
          10 13 1 3 7 hvcurveto
          82 63 vlineto
          4 8 2 15 9 vvcurveto
          8 -1 11 -2 7 vhcurveto
          -66 115 hlineto
          -1 2 rlineto
          -22 hlineto
          -23 -17 -17 -28 hvcurveto
          -72 -46 vlineto
          -15 -21 0 -1 -22 hvcurveto
          -1 2 13 18 12 25 11 23 rlinecurve
          89 193 -11 12 -31 6 -19 -3 rlinecurve
          -119 -250 rlineto
          -7 -14 -8 -18 -12 vvcurveto
          -12 8 -16 7 -11 vhcurveto
          160 hlineto
          endchar
        </CharString>
        <CharString name="threesuperior">
          -89 345 56 162 46 98 56 hstemhm
          245 69 hintmask 00000000
          hintmask 11110000
          314 703 -67 callsubr
          endchar
        </CharString>
        <CharString name="tilde">
          557 68 36 callgsubr
          571 -89 callsubr
          hintmask 01100000
          -91 callsubr
        </CharString>
        <CharString name="tilde.cap">
          741 67 36 callgsubr
          755 -67 callgsubr
          hintmask 01100000
          -72 callgsubr
        </CharString>
        <CharString name="two">
          21 0 68 529 63 hstem
          63 75 235 79 vstem
          467 68 rmoveto
          -209 hlineto
          -25 -50 -1 -4 -45 hvcurveto
          4 28 38 50 65 56 80 69 rcurveline
          65 56 62 54 106 vvcurveto
          103 -71 75 -114 -97 -70 -64 -69 -30 vhcurveto
          11 -19 25 -8 19 -2 rrcurveto
          58 27 50 41 59 hhcurveto
          64 48 -43 -73 -63 -31 -44 -56 -48 hvcurveto
          -92 -80 rlineto
          -67 -57 -64 -75 -64 vvcurveto
          -17 22 -23 13 -10 vhcurveto
          317 hlineto
          34 14 14 25 3 hvcurveto
          1 10 0 8 11 vvcurveto
          endchar
        </CharString>
        <CharString name="two.smcp">
          -27 0 66 425 64 hstem
          57 78 196 79 vstem
          424 66 rmoveto
          -181 hlineto
          -26 -43 -1 -4 -39 hvcurveto
          6 24 33 38 52 41 71 56 rcurveline
          57 45 56 51 82 vvcurveto
          86 -65 71 -104 -88 -63 -59 -59 -26 vhcurveto
          10 -17 24 -10 21 -2 rrcurveto
          43 24 41 40 52 hhcurveto
          55 40 -40 -53 -45 -27 -38 -47 -38 hvcurveto
          -84 -66 rlineto
          -62 -49 -54 -67 -49 vvcurveto
          -15 20 -23 13 -8 vhcurveto
          282 hlineto
          33 15 12 25 11 callgsubr
        </CharString>
        <CharString name="twosuperior">
          -89 350 60 302 58 hstem
          264 69 vstem
          344 410 -57 callgsubr
        </CharString>
        <CharString name="u">
          24 callsubr
          hstemhm
          83 73 227 5 callgsubr
          hintmask 10111000
          -40 callsubr
          hintmask 11011000
          -60 callsubr
          endchar
        </CharString>
        <CharString name="u.smcp">
          -2 callgsubr
          hstemhm
          82 76 285 55 callsubr
          hintmask 11110000
          -95 callsubr
          endchar
        </CharString>
        <CharString name="uacute">
          24 callsubr
          59 0 callgsubr
          83 73 48 198 -19 5 callgsubr
          hintmask 10101010
          -40 callsubr
          hintmask 11001010
          -60 callsubr
          hintmask 00010100
          121 172 -96 callsubr
        </CharString>
        <CharString name="uacute.smcp">
          36 callsubr
          75 198 12 -75 callsubr
          -286 432 -96 callsubr
        </CharString>
        <CharString name="ucircumflex">
          37 70 0 117 195 endchar
        </CharString>
        <CharString name="ucircumflex.smcp">
          -2 callgsubr
          68 3 callsubr
          82 76 3 272 10 -75 callsubr
          -126 407 -91 callgsubr
        </CharString>
        <CharString name="udieresis">
          24 callsubr
          95 68 hstemhm
          83 73 -22 59 callgsubr
          -14 5 callgsubr
          hintmask 10101001
          -40 callsubr
          hintmask 11001001
          -60 callsubr
          hintmask 00010110
          228 210 -107 callgsubr
        </CharString>
        <CharString name="udieresis.smcp">
          -2 callgsubr
          102 68 hstemhm
          82 76 5 59 callgsubr
          17 55 callsubr
          hintmask 11010010
          -95 callsubr
          hintmask 00101100
          -179 470 -107 callgsubr
        </CharString>
        <CharString name="ugrave">
          37 74 0 117 193 endchar
        </CharString>
        <CharString name="ugrave.smcp">
          36 callsubr
          15 198 72 -75 callsubr
          -285 586 -70 callsubr
        </CharString>
        <CharString name="underscore">
          1 -143 61 hstem
          -3 516 vstem
          510 -143 rmoveto
          2 8 1 8 14 vvcurveto
          14 -1 9 -2 8 vhcurveto
          -510 hlineto
          -2 -8 -1 -10 -13 3 callgsubr
          -9 2 -8 vhcurveto
          endchar
        </CharString>
        <CharString name="uni00AD">
          -29 callsubr
        </CharString>
        <CharString name="uring">
          37 70 0 117 202 endchar
        </CharString>
        <CharString name="uring.smcp">
          -2 callgsubr
          66 42 callgsubr
          hstemhm
          82 76 30 59 102 59 35 55 callsubr
          hintmask 11001001
          -95 callsubr
          hintmask 00110110
          -331 506 -84 callgsubr
        </CharString>
        <CharString name="v">
          -67 -5 69 422 9 3 -20 hstemhm
          11 421 hintmask 00000000
          hintmask 10110000
          229 64 rmoveto
          -6 -1 1 7 -2 hvcurveto
          -8 31 -21 72 -18 56 -80 238 rcurveline
          21 -6 -13 8 -18 hhcurveto
          -12 -13 -3 -10 -20 hvcurveto
          149 -442 rlineto
          -43 15 11 -5 30 hhcurveto
          17 19 1 4 16 hvcurveto
          hintmask 11010000
          38 106 75 222 51 158 -2 3 rcurveline
          3 -12 -11 3 -14 hhcurveto
          -9 -9 -1 -3 -12 hvcurveto
          endchar
        </CharString>
        <CharString name="v.smcp">
          -15 -4 72 468 11 2 -20 hstemhm
          19 462 hintmask 00000000
          hintmask 10110000
          257 68 rmoveto
          -3 -3 1 6 -2 hvcurveto
          -12 42 -18 59 -12 38 -100 298 rcurveline
          30 -9 -14 7 -18 hhcurveto
          -16 -16 -5 -6 -15 hvcurveto
          170 -505 rlineto
          -33 10 18 -4 25 hhcurveto
          19 18 1 2 19 hvcurveto
          hintmask 11010000
          183 537 -4 5 rlineto
          5 -10 -15 1 -10 hhcurveto
          -9 -11 -1 -4 -11 hvcurveto
          endchar
        </CharString>
        <CharString name="w">
          195 -4 59 363 72 -4 9 3 -20 hstemhm
          32 644 hintmask 00000000
          hintmask 10011000
          140 43 rmoveto
          -42 10 20 -5 23 hhcurveto
          19 27 1 3 17 hvcurveto
          48 200 rlineto
          hintmask 11001000
          12 54 21 91 15 73 rrcurveto
          4 hlineto
          17 -73 17 -91 12 -55 35 -156 rcurveline
          -42 9 21 -5 27 hhcurveto
          19 25 1 2 14 hvcurveto
          hintmask 10101000
          124 487 -2 3 rlineto
          4 -9 -12 2 -14 hhcurveto
          -13 -13 72 callsubr
          -60 -255 -14 -59 -13 -57 -14 -65 rlinecurve
          -5 -1 57 callgsubr
          hintmask 11001000
          -95 426 rlineto
          2 -10 -22 50 callgsubr
          -11 -24 -14 callgsubr
          -101 -435 rlineto
          -4 -2 57 callgsubr
          -8 40 -14 70 -14 62 -53 232 rcurveline
          24 -5 -14 6 -15 hhcurveto
          -12 -14 -3 -9 -20 hvcurveto
          endchar
        </CharString>
        <CharString name="w.smcp">
          229 -4 65 401 73 2 9 3 -20 hstemhm
          35 677 hintmask 00000000
          hintmask 10011000
          148 34 rmoveto
          -32 8 21 -6 23 hhcurveto
          18 27 1 3 19 hvcurveto
          62 259 rlineto
          hintmask 11001000
          12 52 18 79 14 72 rrcurveto
          5 hlineto
          14 -72 16 -82 11 -49 49 -226 rcurveline
          -31 6 18 -6 22 hhcurveto
          18 31 1 4 19 hvcurveto
          hintmask 10101000
          133 536 -5 4 rlineto
          3 -11 -11 2 -14 hhcurveto
          -11 -14 -1 callgsubr
          -73 -320 -9 -37 -16 -74 -10 -50 rlinecurve
          -4 -1 57 callgsubr
          hintmask 11001000
          -98 465 rlineto
          3 -11 -24 -9 callgsubr
          -13 -21 -1 -3 -14 hvcurveto
          -108 -474 rlineto
          -4 -1 57 callgsubr
          -31 152 -61 288 rlineto
          28 -6 -10 11 -22 hhcurveto
          -14 -18 -5 -6 -13 hvcurveto
          endchar
        </CharString>
        <CharString name="x">
          -60 482 13 0 -20 24 -20 hstemhm
          22 405 hintmask 00000000
          hintmask 01010000
          334 490 rmoveto
          -107 -173 rlineto
          hintmask 00110000
          -103 159 rlineto
          14 -9 -10 9 -18 hhcurveto
          -17 -21 -9 -9 -13 hvcurveto
          145 -224 -159 -249 3 -6 rlineto
          -4 8 14 -3 14 hhcurveto
          10 18 2 2 5 hvcurveto
          125 200 119 -184 rlineto
          -14 9 10 -8 18 hhcurveto
          17 21 9 9 14 hvcurveto
          -163 249 rlineto
          hintmask 10010000
          141 222 -3 6 rlineto
          4 -7 -13 3 -16 hhcurveto
          hintmask 01010000
          -11 -15 -2 -3 -6 hvcurveto
          endchar
        </CharString>
        <CharString name="x.smcp">
          -10 8 -20 559 -20 22 -20 hstemhm
          15 470 hintmask 00000000
          hintmask 11010000
          389 542 rmoveto
          -133 -194 rlineto
          hintmask 10110000
          -116 170 rlineto
          21 -15 -12 10 -22 hhcurveto
          -17 -16 -5 -12 -17 hvcurveto
          165 -243 -191 -281 3 -5 rlineto
          -4 9 15 -3 16 hhcurveto
          11 14 2 2 7 hvcurveto
          156 230 140 -205 rlineto
          -22 14 15 -9 18 hhcurveto
          19 18 6 13 15 hvcurveto
          -189 277 rlineto
          hintmask 11010000
          167 245 -3 5 rlineto
          5 -9 -15 2 -15 hhcurveto
          -10 -15 -2 -2 -7 hvcurveto
          endchar
        </CharString>
        <CharString name="y">
          37 callgsubr
          hstemhm
          8 428 hintmask 00000000
          hintmask 11101000
          -23 callsubr
          hintmask 11011000
          -39 callsubr
          endchar
        </CharString>
        <CharString name="y.smcp">
          -82 550 -20 hstem
          177 76 vstem
          -79 callgsubr
          endchar
        </CharString>
        <CharString name="yacute">
          -57 26 0 121 82 callgsubr
        </CharString>
        <CharString name="yacute.smcp">
          -82 550 -20 58 0 callgsubr
          152 198 -173 76 hintmask 10010000
          -79 callgsubr
          hintmask 01100000
          -194 78 -96 callsubr
        </CharString>
        <CharString name="ydieresis">
          37 callgsubr
          94 68 hstemhm
          8 428 -346 59 callgsubr
          hintmask 00000000
          hintmask 11100100
          -23 callsubr
          hintmask 11010100
          -39 callsubr
          hintmask 00001011
          -32 589 -107 callgsubr
        </CharString>
        <CharString name="ydieresis.smcp">
          -82 550 -20 94 68 hstemhm
          82 86 9 76 6 86 hintmask 10010000
          -79 callgsubr
          hintmask 01101000
          -87 116 -107 callgsubr
        </CharString>
        <CharString name="yen">
          -11 183 56 88 56 274 -20 hstem
          211 75 vstem
          439 183 rmoveto
          10 callsubr
          4 40 callsubr
          4 0 callsubr
          -149 hlineto
          38 88 rlineto
          111 9 callsubr
          4 40 callsubr
          4 0 callsubr
          -86 hlineto
          116 263 -3 6 rlineto
          3 -12 -12 50 callgsubr
          -11 -12 -2 -3 -11 hvcurveto
          -101 -243 -13 -28 -16 -48 -11 -30 rlinecurve
          -5 hlineto
          -10 29 -18 51 -12 26 -89 217 rcurveline
          21 -10 -11 11 -19 hhcurveto
          -17 -12 -2 -13 -22 hvcurveto
          114 -259 rlineto
          -85 33 callsubr
          110 hlineto
          39 -88 rlineto
          -149 33 callsubr
          153 -183 hlineto
          -2 10 13 61 callgsubr
          183 vlineto
          endchar
        </CharString>
        <CharString name="yen.smcp">
          -63 147 54 68 54 216 10 hstem
          186 72 vstem
          395 147 rmoveto
          10 callsubr
          7 9 vvcurveto
          10 -1 9 -2 9 vhcurveto
          -133 hlineto
          32 68 rlineto
          101 9 callsubr
          7 9 13 callgsubr
          -76 hlineto
          102 216 -3 5 rlineto
          3 -13 -8 2 -13 hhcurveto
          -10 -15 -2 -4 -10 hvcurveto
          -88 -195 -13 -29 -11 -29 -10 -32 rlinecurve
          -4 hlineto
          -9 26 -12 35 -13 29 -77 172 rcurveline
          17 -9 -10 13 -19 hhcurveto
          -16 -13 -5 -10 -20 hvcurveto
          99 -212 rlineto
          -76 hlineto
          -2 -8 -1 -9 -11 78 callsubr
          -6 4 callgsubr
          102 hlineto
          32 -68 rlineto
          -134 hlineto
          -2 -9 -1 -9 -10 vvcurveto
          -9 1 -7 4 callgsubr
          138 -147 hlineto
          62 callgsubr
          -1 44 callgsubr
          12 -47 callgsubr
          147 vlineto
          endchar
        </CharString>
        <CharString name="z">
          -65 0 61 369 60 hstem
          41 363 vstem
          -65 callsubr
          endchar
        </CharString>
        <CharString name="z.smcp">
          28 callgsubr
          hstem
          360 69 vstem
          -97 callgsubr
          endchar
        </CharString>
        <CharString name="zacute">
          -65 25 0 122 82 callgsubr
        </CharString>
        <CharString name="zacute.smcp">
          28 callgsubr
          46 0 callgsubr
          188 198 -26 -90 callsubr
          -101 225 -96 callsubr
        </CharString>
        <CharString name="zcaron">
          -65 25 0 122 207 endchar
        </CharString>
        <CharString name="zcaron.smcp">
          28 callgsubr
          58 3 callsubr
          120 272 -32 -90 callsubr
          -129 370 -99 callsubr
        </CharString>
        <CharString name="zdotaccent">
          -65 0 61 369 60 98 74 hstemhm
          41 363 -232 97 hintmask 11010000
          -65 callsubr
          hintmask 00101000
          -70 290 -92 callsubr
          endchar
        </CharString>
        <CharString name="zdotaccent.smcp">
          28 callgsubr
          98 74 hstemhm
          201 97 62 -90 callsubr
          -88 282 -92 callsubr
          endchar
        </CharString>
        <CharString name="zero">
          21 -12 61 550 61 hstem
          55 80 260 80 vstem
          55 324 rmoveto
          -135 14 -85 60 -63 vhcurveto
          -33 34 40 -20 62 hhcurveto
          62 40 20 33 34 hvcurveto
          60 63 14 85 135 vvcurveto
          134 -14 86 -60 62 vhcurveto
          34 -34 -39 20 -62 hhcurveto
          -63 -41 -20 -34 -33 hvcurveto
          -61 -62 -13 -86 -134 vvcurveto
          80 hmoveto
          128 13 71 36 42 vhcurveto
          22 20 26 12 35 hhcurveto
          35 26 -12 -22 20 hvcurveto
          36 -42 13 -71 -128 vvcurveto
          -128 -13 -71 -36 -42 vhcurveto
          -22 -20 -26 -12 -35 hhcurveto
          -35 -26 12 22 -20 hvcurveto
          -36 42 -13 71 128 vvcurveto
          endchar
        </CharString>
        <CharString name="zero.smcp">
          -27 -12 60 448 59 hstem
          51 79 223 78 vstem
          51 271 rmoveto
          -103 12 -83 54 -51 vhcurveto
          -28 31 36 -18 57 hhcurveto
          57 36 18 28 31 hvcurveto
          54 51 12 83 103 vvcurveto
          104 -12 84 -54 50 vhcurveto
          28 -31 -35 18 -57 hhcurveto
          -58 -37 -18 -27 -30 hvcurveto
          -55 -50 -11 -85 -104 vvcurveto
          79 hmoveto
          98 11 67 30 32 vhcurveto
          18 17 22 10 31 hhcurveto
          31 23 -10 -18 16 hvcurveto
          31 -32 11 -67 -98 vvcurveto
          -98 -11 -66 -31 -31 vhcurveto
          -18 -16 -23 -10 -31 hhcurveto
          -31 -22 10 18 -17 hvcurveto
          -30 31 -11 66 98 vvcurveto
          endchar
        </CharString>
      <CharString index="0">
        81 callsubr
        -12 4 -10 vhcurveto
        -5 8 19 -4 13 hhcurveto
        13 19 4 5 7 -93 callgsubr
        -8 -18 4 -13 hhcurveto
        -13 -18 -4 -5 -9 hvcurveto
        -4 -10 -3 -12 -12 vvcurveto
        -177 hmoveto
        -12 3 -12 4 -10 vhcurveto
        -5 7 20 -4 44 callgsubr
        18 4 5 8 -93 callgsubr
        -9 -17 4 -14 hhcurveto
        -12 -19 -4 49 callgsubr
        -4 -10 -3 -12 -12 vvcurveto
        endchar
      </CharString>
      <CharString index="1">
        rmoveto
        -16 -17 -3 49 callgsubr
        -6 -51 callsubr
        6 79 callgsubr
        8 17 -2 16 hhcurveto
        16 16 2 6 10 hvcurveto
        4 -50 callgsubr
        -4 79 callsubr
        -10 -16 3 -16 hhcurveto
        -198 hmoveto
        -17 -15 -3 -5 -10 hvcurveto
        -4 -51 callsubr
        4 79 callgsubr
        10 15 -2 17 hhcurveto
        15 18 2 80 callgsubr
        5 -50 callgsubr
        -5 13 30 callsubr
        3 82 callsubr
      </CharString>
      <CharString index="2">
        -81 callgsubr
        -229 679 -45 callsubr
        -229 -679 -80 callsubr
        30 304 -90 callgsubr
        return
      </CharString>
      <CharString index="3">
        220 64 rmoveto
        -23 -17 0 -104 callsubr
        270 -45 callgsubr
        return
      </CharString>
      <CharString index="4">
        138 342 rmoveto
        130 36 159 152 153 35 -159 -130 -130 -35 -160 -153 -152 -36 160 130 vhcurveto
        -81 hmoveto
        -112 29 -116 77 -68 vhcurveto
        -35 39 50 -23 74 -51 callgsubr
        110 -30 117 -76 68 vhcurveto
        35 -39 -50 23 -75 hhcurveto
        -74 -6 callsubr
        -77 -68 -29 -6 callgsubr
        return
      </CharString>
      <CharString index="5">
        hintmask 11101000
        -105 callsubr
        return
      </CharString>
      <CharString index="6">
        14 vvcurveto
        211 vlineto
        -1 22 -85 callsubr
        -22 -48 callgsubr
        23 1 16 hhcurveto
        255 hlineto
        4 -49 callsubr
        return
      </CharString>
      <CharString index="7">
        125 271 rmoveto
        -76 callsubr
        -80 hmoveto
        -88 29 -94 68 -54 -5 callgsubr
        67 hhcurveto
        68 44 19 28 36 hvcurveto
        69 54 28 94 88 -66 callgsubr
        -15 callsubr
        return
      </CharString>
      <CharString index="8">
        524 488 rmoveto
        123 -78 75 -139 -64 -68 -34 callgsubr
        14 14 1 2 11 hvcurveto
        288 104 vlineto
        67 24 -40 -52 19 hvcurveto
        58 -152 rlineto
        -32 13 11 -18 31 hhcurveto
        17 25 8 17 11 hvcurveto
        -23 18 -10 28 -10 25 -52 135 rcurveline
        -14 37 -23 34 -30 10 rrcurveto
        81 24 50 68 90 vvcurveto
        -349 135 rmoveto
        -1 37 61 0 33 hhcurveto
        110 28 -69 -65 -63 -28 -71 -110 -38 -51 0 -2 -42 hvcurveto
        return
      </CharString>
      <CharString index="9">
        448 31 rmoveto
        -25 24 -3 31 -86 callgsubr
        66 54 39 36 37 hvcurveto
        8 -33 18 -24 36 -13 15 7 14 18 5 13 rrcurveto
        -243 20 -55 callgsubr
        return
      </CharString>
      <CharString index="10">
        57 83 rmoveto
        -9 -12 -3 -12 -11 vvcurveto
        -7 1 -8 10 -33 vhcurveto
        336 hlineto
        40 16 16 26 14 -3 10 -5 13 hvcurveto
        -9 -23 -36 -4 -48 hhcurveto
        -107 -1 rlineto
        -24 -34 -1 -4 -39 hvcurveto
        -2 3 23 29 28 33 20 26 rlinecurve
        231 311 rlineto
        8 10 3 11 10 vvcurveto
        7 -1 9 -10 33 vhcurveto
        -358 hlineto
        -4 -13 -2 -13 -12 vvcurveto
        -9 1 -8 49 callsubr
        148 hlineto
        22 95 1 4 24 hvcurveto
        3 -2 -26 -31 -26 -30 -19 -25 rlinecurve
        return
      </CharString>
      <CharString index="11">
        576 683 rmoveto
        2 -11 -48 callsubr
        -449 vlineto
        -119 -61 -64 -105 -104 -62 64 119 vhcurveto
        402 -37 callsubr
        -30 -39 callgsubr
        -447 vlineto
        -163 100 -82 141 143 101 82 163 vhcurveto
        return
      </CharString>
      <CharString index="12">
        567 686 rmoveto
        -26 hlineto
        -33 -7 -16 -34 hvcurveto
        -319 vlineto
        -69 3 -86 4 -73 vhcurveto
        -3 hlineto
        -22 43 -22 49 -26 49 -243 453 rcurveline
        2 -13 -24 1 -11 hhcurveto
        -8 -25 -1 -2 -12 47 callsubr
        12 13 31 callgsubr
        11 11 1 2 14 hvcurveto
        375 vlineto
        70 -4 84 -2 62 vhcurveto
        3 hlineto
        21 -45 21 -44 26 -49 243 -453 rcurveline
        -2 13 25 31 callgsubr
        9 25 1 2 13 hvcurveto
        681 vlineto
        return
      </CharString>
      <CharString index="13">
        82 hintmask 11010100
        -103 callgsubr
        return
      </CharString>
      <CharString index="14">
        hvcurveto
        4 9 3 13 -42 callsubr
        12 -4 10 vhcurveto
        5 return
      </CharString>
      <CharString index="15">
        39 callsubr
        -100 callgsubr
        return
      </CharString>
      <CharString index="16">
        rmoveto
        14 5 17 13 9 18 -101 127 rcurveline
        -19 3 -29 1 -17 -5 -106 -132 rcurveline
        8 -17 11 -11 17 -7 101 99 rcurveline
        endchar
      </CharString>
      <CharString index="17">
        rmoveto
        9 27 15 53 10 39 rrcurveto
        5 hlineto
        12 -45 20 -63 19 -59 63 -190 rcurveline
        -17 -36 1 -5 hhcurveto
        -115 hlineto
        -6 -37 -1 -15 hhcurveto
        return
      </CharString>
      <CharString index="18">
        hintmask 11010000
        -98 callsubr
        hintmask 00101000
        return
      </CharString>
      <CharString index="19">
        5 callgsubr
        hintmask 10101010
        -56 callsubr
        hintmask 11001010
        -87 callgsubr
        return
      </CharString>
      <CharString index="20">
        -210 343 rlineto
        3 -12 -21 1 -11 hhcurveto
        -8 -23 -2 -2 -13 48 callgsubr
        13 14 35 callsubr
        11 12 1 2 14 hvcurveto
        273 vlineto
        39 -2 84 -3 51 vhcurveto
        4 hlineto
        18 -34 21 -36 21 -35 208 -342 rcurveline
        -2 12 23 73 callsubr
        22 1 2 13 hvcurveto
        541 vlineto
        return
      </CharString>
      <CharString index="21">
        42 vvcurveto
        206 vlineto
        108 -51 59 -104 -70 -76 -25 -22 -50 vhcurveto
        -44 callsubr
        -75 hvcurveto
        -50 vlineto
        7 -36 -40 2 -34 hhcurveto
        -111 -76 -50 -111 -71 47 -74 97 return
      </CharString>
      <CharString index="22">
        rmoveto
        14 4 17 13 6 18 -111 103 rcurveline
        -19 3 -33 0 -19 -3 -111 -108 rcurveline
        4 -16 16 -14 14 -6 113 81 rcurveline
        endchar
      </CharString>
      <CharString index="23">
        rmoveto
        -58 47 -48 63 63 47 48 58 57 -47 48 -63 -63 -47 -48 -57 vhcurveto
        59 hmoveto
        -62 callsubr
      </CharString>
      <CharString index="24">
        rmoveto
        2 -17 11 -18 14 -8 41 18 34 23 24 32 rrcurveto
        -1 -19 -1 -19 -15 vvcurveto
        -201 vlineto
        -12 -23 1 -11 hhcurveto
        -57 hlineto
        -2 -8 -1 -10 -9 18 callsubr
        2 -11 vhcurveto
        251 9 callsubr
        10 9 vvcurveto
        9 -1 10 -2 8 vhcurveto
        -36 hlineto
        -11 -26 -1 -10 hhcurveto
        356 vlineto
        3 -13 -7 1 -10 hhcurveto
        -9 -12 -1 callgsubr
        -24 -52 -37 -42 -66 -38 rrcurveto
        return
      </CharString>
      <CharString index="25">
        102 -12 60 358 62 173 57 hstem
        110 75 153 77 32 74 vstem
        110 hmoveto
        -2 11 15 43 callsubr
        11 15 -65 callgsubr
        502 vlineto
        84 40 55 90 90 42 -65 -78 -13 -2 -14 -4 -14 vhcurveto
        -62 -22 -41 -45 -52 vvcurveto
        -40 24 -33 44 -37 vhcurveto
        41 -34 rlineto
        24 -21 22 -24 -31 vvcurveto
        -41 -40 -29 -54 -29 -36 9 15 -28 vhcurveto
        -16 -12 -13 -26 -1 -17 rrcurveto
        -19 36 52 -10 37 hhcurveto
        103 68 59 72 47 -31 42 -44 38 hvcurveto
        -37 30 rlineto
        -33 28 -12 19 21 vvcurveto
        27 24 37 67 17 vhcurveto
        -2 1 rlineto
        2 hlineto
        10 28 5 28 22 vvcurveto
        118 -80 76 -124 -121 -86 -67 -121 vhcurveto
        -42 vlineto
        -86 2 72 callgsubr
        -11 -10 vvcurveto
        -11 1 -12 4 callgsubr
        86 1 rlineto
        endchar
      </CharString>
      <CharString index="26">
        227 177 rmoveto
        -41 callgsubr
        rlineto
        -32 10 11 -8 25 hhcurveto
        18 16 3 7 11 hvcurveto
        return
      </CharString>
      <CharString index="27">
        2 -3 rlineto
        -3 9 13 -2 14 hhcurveto
        10 13 -47 callgsubr
        50 137 rlineto
        14 44 -1 6 hhcurveto
        return
      </CharString>
      <CharString index="28">
        260 343 rmoveto
        -18 -42 -11 -33 -10 -29 rrcurveto
        -4 hlineto
        -8 27 -16 41 -14 33 -78 177 rcurveline
        22 -9 -12 11 -20 hhcurveto
        -18 -13 -5 -8 -18 hvcurveto
        166 -367 rlineto
        -170 vlineto
        -2 10 15 43 callsubr
        15 13 -65 callgsubr
        168 vlineto
        165 368 -3 5 rlineto
        4 -10 -12 2 -13 hhcurveto
        -11 -11 -1 -4 -12 hvcurveto
        return
      </CharString>
      <CharString index="29">
        170 27 callsubr
        -42 vhcurveto
        -8 hlineto
        -11 -17 -2 -3 -22 hvcurveto
        76 callgsubr
        -8 -9 78 callsubr
        -8 3 -10 vhcurveto
        9 hlineto
        31 10 -11 -37 hvcurveto
        -386 -64 callsubr
        return
      </CharString>
      <CharString index="30">
        467 245 rmoveto
        80 -18 71 -52 53 vhcurveto
        36 -35 -46 18 -57 -11 callsubr
        -53 -18 -71 -80 vvcurveto
        -80 18 -71 -31 callsubr
        71 80 vvcurveto
        -338 hmoveto
        1 callgsubr
        -99 -32 -100 -99 -100 -31 100 99 vhcurveto
        return
      </CharString>
      <CharString index="31">
        -12 3 -23 5 -9 vhcurveto
        -5 10 24 -5 18 hhcurveto
        17 27 5 5 8 -30 callgsubr
        -9 -26 6 75 callsubr
        -24 -6 -5 -10 hvcurveto
        -5 -8 -3 -24 -12 vvcurveto
        return
      </CharString>
      <CharString index="32">
        420 348 rmoveto
        -38 callsubr
        -143 63 -139 165 90 75 35 44 49 hvcurveto
        -53 callgsubr
        return
      </CharString>
      <CharString index="33">
        77 hintmask 10101000
        -96 callgsubr
        hintmask 01010000
        return
      </CharString>
      <CharString index="34">
        508 22 rmoveto
        -14 12 -14 25 -11 23 -57 120 rcurveline
        -24 51 -27 34 -53 8 10 9 10 10 8 12 144 209 rcurveline
        -7 7 rlineto
        2 -14 -15 50 callgsubr
        -29 -9 -13 -20 -14 hvcurveto
        -121 -179 -11 -15 -5 -4 -17 -1 rlinecurve
        -58 -3 rlineto
        return
      </CharString>
      <CharString index="35">
        -52 callsubr
        -36 -24 -41 -17 hvcurveto
        -8 -20 6 -12 16 -10 27 callgsubr
        13 11 15 12 16 -38 callgsubr
      </CharString>
      <CharString index="36">
        hvcurveto
        -203 539 rlineto
        3 -7 -23 2 -11 hhcurveto
        -13 -24 -2 -3 -8 hvcurveto
        return
      </CharString>
      <CharString index="37">
        vlineto
        3 -35 callgsubr
        -12 -15 -32 callgsubr
        return
      </CharString>
      <CharString index="38">
        79 hintmask 00000000
        hintmask 10101010
        -36 callsubr
        hintmask 11001010
        8 callgsubr
        hintmask 10101010
        18 15 13 26 23 vvcurveto
        hintmask 11001010
        -49 callgsubr
        hintmask 10101010
        -17 -13 -16 -25 -2 -23 rrcurveto
        hintmask 00010100
        return
      </CharString>
      <CharString index="39">
        7 -9 -25 4 -17 hhcurveto
        -17 -27 -6 49 callgsubr
        -5 -7 -3 -22 -16 69 callgsubr
        -7 vhcurveto
        8 -7 21 -3 11 -1 -1 -34 -26 -32 -34 -19 -1 -14 10 -18 13 -7 rrcurveto
        74 31 38 59 72 vvcurveto
        22 -4 25 -6 12 vhcurveto
        return
      </CharString>
      <CharString index="40">
        -37 callgsubr
        36 20 44 20 hvcurveto
        8 19 -7 13 -15 11 -16 1 rlinecurve
        -12 -16 rlineto
        -14 -12 -14 -11 -16 35 callgsubr
        4 5 -10 hvcurveto
        return
      </CharString>
      <CharString index="41">
        vvcurveto
        87 -28 96 -69 54 vhcurveto
        29 -36 -44 18 -68 hhcurveto
        -67 -44 -19 -28 -37 hvcurveto
        return
      </CharString>
      <CharString index="42">
        1 2 11 hvcurveto
        return
      </CharString>
      <CharString index="43">
        hlineto
        2 11 1 13 9 vvcurveto
        8 -1 13 -2 12 vhcurveto
        return
      </CharString>
      <CharString index="44">
        rmoveto
        -15 -16 -11 -20 -5 -23 rrcurveto
        -25 41 60 -16 51 hhcurveto
        165 24 111 140 hvcurveto
        442 vlineto
        2 29 callgsubr
        -15 -14 -1 -2 -11 hvcurveto
        -457 vlineto
        -122 -29 -48 -87 -40 -46 15 19 -31 vhcurveto
        return
      </CharString>
      <CharString index="45">
        rmoveto
        -11 2 -22 63 callsubr
        -5 9 20 -5 15 hhcurveto
        14 23 5 5 7 hvcurveto
        4 8 25 callsubr
        8 vhcurveto
        4 -8 -22 6 -14 hhcurveto
        -15 -20 -6 -4 -9 hvcurveto
        -4 -8 -2 -22 -11 vvcurveto
        endchar
      </CharString>
      <CharString index="46">
        -26 callsubr
        220 vlineto
        3 22 19 1 13 hhcurveto
        56 19 -17 -57 25 hvcurveto
        46 -104 rlineto
        -32 14 11 -20 33 hhcurveto
        19 21 10 12 9 hvcurveto
        -18 13 -15 28 -15 34 rrcurveto
        return
      </CharString>
      <CharString index="47">
        rmoveto
        -14 -14 -11 -22 -2 -20 rrcurveto
        -18 32 49 -17 53 hhcurveto
        115 53 61 132 hvcurveto
        359 80 callsubr
        71 callgsubr
        -14 -1 callgsubr
        -359 vlineto
        -89 -25 -42 -72 -34 -44 15 14 -24 vhcurveto
        return
      </CharString>
      <CharString index="48">
        305 491 rmoveto
        -127 -2 rlineto
        150 vlineto
        -6 6 rlineto
        -27 hlineto
        -33 -6 -17 -33 hvcurveto
        -105 vlineto
        -71 1 72 callgsubr
        -8 -10 vvcurveto
        -11 68 callgsubr
        71 1 rlineto
        -356 vlineto
        -54 35 -29 56 39 31 2 4 31 vhcurveto
        2 9 callgsubr
        -3 15 -4 10 vhcurveto
        -76 hlineto
        -29 -10 17 25 hvcurveto
        336 vlineto
        127 -1 rlineto
        10 callsubr
        8 11 13 callgsubr
        return
      </CharString>
      <CharString index="49">
        -6 18 -17 21 -19 11 rrcurveto
        -55 -64 -60 -24 -59 hhcurveto
        -112 -69 105 178 192 66 101 116 118 40 -93 -71 -2 hvcurveto
        return
      </CharString>
      <CharString index="50">
        rmoveto
        -138 hlineto
        -17 -27 -1 -3 -25 hvcurveto
        6 16 18 20 34 28 56 45 rcurveline
        49 39 33 34 62 vvcurveto
        63 -49 57 -79 -69 -46 -44 -50 -19 vhcurveto
        9 -12 22 -11 19 -3 rrcurveto
        36 16 28 26 35 hhcurveto
        37 27 -27 -36 -34 -16 -21 -39 -31 hvcurveto
        -63 -52 rlineto
        -46 -36 -36 -46 -39 vvcurveto
        -17 16 -15 7 -8 vhcurveto
        222 hlineto
        20 11 13 18 11 callgsubr
      </CharString>
      <CharString index="51">
        rmoveto
        -18 -11 -16 -29 -4 -27 205 -86 rcurveline
        13 9 8 19 3 14 rrcurveto
        endchar
      </CharString>
      <CharString index="52">
        rmoveto
        -51 -28 39 48 64 44 36 69 36 39 -2 -5 34 hvcurveto
        -100 vlineto
        -54 -42 -55 -26 -46 hhcurveto
        return
      </CharString>
      <CharString index="53">
        -14 17 -66 10 -98 vhcurveto
        12 -6 21 0 9 6 rrcurveto
        11 97 17 67 14 vvcurveto
        14 -2 13 -4 14 vhcurveto
        6 -9 -17 5 75 callsubr
        -15 -5 -6 -9 hvcurveto
        52 callsubr
        return
      </CharString>
</ttFont>
